<?xml version="1.0" encoding="utf-8"?>
<svg width="409px" height="80px" viewBox="0 0 409 80" version="1.1" xmlns:xlink="http://www.w3.org/1999/xlink" xmlns="http://www.w3.org/2000/svg">
  <g id="Group">
    <path d="M215.48 12.048C218.296 12.048 220.504 12.88 222.104 14.544C223.704 16.208 224.504 18.928 224.504 22.704L208.712 22.704L208.616 21.792L218.456 21.792C218.488 20.224 218.392 18.776 218.168 17.448C217.944 16.12 217.592 15.056 217.112 14.256C216.632 13.456 215.992 13.056 215.192 13.056C214.072 13.056 213.12 13.76 212.336 15.168C211.552 16.576 211.08 18.912 210.92 22.176L211.064 22.464C211.032 22.848 211.008 23.248 210.992 23.664C210.976 24.08 210.968 24.512 210.968 24.96C210.968 27.168 211.28 28.96 211.904 30.336C212.528 31.712 213.32 32.712 214.28 33.336C215.24 33.96 216.216 34.272 217.208 34.272C218.168 34.272 219.216 34.032 220.352 33.552C221.488 33.072 222.552 32.032 223.544 30.432L224.408 30.72C224.024 31.936 223.416 33.12 222.584 34.272C221.752 35.424 220.696 36.368 219.416 37.104C218.136 37.84 216.6 38.208 214.808 38.208C212.632 38.208 210.712 37.744 209.048 36.816C207.384 35.888 206.08 34.48 205.136 32.592C204.192 30.704 203.72 28.304 203.72 25.392C203.72 22.416 204.224 19.936 205.232 17.952C206.24 15.968 207.632 14.488 209.408 13.512C211.184 12.536 213.208 12.048 215.48 12.048L215.48 12.048ZM195.712 12.192L195.712 32.304C195.712 33.744 195.936 34.808 196.384 35.496C196.832 36.184 197.632 36.528 198.784 36.528L198.784 37.536C197.792 37.44 196.8 37.392 195.808 37.392C194.464 37.392 193.216 37.44 192.064 37.536C190.912 37.632 189.824 37.808 188.8 38.064L188.8 33.744C188.032 35.344 186.968 36.488 185.608 37.176C184.248 37.864 182.736 38.208 181.072 38.208C179.728 38.208 178.64 38.032 177.808 37.68C176.976 37.328 176.32 36.88 175.84 36.336C175.296 35.728 174.912 34.928 174.688 33.936C174.464 32.944 174.352 31.664 174.352 30.096L174.352 17.952C174.352 16.512 174.136 15.448 173.704 14.76C173.272 14.072 172.464 13.728 171.28 13.728L171.28 12.72C172.304 12.816 173.296 12.864 174.256 12.864C175.6 12.864 176.856 12.808 178.024 12.696C179.192 12.584 180.272 12.416 181.264 12.192L181.264 32.064C181.264 32.864 181.336 33.568 181.48 34.176C181.624 34.784 181.904 35.256 182.32 35.592C182.736 35.928 183.344 36.096 184.144 36.096C185.424 36.096 186.52 35.56 187.432 34.488C188.344 33.416 188.8 32.096 188.8 30.528L188.8 17.952C188.8 16.512 188.584 15.448 188.152 14.76C187.72 14.072 186.912 13.728 185.728 13.728L185.728 12.72C186.752 12.816 187.744 12.864 188.704 12.864C190.048 12.864 191.304 12.808 192.472 12.696C193.64 12.584 194.72 12.416 195.712 12.192L195.712 12.192ZM152.664 12.048C154.168 12.048 155.464 12.248 156.552 12.648C157.64 13.048 158.584 13.792 159.384 14.88L158.664 15.12C158.184 14.384 157.576 13.856 156.84 13.536C156.104 13.216 155.32 13.056 154.488 13.056C152.824 13.056 151.56 14.048 150.696 16.032C149.832 18.016 149.4 21.04 149.4 25.104C149.4 27.824 149.592 29.992 149.976 31.608C150.36 33.224 150.896 34.384 151.584 35.088C152.272 35.792 153.08 36.144 154.008 36.144C155.064 36.144 156.032 35.68 156.912 34.752C157.792 33.824 158.264 32.56 158.328 30.96L158.568 32.64C158.088 34.464 157.288 35.848 156.168 36.792C155.048 37.736 153.656 38.208 151.992 38.208C150.168 38.208 148.512 37.744 147.024 36.816C145.536 35.888 144.352 34.456 143.472 32.52C142.592 30.584 142.152 28.08 142.152 25.008C142.152 22.096 142.6 19.688 143.496 17.784C144.392 15.88 145.632 14.448 147.216 13.488C148.8 12.528 150.616 12.048 152.664 12.048L152.664 12.048ZM164.712 11.952L165.432 12.336C165.304 12.752 165.216 13.192 165.168 13.656C165.12 14.12 165.096 14.592 165.096 15.072L165.096 41.952C165.096 43.232 165.312 44.096 165.744 44.544C166.176 44.992 166.92 45.216 167.976 45.216L167.976 46.224C167.4 46.192 166.552 46.152 165.432 46.104C164.312 46.056 163.144 46.032 161.928 46.032C160.328 46.032 158.792 46.056 157.32 46.104C155.848 46.152 154.696 46.192 153.864 46.224L153.864 45.216C155.24 45.216 156.304 44.968 157.056 44.472C157.808 43.976 158.184 42.976 158.184 41.472L158.184 13.968C159.016 14.032 159.848 13.984 160.68 13.824C161.512 13.664 162.288 13.416 163.008 13.08C163.728 12.744 164.296 12.368 164.712 11.952L164.712 11.952ZM130.448 0.335999C131.792 0.336001 132.856 0.664001 133.64 1.32C134.424 1.976 134.816 2.88 134.816 4.032C134.816 5.184 134.424 6.088 133.64 6.744C132.856 7.4 131.792 7.728 130.448 7.728C129.104 7.728 128.04 7.4 127.256 6.744C126.472 6.088 126.08 5.184 126.08 4.032C126.08 2.88 126.472 1.976 127.256 1.32C128.04 0.664001 129.104 0.336001 130.448 0.335999L130.448 0.335999ZM134.192 12.192L134.192 33.072C134.192 34.416 134.424 35.328 134.888 35.808C135.352 36.288 136.144 36.528 137.264 36.528L137.264 37.536C136.688 37.504 135.792 37.464 134.576 37.416C133.36 37.368 132.128 37.344 130.88 37.344C129.632 37.344 128.368 37.368 127.088 37.416C125.808 37.464 124.848 37.504 124.208 37.536L124.208 36.528C125.328 36.528 126.12 36.288 126.584 35.808C127.048 35.328 127.28 34.416 127.28 33.072L127.28 17.952C127.28 16.512 127.064 15.448 126.632 14.76C126.2 14.072 125.392 13.728 124.208 13.728L124.208 12.72C125.232 12.816 126.224 12.864 127.184 12.864C128.528 12.864 129.784 12.808 130.952 12.696C132.12 12.584 133.2 12.416 134.192 12.192L134.192 12.192ZM117.784 0C118.904 0 119.88 0.144 120.712 0.431999C121.544 0.720001 122.28 1.104 122.92 1.584C123.368 1.936 123.752 2.424 124.072 3.048C124.392 3.672 124.552 4.384 124.552 5.184C124.552 6.048 124.24 6.816 123.616 7.488C122.992 8.16 122.168 8.496 121.144 8.496C120.088 8.496 119.216 8.192 118.528 7.584C117.84 6.976 117.496 6.144 117.496 5.088C117.496 4.256 117.736 3.52 118.216 2.88C118.696 2.24 119.4 1.792 120.328 1.536C120.232 1.344 120.04 1.184 119.752 1.056C119.464 0.927999 119.08 0.863998 118.6 0.863998C117.96 0.864003 117.432 0.976005 117.016 1.2C116.6 1.424 116.264 1.728 116.008 2.112C115.656 2.592 115.416 3.288 115.288 4.2C115.16 5.112 115.096 6.512 115.096 8.4L115.096 12.768L120.232 12.768L120.232 13.728L115.096 13.728L115.096 32.592C115.096 34.16 115.496 35.208 116.296 35.736C117.096 36.264 118.2 36.528 119.608 36.528L119.608 37.536C118.776 37.504 117.608 37.464 116.104 37.416C114.6 37.368 113.016 37.344 111.352 37.344C110.136 37.344 108.944 37.368 107.776 37.416C106.608 37.464 105.72 37.504 105.112 37.536L105.112 36.528C106.232 36.528 107.024 36.288 107.488 35.808C107.952 35.328 108.184 34.416 108.184 33.072L108.184 13.728L104.92 13.728L104.92 12.768L108.184 12.768C108.184 9.92 108.408 7.752 108.856 6.264C109.304 4.776 110.088 3.488 111.208 2.4C111.912 1.728 112.848 1.16 114.016 0.695999C115.184 0.231999 116.44 0 117.784 0L117.784 0ZM98.688 0C99.808 0 100.784 0.144 101.616 0.431999C102.448 0.720001 103.184 1.104 103.824 1.584C104.272 1.936 104.656 2.424 104.976 3.048C105.296 3.672 105.456 4.384 105.456 5.184C105.456 6.048 105.144 6.816 104.52 7.488C103.896 8.16 103.072 8.496 102.048 8.496C100.992 8.496 100.12 8.192 99.432 7.584C98.744 6.976 98.4 6.144 98.4 5.088C98.4 4.256 98.64 3.52 99.12 2.88C99.6 2.24 100.304 1.792 101.232 1.536C101.136 1.344 100.944 1.184 100.656 1.056C100.368 0.927999 99.984 0.863998 99.504 0.863998C98.864 0.864003 98.336 0.976005 97.92 1.2C97.504 1.424 97.168 1.728 96.912 2.112C96.56 2.592 96.32 3.288 96.192 4.2C96.064 5.112 96 6.512 96 8.4L96 12.768L101.136 12.768L101.136 13.728L96 13.728L96 32.592C96 34.16 96.4 35.208 97.2 35.736C98 36.264 99.104 36.528 100.512 36.528L100.512 37.536C99.68 37.504 98.512 37.464 97.008 37.416C95.504 37.368 93.92 37.344 92.256 37.344C91.04 37.344 89.848 37.368 88.68 37.416C87.512 37.464 86.624 37.504 86.016 37.536L86.016 36.528C87.136 36.528 87.928 36.288 88.392 35.808C88.856 35.328 89.088 34.416 89.088 33.072L89.088 13.728L85.824 13.728L85.824 12.768L89.088 12.768C89.088 9.92 89.312 7.752 89.76 6.264C90.208 4.776 90.992 3.488 92.112 2.4C92.816 1.728 93.752 1.16 94.92 0.695999C96.088 0.231999 97.344 0 98.688 0L98.688 0ZM65.2879 37.872C63.1439 37.872 61.5919 37.312 60.6319 36.192C59.6719 35.072 59.1919 33.712 59.1919 32.112C59.1919 30.736 59.5039 29.616 60.1279 28.752C60.7519 27.888 61.5599 27.176 62.5519 26.616C63.5439 26.056 64.5919 25.592 65.6959 25.224C66.7999 24.856 67.8559 24.488 68.8639 24.12C69.8719 23.752 70.6879 23.328 71.3119 22.848C71.9359 22.368 72.2479 21.76 72.2479 21.024L72.2479 17.28C72.2479 16.448 72.1119 15.704 71.8399 15.048C71.5679 14.392 71.1519 13.888 70.5919 13.536C70.0319 13.184 69.3039 13.008 68.4079 13.008C67.7679 13.008 67.1279 13.096 66.4879 13.272C65.8479 13.448 65.3199 13.744 64.9039 14.16C65.7999 14.48 66.4959 14.968 66.9919 15.624C67.4879 16.28 67.7359 17.024 67.7359 17.856C67.7359 18.944 67.3599 19.808 66.6079 20.448C65.8559 21.088 64.9679 21.408 63.9439 21.408C62.7919 21.408 61.9199 21.048 61.3279 20.328C60.7359 19.608 60.4399 18.736 60.4399 17.712C60.4399 16.784 60.6719 16.016 61.1359 15.408C61.5999 14.8 62.2479 14.224 63.0799 13.68C63.9759 13.168 65.0559 12.768 66.3199 12.48C67.5839 12.192 68.9519 12.048 70.4239 12.048C71.8959 12.048 73.2239 12.2 74.4079 12.504C75.5919 12.808 76.5839 13.36 77.3839 14.16C78.1199 14.896 78.5999 15.8 78.8239 16.872C79.0479 17.944 79.1599 19.296 79.1599 20.928L79.1599 33.984C79.1599 34.752 79.2399 35.296 79.3999 35.616C79.5599 35.936 79.8319 36.096 80.2159 36.096C80.5359 36.096 80.8399 36.016 81.1279 35.856C81.4159 35.696 81.6879 35.504 81.9439 35.28L82.4239 36.096C81.7519 36.672 80.9759 37.112 80.0959 37.416C79.2159 37.72 78.2319 37.872 77.1439 37.872C75.2239 37.872 73.9519 37.48 73.3279 36.696C72.7039 35.912 72.3759 35.008 72.3439 33.984C71.5439 35.296 70.5599 36.272 69.3919 36.912C68.2239 37.552 66.8559 37.872 65.2879 37.872L65.2879 37.872ZM68.9838 34.8C69.5918 34.8 70.1598 34.656 70.6878 34.368C71.2158 34.08 71.7358 33.568 72.2478 32.832L72.2478 22.992C71.8638 23.632 71.3278 24.168 70.6398 24.6C69.9518 25.032 69.2478 25.496 68.5278 25.992C67.8078 26.488 67.2078 27.12 66.7278 27.888C66.2478 28.656 66.0078 29.68 66.0078 30.96C66.0078 32.336 66.2958 33.32 66.8718 33.912C67.4478 34.504 68.1518 34.8 68.9838 34.8L68.9838 34.8ZM50.8479 12.048C51.8719 12.048 52.7039 12.264 53.3439 12.696C53.9839 13.128 54.4559 13.68 54.7599 14.352C55.0639 15.024 55.2159 15.728 55.2159 16.464C55.2159 17.648 54.8719 18.616 54.1839 19.368C53.4959 20.12 52.5919 20.496 51.4719 20.496C50.3519 20.496 49.4799 20.216 48.8559 19.656C48.2319 19.096 47.9199 18.352 47.9199 17.424C47.9199 16.528 48.1199 15.784 48.5199 15.192C48.9199 14.6 49.4239 14.096 50.0319 13.68C49.5839 13.552 49.1359 13.568 48.6879 13.728C47.8559 13.856 47.1119 14.248 46.4559 14.904C45.7999 15.56 45.2799 16.336 44.8959 17.232C44.5119 18.128 44.3199 19.008 44.3199 19.872L44.3199 32.592C44.3199 34.128 44.6959 35.168 45.4479 35.712C46.1999 36.256 47.3279 36.528 48.8319 36.528L48.8319 37.536C48.0959 37.504 47.0239 37.464 45.6159 37.416C44.2079 37.368 42.7359 37.344 41.1999 37.344C39.9199 37.344 38.6239 37.368 37.3119 37.416C35.9999 37.464 35.0079 37.504 34.3359 37.536L34.3359 36.528C35.4559 36.528 36.2479 36.288 36.7119 35.808C37.1759 35.328 37.4079 34.416 37.4079 33.072L37.4079 17.952C37.4079 16.512 37.1919 15.448 36.7599 14.76C36.3279 14.072 35.5199 13.728 34.3359 13.728L34.3359 12.72C35.3599 12.816 36.3519 12.864 37.3119 12.864C38.6559 12.864 39.9119 12.808 41.0799 12.696C42.2479 12.584 43.3279 12.416 44.3199 12.192L44.3199 16.656C44.7039 15.792 45.2159 15.008 45.8559 14.304C46.4959 13.6 47.2319 13.048 48.0639 12.648C48.8959 12.248 49.8239 12.048 50.8479 12.048L50.8479 12.048ZM29.7359 3.552C29.6079 5.184 29.5199 6.752 29.4719 8.256C29.4239 9.76 29.3999 10.912 29.3999 11.712C29.3999 12.416 29.4159 13.088 29.4479 13.728C29.4799 14.368 29.5119 14.912 29.5439 15.36L28.4399 15.36C27.9279 12.672 27.2799 10.544 26.4959 8.976C25.7119 7.408 24.7759 6.296 23.6879 5.64C22.5999 4.984 21.3199 4.656 19.8479 4.656L18.7439 4.656L18.7439 32.064C18.7439 33.344 18.8799 34.304 19.1519 34.944C19.4239 35.584 19.9279 36.008 20.6639 36.216C21.3999 36.424 22.4719 36.544 23.8799 36.576L23.8799 37.536C22.8879 37.504 21.5679 37.472 19.9199 37.44C18.2719 37.408 16.5519 37.392 14.7599 37.392C12.9999 37.392 11.3359 37.408 9.76787 37.44C8.19987 37.472 6.93587 37.504 5.97587 37.536L5.97587 36.576C7.41587 36.544 8.50387 36.424 9.23987 36.216C9.97587 36.008 10.4719 35.584 10.7279 34.944C10.9839 34.304 11.1119 33.344 11.1119 32.064L11.1119 4.656L10.0559 4.656C8.58387 4.656 7.30387 4.984 6.21587 5.64C5.12787 6.296 4.19987 7.4 3.43187 8.952C2.66387 10.504 1.99187 12.64 1.41587 15.36L0.311873 15.36C0.375873 14.912 0.415873 14.368 0.431873 13.728C0.447873 13.088 0.455873 12.416 0.455873 11.712C0.455873 10.912 0.431873 9.76 0.383873 8.256C0.335873 6.752 0.247873 5.184 0.119873 3.552C1.59187 3.584 3.19987 3.616 4.94387 3.648C6.68787 3.68 8.43987 3.696 10.1999 3.696C11.9599 3.696 13.5439 3.696 14.9519 3.696C16.3919 3.696 17.9839 3.696 19.7279 3.696C21.4719 3.696 23.2239 3.68 24.9839 3.648C26.7439 3.616 28.3279 3.584 29.7359 3.552L29.7359 3.552Z" id="Traffique" fill="#CFFF60" stroke="none" />
    <g id="Simulations-on-another-level" transform="translate(0 61.807983)">
      <path d="M397.296 14.256L401.472 14.256L401.472 3.216L397.44 3.216L397.44 0.336L404.496 0.336L404.496 14.256L408.384 14.256L408.384 17.136L397.296 17.136L397.296 14.256ZM385.344 12.168C385.36 12.52 385.444 12.844 385.596 13.14C385.748 13.436 385.956 13.692 386.22 13.908C386.484 14.124 386.788 14.292 387.132 14.412C387.476 14.532 387.84 14.592 388.224 14.592C388.976 14.592 389.552 14.46 389.952 14.196C390.352 13.932 390.64 13.616 390.816 13.248L393.408 14.688C393.264 14.992 393.064 15.308 392.808 15.636C392.552 15.964 392.22 16.264 391.812 16.536C391.404 16.808 390.908 17.032 390.324 17.208C389.74 17.384 389.056 17.472 388.272 17.472C387.376 17.472 386.56 17.328 385.824 17.04C385.088 16.752 384.452 16.336 383.916 15.792C383.38 15.248 382.964 14.584 382.668 13.8C382.372 13.016 382.224 12.128 382.224 11.136L382.224 10.992C382.224 10.08 382.38 9.248 382.692 8.496C383.004 7.744 383.432 7.104 383.976 6.576C384.52 6.048 385.156 5.636 385.884 5.34C386.612 5.044 387.392 4.896 388.224 4.896C389.248 4.896 390.128 5.076 390.864 5.436C391.6 5.796 392.208 6.252 392.688 6.804C393.168 7.356 393.52 7.964 393.744 8.628C393.968 9.292 394.08 9.936 394.08 10.56L394.08 12.168L385.344 12.168ZM388.2 7.632C387.432 7.632 386.808 7.828 386.328 8.22C385.848 8.612 385.536 9.064 385.392 9.576L391.008 9.576C390.912 9.016 390.612 8.552 390.108 8.184C389.604 7.816 388.968 7.632 388.2 7.632L388.2 7.632ZM367.152 5.232L370.416 5.232L373.224 15.696L373.656 15.696L376.464 5.232L379.728 5.232L376.32 17.136L370.56 17.136L367.152 5.232ZM355.968 12.168C355.984 12.52 356.068 12.844 356.22 13.14C356.372 13.436 356.58 13.692 356.844 13.908C357.108 14.124 357.412 14.292 357.756 14.412C358.1 14.532 358.464 14.592 358.848 14.592C359.6 14.592 360.176 14.46 360.576 14.196C360.976 13.932 361.264 13.616 361.44 13.248L364.032 14.688C363.888 14.992 363.688 15.308 363.432 15.636C363.176 15.964 362.844 16.264 362.436 16.536C362.028 16.808 361.532 17.032 360.948 17.208C360.364 17.384 359.68 17.472 358.896 17.472C358 17.472 357.184 17.328 356.448 17.04C355.712 16.752 355.076 16.336 354.54 15.792C354.004 15.248 353.588 14.584 353.292 13.8C352.996 13.016 352.848 12.128 352.848 11.136L352.848 10.992C352.848 10.08 353.004 9.248 353.316 8.496C353.628 7.744 354.056 7.104 354.6 6.576C355.144 6.048 355.78 5.636 356.508 5.34C357.236 5.044 358.016 4.896 358.848 4.896C359.872 4.896 360.752 5.076 361.488 5.436C362.224 5.796 362.832 6.252 363.312 6.804C363.792 7.356 364.144 7.964 364.368 8.628C364.592 9.292 364.704 9.936 364.704 10.56L364.704 12.168L355.968 12.168ZM358.824 7.632C358.056 7.632 357.432 7.828 356.952 8.22C356.472 8.612 356.16 9.064 356.016 9.576L361.632 9.576C361.536 9.016 361.236 8.552 360.732 8.184C360.228 7.816 359.592 7.632 358.824 7.632L358.824 7.632ZM338.544 14.256L342.72 14.256L342.72 3.216L338.688 3.216L338.688 0.336L345.744 0.336L345.744 14.256L349.632 14.256L349.632 17.136L338.544 17.136L338.544 14.256ZM308.664 5.232L313.704 5.232L313.704 6.96L314.136 6.96C314.36 6.304 314.74 5.796 315.276 5.436C315.812 5.076 316.456 4.896 317.208 4.896C318.392 4.896 319.344 5.268 320.064 6.012C320.784 6.756 321.144 7.888 321.144 9.408L321.144 9.936L318.024 10.224L318.024 9.888C318.024 9.232 317.856 8.708 317.52 8.316C317.184 7.924 316.68 7.728 316.008 7.728C315.336 7.728 314.808 7.96 314.424 8.424C314.04 8.888 313.848 9.552 313.848 10.416L313.848 14.256L316.584 14.256L316.584 17.136L308.376 17.136L308.376 14.256L310.824 14.256L310.824 8.112L308.664 8.112L308.664 5.232ZM297.216 12.168C297.232 12.52 297.316 12.844 297.468 13.14C297.62 13.436 297.828 13.692 298.092 13.908C298.356 14.124 298.66 14.292 299.004 14.412C299.348 14.532 299.712 14.592 300.096 14.592C300.848 14.592 301.424 14.46 301.824 14.196C302.224 13.932 302.512 13.616 302.688 13.248L305.28 14.688C305.136 14.992 304.936 15.308 304.68 15.636C304.424 15.964 304.092 16.264 303.684 16.536C303.276 16.808 302.78 17.032 302.196 17.208C301.612 17.384 300.928 17.472 300.144 17.472C299.248 17.472 298.432 17.328 297.696 17.04C296.96 16.752 296.324 16.336 295.788 15.792C295.252 15.248 294.836 14.584 294.54 13.8C294.244 13.016 294.096 12.128 294.096 11.136L294.096 10.992C294.096 10.08 294.252 9.248 294.564 8.496C294.876 7.744 295.304 7.104 295.848 6.576C296.392 6.048 297.028 5.636 297.756 5.34C298.484 5.044 299.264 4.896 300.096 4.896C301.12 4.896 302 5.076 302.736 5.436C303.472 5.796 304.08 6.252 304.56 6.804C305.04 7.356 305.392 7.964 305.616 8.628C305.84 9.292 305.952 9.936 305.952 10.56L305.952 12.168L297.216 12.168ZM300.072 7.632C299.304 7.632 298.68 7.828 298.2 8.22C297.72 8.612 297.408 9.064 297.264 9.576L302.88 9.576C302.784 9.016 302.484 8.552 301.98 8.184C301.476 7.816 300.84 7.632 300.072 7.632L300.072 7.632ZM282.936 17.136L279.912 17.136L279.912 0.336L282.936 0.336L282.936 7.152L283.368 7.152C283.672 6.432 284.12 5.876 284.712 5.484C285.304 5.092 286.032 4.896 286.896 4.896C287.488 4.896 288.032 4.992 288.528 5.184C289.024 5.376 289.456 5.664 289.824 6.048C290.192 6.432 290.48 6.924 290.688 7.524C290.896 8.124 291 8.832 291 9.648L291 17.136L287.976 17.136L287.976 10.368C287.976 9.52 287.772 8.852 287.364 8.364C286.956 7.876 286.368 7.632 285.6 7.632C284.704 7.632 284.036 7.932 283.596 8.532C283.156 9.132 282.936 9.936 282.936 10.944L282.936 17.136ZM264.84 5.232L268.368 5.232L268.368 0.336L271.392 0.336L271.392 5.232L275.688 5.232L275.688 8.112L271.392 8.112L271.392 13.536C271.392 14.016 271.608 14.256 272.04 14.256L275.256 14.256L275.256 17.136L270.216 17.136C269.672 17.136 269.228 16.96 268.884 16.608C268.54 16.256 268.368 15.808 268.368 15.264L268.368 8.112L264.84 8.112L264.84 5.232ZM262.152 11.328C262.152 12.32 261.984 13.196 261.648 13.956C261.312 14.716 260.856 15.356 260.28 15.876C259.704 16.396 259.044 16.792 258.3 17.064C257.556 17.336 256.776 17.472 255.96 17.472C255.144 17.472 254.364 17.336 253.62 17.064C252.876 16.792 252.216 16.396 251.64 15.876C251.064 15.356 250.608 14.716 250.272 13.956C249.936 13.196 249.768 12.32 249.768 11.328L249.768 11.04C249.768 10.064 249.936 9.196 250.272 8.436C250.608 7.676 251.064 7.032 251.64 6.504C252.216 5.976 252.876 5.576 253.62 5.304C254.364 5.032 255.144 4.896 255.96 4.896C256.776 4.896 257.556 5.032 258.3 5.304C259.044 5.576 259.704 5.976 260.28 6.504C260.856 7.032 261.312 7.676 261.648 8.436C261.984 9.196 262.152 10.064 262.152 11.04L262.152 11.328ZM255.96 14.592C256.392 14.592 256.8 14.52 257.184 14.376C257.568 14.232 257.904 14.024 258.192 13.752C258.48 13.48 258.708 13.148 258.876 12.756C259.044 12.364 259.128 11.92 259.128 11.424L259.128 10.944C259.128 10.448 259.044 10.004 258.876 9.612C258.708 9.22 258.48 8.888 258.192 8.616C257.904 8.344 257.568 8.136 257.184 7.992C256.8 7.848 256.392 7.776 255.96 7.776C255.528 7.776 255.12 7.848 254.736 7.992C254.352 8.136 254.016 8.344 253.728 8.616C253.44 8.888 253.212 9.22 253.044 9.612C252.876 10.004 252.792 10.448 252.792 10.944L252.792 11.424C252.792 11.92 252.876 12.364 253.044 12.756C253.212 13.148 253.44 13.48 253.728 13.752C254.016 14.024 254.352 14.232 254.736 14.376C255.12 14.52 255.528 14.592 255.96 14.592L255.96 14.592ZM238.824 17.136L235.8 17.136L235.8 5.232L238.824 5.232L238.824 7.008L239.256 7.008C239.528 6.336 239.968 5.816 240.576 5.448C241.184 5.08 241.896 4.896 242.712 4.896C243.288 4.896 243.828 4.988 244.332 5.172C244.836 5.356 245.28 5.64 245.664 6.024C246.048 6.408 246.348 6.896 246.564 7.488C246.78 8.08 246.888 8.784 246.888 9.6L246.888 17.136L243.864 17.136L243.864 10.368C243.864 9.52 243.66 8.852 243.252 8.364C242.844 7.876 242.256 7.632 241.488 7.632C240.592 7.632 239.924 7.932 239.484 8.532C239.044 9.132 238.824 9.936 238.824 10.944L238.824 17.136ZM228.816 15.408C228.496 16.16 228.048 16.692 227.472 17.004C226.896 17.316 226.224 17.472 225.456 17.472C224.736 17.472 224.06 17.336 223.428 17.064C222.796 16.792 222.24 16.392 221.76 15.864C221.28 15.336 220.9 14.696 220.62 13.944C220.34 13.192 220.2 12.336 220.2 11.376L220.2 10.992C220.2 10.048 220.336 9.2 220.608 8.448C220.88 7.696 221.248 7.056 221.712 6.528C222.176 6 222.716 5.596 223.332 5.316C223.948 5.036 224.608 4.896 225.312 4.896C226.16 4.896 226.844 5.04 227.364 5.328C227.884 5.616 228.296 6.064 228.6 6.672L229.032 6.672L229.032 5.232L232.056 5.232L232.056 13.536C232.056 14.016 232.272 14.256 232.704 14.256L233.16 14.256L233.16 17.136L231.096 17.136C230.552 17.136 230.108 16.976 229.764 16.656C229.42 16.336 229.248 15.92 229.248 15.408L228.816 15.408ZM226.128 14.592C227.008 14.592 227.712 14.3 228.24 13.716C228.768 13.132 229.032 12.336 229.032 11.328L229.032 11.04C229.032 10.032 228.768 9.236 228.24 8.652C227.712 8.068 227.008 7.776 226.128 7.776C225.248 7.776 224.544 8.068 224.016 8.652C223.488 9.236 223.224 10.032 223.224 11.04L223.224 11.328C223.224 12.336 223.488 13.132 224.016 13.716C224.544 14.3 225.248 14.592 226.128 14.592L226.128 14.592Z" id="another-level" fill="#F2FFD3" stroke="none" />
      <path d="M193.824 17.136L191.952 17.136L191.952 5.232L193.824 5.232L193.824 7.248L194.112 7.248C194.848 5.68 196.128 4.896 197.952 4.896C199.328 4.896 200.424 5.324 201.24 6.18C202.056 7.036 202.464 8.32 202.464 10.032L202.464 17.136L200.592 17.136L200.592 10.416C200.592 9.168 200.312 8.232 199.752 7.608C199.192 6.984 198.432 6.672 197.472 6.672C196.336 6.672 195.444 7.06 194.796 7.836C194.148 8.612 193.824 9.648 193.824 10.944L193.824 17.136ZM188.496 11.328C188.496 12.32 188.332 13.196 188.004 13.956C187.676 14.716 187.24 15.356 186.696 15.876C186.152 16.396 185.516 16.792 184.788 17.064C184.06 17.336 183.304 17.472 182.52 17.472C181.72 17.472 180.96 17.336 180.24 17.064C179.52 16.792 178.888 16.396 178.344 15.876C177.8 15.356 177.364 14.716 177.036 13.956C176.708 13.196 176.544 12.32 176.544 11.328L176.544 11.04C176.544 10.064 176.708 9.196 177.036 8.436C177.364 7.676 177.804 7.032 178.356 6.504C178.908 5.976 179.544 5.576 180.264 5.304C180.984 5.032 181.736 4.896 182.52 4.896C183.304 4.896 184.056 5.032 184.776 5.304C185.496 5.576 186.132 5.976 186.684 6.504C187.236 7.032 187.676 7.676 188.004 8.436C188.332 9.196 188.496 10.064 188.496 11.04L188.496 11.328ZM182.52 15.696C183.096 15.696 183.628 15.596 184.116 15.396C184.604 15.196 185.032 14.904 185.4 14.52C185.768 14.136 186.056 13.676 186.264 13.14C186.472 12.604 186.576 12 186.576 11.328L186.576 11.04C186.576 10.4 186.472 9.812 186.264 9.276C186.056 8.74 185.768 8.28 185.4 7.896C185.032 7.512 184.6 7.212 184.104 6.996C183.608 6.78 183.08 6.672 182.52 6.672C181.96 6.672 181.432 6.78 180.936 6.996C180.44 7.212 180.008 7.512 179.64 7.896C179.272 8.28 178.984 8.74 178.776 9.276C178.568 9.812 178.464 10.4 178.464 11.04L178.464 11.328C178.464 12 178.568 12.604 178.776 13.14C178.984 13.676 179.272 14.136 179.64 14.52C180.008 14.904 180.436 15.196 180.924 15.396C181.412 15.596 181.944 15.696 182.52 15.696L182.52 15.696ZM150.36 8.304C150.36 8.88 150.604 9.32 151.092 9.624C151.58 9.928 152.472 10.128 153.768 10.224C155.16 10.336 156.22 10.668 156.948 11.22C157.676 11.772 158.04 12.576 158.04 13.632L158.04 13.776C158.04 14.352 157.924 14.868 157.692 15.324C157.46 15.78 157.14 16.168 156.732 16.488C156.324 16.808 155.828 17.052 155.244 17.22C154.66 17.388 154.024 17.472 153.336 17.472C152.408 17.472 151.612 17.348 150.948 17.1C150.284 16.852 149.732 16.524 149.292 16.116C148.852 15.708 148.52 15.244 148.296 14.724C148.072 14.204 147.944 13.68 147.912 13.152L149.688 12.72C149.768 13.632 150.12 14.364 150.744 14.916C151.368 15.468 152.2 15.744 153.24 15.744C154.12 15.744 154.828 15.572 155.364 15.228C155.9 14.884 156.168 14.4 156.168 13.776C156.168 13.104 155.904 12.624 155.376 12.336C154.848 12.048 153.992 11.864 152.808 11.784C151.432 11.688 150.376 11.368 149.64 10.824C148.904 10.28 148.536 9.488 148.536 8.448L148.536 8.304C148.536 7.744 148.656 7.252 148.896 6.828C149.136 6.404 149.46 6.048 149.868 5.76C150.276 5.472 150.736 5.256 151.248 5.112C151.76 4.968 152.296 4.896 152.856 4.896C153.64 4.896 154.328 5.004 154.92 5.22C155.512 5.436 156.008 5.716 156.408 6.06C156.808 6.404 157.116 6.8 157.332 7.248C157.548 7.696 157.688 8.144 157.752 8.592L155.976 9.024C155.896 8.256 155.588 7.656 155.052 7.224C154.516 6.792 153.816 6.576 152.952 6.576C152.616 6.576 152.292 6.612 151.98 6.684C151.668 6.756 151.392 6.864 151.152 7.008C150.912 7.152 150.72 7.332 150.576 7.548C150.432 7.764 150.36 8.016 150.36 8.304L150.36 8.304ZM135.072 17.136L133.2 17.136L133.2 5.232L135.072 5.232L135.072 7.248L135.36 7.248C136.096 5.68 137.376 4.896 139.2 4.896C140.576 4.896 141.672 5.324 142.488 6.18C143.304 7.036 143.712 8.32 143.712 10.032L143.712 17.136L141.84 17.136L141.84 10.416C141.84 9.168 141.56 8.232 141 7.608C140.44 6.984 139.68 6.672 138.72 6.672C137.584 6.672 136.692 7.06 136.044 7.836C135.396 8.612 135.072 9.648 135.072 10.944L135.072 17.136ZM129.744 11.328C129.744 12.32 129.58 13.196 129.252 13.956C128.924 14.716 128.488 15.356 127.944 15.876C127.4 16.396 126.764 16.792 126.036 17.064C125.308 17.336 124.552 17.472 123.768 17.472C122.968 17.472 122.208 17.336 121.488 17.064C120.768 16.792 120.136 16.396 119.592 15.876C119.048 15.356 118.612 14.716 118.284 13.956C117.956 13.196 117.792 12.32 117.792 11.328L117.792 11.04C117.792 10.064 117.956 9.196 118.284 8.436C118.612 7.676 119.052 7.032 119.604 6.504C120.156 5.976 120.792 5.576 121.512 5.304C122.232 5.032 122.984 4.896 123.768 4.896C124.552 4.896 125.304 5.032 126.024 5.304C126.744 5.576 127.38 5.976 127.932 6.504C128.484 7.032 128.924 7.676 129.252 8.436C129.58 9.196 129.744 10.064 129.744 11.04L129.744 11.328ZM123.768 15.696C124.344 15.696 124.876 15.596 125.364 15.396C125.852 15.196 126.28 14.904 126.648 14.52C127.016 14.136 127.304 13.676 127.512 13.14C127.72 12.604 127.824 12 127.824 11.328L127.824 11.04C127.824 10.4 127.72 9.812 127.512 9.276C127.304 8.74 127.016 8.28 126.648 7.896C126.28 7.512 125.848 7.212 125.352 6.996C124.856 6.78 124.328 6.672 123.768 6.672C123.208 6.672 122.68 6.78 122.184 6.996C121.688 7.212 121.256 7.512 120.888 7.896C120.52 8.28 120.232 8.74 120.024 9.276C119.816 9.812 119.712 10.4 119.712 11.04L119.712 11.328C119.712 12 119.816 12.604 120.024 13.14C120.232 13.676 120.52 14.136 120.888 14.52C121.256 14.904 121.684 15.196 122.172 15.396C122.66 15.596 123.192 15.696 123.768 15.696L123.768 15.696ZM107.52 1.68C107.52 1.216 107.684 0.820001 108.012 0.492001C108.34 0.164001 108.736 9.53674e-07 109.2 0C109.664 0 110.06 0.164001 110.388 0.492001C110.716 0.820001 110.88 1.216 110.88 1.68C110.88 2.144 110.716 2.54 110.388 2.868C110.06 3.196 109.664 3.36 109.2 3.36C108.736 3.36 108.34 3.196 108.012 2.868C107.684 2.54 107.52 2.144 107.52 1.68L107.52 1.68ZM104.112 15.408L108.288 15.408L108.288 6.96L104.544 6.96L104.544 5.232L110.16 5.232L110.16 15.408L114.048 15.408L114.048 17.136L104.112 17.136L104.112 15.408ZM88.728 5.232L92.472 5.232L92.472 0.336L94.344 0.336L94.344 5.232L98.952 5.232L98.952 6.96L94.344 6.96L94.344 14.688C94.344 15.168 94.56 15.408 94.992 15.408L98.376 15.408L98.376 17.136L94.32 17.136C93.776 17.136 93.332 16.96 92.988 16.608C92.644 16.256 92.472 15.808 92.472 15.264L92.472 6.96L88.728 6.96L88.728 5.232ZM83.088 15.12L82.8 15.12C82.416 15.92 81.884 16.512 81.204 16.896C80.524 17.28 79.808 17.472 79.056 17.472C78.272 17.472 77.544 17.34 76.872 17.076C76.2 16.812 75.612 16.42 75.108 15.9C74.604 15.38 74.208 14.744 73.92 13.992C73.632 13.24 73.488 12.368 73.488 11.376L73.488 10.992C73.488 10.016 73.632 9.152 73.92 8.4C74.208 7.648 74.604 7.012 75.108 6.492C75.612 5.972 76.2 5.576 76.872 5.304C77.544 5.032 78.256 4.896 79.008 4.896C79.824 4.896 80.564 5.076 81.228 5.436C81.892 5.796 82.416 6.352 82.8 7.104L83.088 7.104L83.088 5.232L84.96 5.232L84.96 14.688C84.96 15.168 85.176 15.408 85.608 15.408L86.208 15.408L86.208 17.136L84.936 17.136C84.392 17.136 83.948 16.96 83.604 16.608C83.26 16.256 83.088 15.808 83.088 15.264L83.088 15.12ZM79.248 15.696C79.808 15.696 80.324 15.592 80.796 15.384C81.268 15.176 81.672 14.88 82.008 14.496C82.344 14.112 82.608 13.652 82.8 13.116C82.992 12.58 83.088 11.984 83.088 11.328L83.088 11.04C83.088 10.4 82.992 9.812 82.8 9.276C82.608 8.74 82.34 8.28 81.996 7.896C81.652 7.512 81.244 7.212 80.772 6.996C80.3 6.78 79.792 6.672 79.248 6.672C78.688 6.672 78.176 6.776 77.712 6.984C77.248 7.192 76.844 7.484 76.5 7.86C76.156 8.236 75.888 8.692 75.696 9.228C75.504 9.764 75.408 10.352 75.408 10.992L75.408 11.376C75.408 12.736 75.764 13.796 76.476 14.556C77.188 15.316 78.112 15.696 79.248 15.696L79.248 15.696ZM59.76 15.408L64.08 15.408L64.08 2.064L59.904 2.064L59.904 0.336L65.952 0.336L65.952 15.408L70.272 15.408L70.272 17.136L59.76 17.136L59.76 15.408ZM53.568 5.232L55.44 5.232L55.44 17.136L53.568 17.136L53.568 14.976L53.28 14.976C52.896 15.744 52.392 16.352 51.768 16.8C51.144 17.248 50.352 17.472 49.392 17.472C48.736 17.472 48.132 17.364 47.58 17.148C47.028 16.932 46.556 16.608 46.164 16.176C45.772 15.744 45.468 15.208 45.252 14.568C45.036 13.928 44.928 13.184 44.928 12.336L44.928 5.232L46.8 5.232L46.8 12.096C46.8 13.344 47.056 14.256 47.568 14.832C48.08 15.408 48.864 15.696 49.92 15.696C51.056 15.696 51.948 15.308 52.596 14.532C53.244 13.756 53.568 12.72 53.568 11.424L53.568 5.232ZM41.832 17.136L39.96 17.136L39.96 8.592C39.96 8.032 39.832 7.572 39.576 7.212C39.32 6.852 38.912 6.672 38.352 6.672C37.824 6.672 37.396 6.868 37.068 7.26C36.74 7.652 36.576 8.256 36.576 9.072L36.576 17.136L34.704 17.136L34.704 8.496C34.704 7.968 34.56 7.532 34.272 7.188C33.984 6.844 33.6 6.672 33.12 6.672C32.544 6.672 32.1 6.88 31.788 7.296C31.476 7.712 31.32 8.256 31.32 8.928L31.32 17.136L29.448 17.136L29.448 5.232L31.32 5.232L31.32 6.528L31.608 6.528C31.816 5.968 32.12 5.556 32.52 5.292C32.92 5.028 33.392 4.896 33.936 4.896C34.512 4.896 34.988 5.048 35.364 5.352C35.74 5.656 36 6.048 36.144 6.528L36.432 6.528C36.976 5.44 37.84 4.896 39.024 4.896C39.92 4.896 40.612 5.18 41.1 5.748C41.588 6.316 41.832 7.056 41.832 7.968L41.832 17.136ZM19.392 1.68C19.392 1.216 19.556 0.820001 19.884 0.492001C20.212 0.164001 20.608 9.53674e-07 21.072 0C21.536 0 21.932 0.164001 22.26 0.492001C22.588 0.820001 22.752 1.216 22.752 1.68C22.752 2.144 22.588 2.54 22.26 2.868C21.932 3.196 21.536 3.36 21.072 3.36C20.608 3.36 20.212 3.196 19.884 2.868C19.556 2.54 19.392 2.144 19.392 1.68L19.392 1.68ZM15.984 15.408L20.16 15.408L20.16 6.96L16.416 6.96L16.416 5.232L22.032 5.232L22.032 15.408L25.92 15.408L25.92 17.136L15.984 17.136L15.984 15.408ZM10.224 5.184C10.224 4.64 10.116 4.16 9.9 3.744C9.684 3.328 9.392 2.984 9.024 2.712C8.656 2.44 8.232 2.232 7.752 2.088C7.272 1.944 6.768 1.872 6.24 1.872C5.776 1.872 5.336 1.932 4.92 2.052C4.504 2.172 4.132 2.344 3.804 2.568C3.476 2.792 3.216 3.068 3.024 3.396C2.832 3.724 2.736 4.104 2.736 4.536L2.736 4.68C2.736 5.144 2.832 5.54 3.024 5.868C3.216 6.196 3.5 6.476 3.876 6.708C4.252 6.94 4.72 7.132 5.28 7.284C5.84 7.436 6.496 7.568 7.248 7.68C9.008 7.952 10.304 8.468 11.136 9.228C11.968 9.988 12.384 11.008 12.384 12.288L12.384 12.576C12.384 13.296 12.26 13.956 12.012 14.556C11.764 15.156 11.396 15.672 10.908 16.104C10.42 16.536 9.816 16.872 9.096 17.112C8.376 17.352 7.544 17.472 6.6 17.472C5.528 17.472 4.58 17.316 3.756 17.004C2.932 16.692 2.244 16.26 1.692 15.708C1.14 15.156 0.72 14.508 0.432 13.764C0.144 13.02 -1.19209e-07 12.208 0 11.328L0 10.608L2.016 10.608L2.016 11.184C2.016 12.656 2.42 13.76 3.228 14.496C4.036 15.232 5.16 15.6 6.6 15.6C7.848 15.6 8.788 15.324 9.42 14.772C10.052 14.22 10.368 13.488 10.368 12.576L10.368 12.432C10.368 11.552 10.044 10.88 9.396 10.416C8.748 9.952 7.696 9.616 6.24 9.408C5.392 9.296 4.628 9.124 3.948 8.892C3.268 8.66 2.688 8.356 2.208 7.98C1.728 7.604 1.36 7.152 1.104 6.624C0.848 6.096 0.72 5.472 0.72 4.752L0.72 4.464C0.72 3.808 0.856 3.208 1.128 2.664C1.4 2.12 1.78 1.648 2.268 1.248C2.756 0.848001 3.34 0.540001 4.02 0.324001C4.7 0.108002 5.448 9.53674e-07 6.264 0C7.208 0 8.052 0.136001 8.796 0.408001C9.54 0.680001 10.168 1.044 10.68 1.5C11.192 1.956 11.58 2.492 11.844 3.108C12.108 3.724 12.24 4.368 12.24 5.04L12.24 6.048L10.224 6.048L10.224 5.184Z" id="Simulations-on-" fill="#E0FE9A" stroke="none" />
    </g>
  </g>
</svg>