<?xml version="1.0" encoding="utf-8"?>
<svg width="225px" height="47px" viewBox="0 0 225 47" version="1.1" xmlns:xlink="http://www.w3.org/1999/xlink" xmlns="http://www.w3.org/2000/svg">
  <g id="Group-2">
    <path d="M215.36 12.048C218.176 12.048 220.384 12.88 221.984 14.544C223.584 16.208 224.384 18.928 224.384 22.704L208.592 22.704L208.496 21.792L218.336 21.792C218.368 20.224 218.272 18.776 218.048 17.448C217.824 16.12 217.472 15.056 216.992 14.256C216.512 13.456 215.872 13.056 215.072 13.056C213.952 13.056 213 13.76 212.216 15.168C211.432 16.576 210.96 18.912 210.8 22.176L210.944 22.464C210.912 22.848 210.888 23.248 210.872 23.664C210.856 24.08 210.848 24.512 210.848 24.96C210.848 27.168 211.16 28.96 211.784 30.336C212.408 31.712 213.2 32.712 214.16 33.336C215.12 33.96 216.096 34.272 217.088 34.272C218.048 34.272 219.096 34.032 220.232 33.552C221.368 33.072 222.432 32.032 223.424 30.432L224.288 30.72C223.904 31.936 223.296 33.12 222.464 34.272C221.632 35.424 220.576 36.368 219.296 37.104C218.016 37.84 216.48 38.208 214.688 38.208C212.512 38.208 210.592 37.744 208.928 36.816C207.264 35.888 205.96 34.48 205.016 32.592C204.072 30.704 203.6 28.304 203.6 25.392C203.6 22.416 204.104 19.936 205.112 17.952C206.12 15.968 207.512 14.488 209.288 13.512C211.064 12.536 213.088 12.048 215.36 12.048L215.36 12.048ZM195.592 12.192L195.592 32.304C195.592 33.744 195.816 34.808 196.264 35.496C196.712 36.184 197.512 36.528 198.664 36.528L198.664 37.536C197.672 37.44 196.68 37.392 195.688 37.392C194.344 37.392 193.096 37.44 191.944 37.536C190.792 37.632 189.704 37.808 188.68 38.064L188.68 33.744C187.912 35.344 186.848 36.488 185.488 37.176C184.128 37.864 182.616 38.208 180.952 38.208C179.608 38.208 178.52 38.032 177.688 37.68C176.856 37.328 176.2 36.88 175.72 36.336C175.176 35.728 174.792 34.928 174.568 33.936C174.344 32.944 174.232 31.664 174.232 30.096L174.232 17.952C174.232 16.512 174.016 15.448 173.584 14.76C173.152 14.072 172.344 13.728 171.16 13.728L171.16 12.72C172.184 12.816 173.176 12.864 174.136 12.864C175.48 12.864 176.736 12.808 177.904 12.696C179.072 12.584 180.152 12.416 181.144 12.192L181.144 32.064C181.144 32.864 181.216 33.568 181.36 34.176C181.504 34.784 181.784 35.256 182.2 35.592C182.616 35.928 183.224 36.096 184.024 36.096C185.304 36.096 186.4 35.56 187.312 34.488C188.224 33.416 188.68 32.096 188.68 30.528L188.68 17.952C188.68 16.512 188.464 15.448 188.032 14.76C187.6 14.072 186.792 13.728 185.608 13.728L185.608 12.72C186.632 12.816 187.624 12.864 188.584 12.864C189.928 12.864 191.184 12.808 192.352 12.696C193.52 12.584 194.6 12.416 195.592 12.192L195.592 12.192ZM152.544 12.048C154.048 12.048 155.344 12.248 156.432 12.648C157.52 13.048 158.464 13.792 159.264 14.88L158.544 15.12C158.064 14.384 157.456 13.856 156.72 13.536C155.984 13.216 155.2 13.056 154.368 13.056C152.704 13.056 151.44 14.048 150.576 16.032C149.712 18.016 149.28 21.04 149.28 25.104C149.28 27.824 149.472 29.992 149.856 31.608C150.24 33.224 150.776 34.384 151.464 35.088C152.152 35.792 152.96 36.144 153.888 36.144C154.944 36.144 155.912 35.68 156.792 34.752C157.672 33.824 158.144 32.56 158.208 30.96L158.448 32.64C157.968 34.464 157.168 35.848 156.048 36.792C154.928 37.736 153.536 38.208 151.872 38.208C150.048 38.208 148.392 37.744 146.904 36.816C145.416 35.888 144.232 34.456 143.352 32.52C142.472 30.584 142.032 28.08 142.032 25.008C142.032 22.096 142.48 19.688 143.376 17.784C144.272 15.88 145.512 14.448 147.096 13.488C148.68 12.528 150.496 12.048 152.544 12.048L152.544 12.048ZM164.592 11.952L165.312 12.336C165.184 12.752 165.096 13.192 165.048 13.656C165 14.12 164.976 14.592 164.976 15.072L164.976 41.952C164.976 43.232 165.192 44.096 165.624 44.544C166.056 44.992 166.8 45.216 167.856 45.216L167.856 46.224C167.28 46.192 166.432 46.152 165.312 46.104C164.192 46.056 163.024 46.032 161.808 46.032C160.208 46.032 158.672 46.056 157.2 46.104C155.728 46.152 154.576 46.192 153.744 46.224L153.744 45.216C155.12 45.216 156.184 44.968 156.936 44.472C157.688 43.976 158.064 42.976 158.064 41.472L158.064 13.968C158.896 14.032 159.728 13.984 160.56 13.824C161.392 13.664 162.168 13.416 162.888 13.08C163.608 12.744 164.176 12.368 164.592 11.952L164.592 11.952ZM130.328 0.335999C131.672 0.336001 132.736 0.664001 133.52 1.32C134.304 1.976 134.696 2.88 134.696 4.032C134.696 5.184 134.304 6.088 133.52 6.744C132.736 7.4 131.672 7.728 130.328 7.728C128.984 7.728 127.92 7.4 127.136 6.744C126.352 6.088 125.96 5.184 125.96 4.032C125.96 2.88 126.352 1.976 127.136 1.32C127.92 0.664001 128.984 0.336001 130.328 0.335999L130.328 0.335999ZM134.072 12.192L134.072 33.072C134.072 34.416 134.304 35.328 134.768 35.808C135.232 36.288 136.024 36.528 137.144 36.528L137.144 37.536C136.568 37.504 135.672 37.464 134.456 37.416C133.24 37.368 132.008 37.344 130.76 37.344C129.512 37.344 128.248 37.368 126.968 37.416C125.688 37.464 124.728 37.504 124.088 37.536L124.088 36.528C125.208 36.528 126 36.288 126.464 35.808C126.928 35.328 127.16 34.416 127.16 33.072L127.16 17.952C127.16 16.512 126.944 15.448 126.512 14.76C126.08 14.072 125.272 13.728 124.088 13.728L124.088 12.72C125.112 12.816 126.104 12.864 127.064 12.864C128.408 12.864 129.664 12.808 130.832 12.696C132 12.584 133.08 12.416 134.072 12.192L134.072 12.192ZM117.664 0C118.784 0 119.76 0.144 120.592 0.431999C121.424 0.720001 122.16 1.104 122.8 1.584C123.248 1.936 123.632 2.424 123.952 3.048C124.272 3.672 124.432 4.384 124.432 5.184C124.432 6.048 124.12 6.816 123.496 7.488C122.872 8.16 122.048 8.496 121.024 8.496C119.968 8.496 119.096 8.192 118.408 7.584C117.72 6.976 117.376 6.144 117.376 5.088C117.376 4.256 117.616 3.52 118.096 2.88C118.576 2.24 119.28 1.792 120.208 1.536C120.112 1.344 119.92 1.184 119.632 1.056C119.344 0.927999 118.96 0.863998 118.48 0.863998C117.84 0.864003 117.312 0.976005 116.896 1.2C116.48 1.424 116.144 1.728 115.888 2.112C115.536 2.592 115.296 3.288 115.168 4.2C115.04 5.112 114.976 6.512 114.976 8.4L114.976 12.768L120.112 12.768L120.112 13.728L114.976 13.728L114.976 32.592C114.976 34.16 115.376 35.208 116.176 35.736C116.976 36.264 118.08 36.528 119.488 36.528L119.488 37.536C118.656 37.504 117.488 37.464 115.984 37.416C114.48 37.368 112.896 37.344 111.232 37.344C110.016 37.344 108.824 37.368 107.656 37.416C106.488 37.464 105.6 37.504 104.992 37.536L104.992 36.528C106.112 36.528 106.904 36.288 107.368 35.808C107.832 35.328 108.064 34.416 108.064 33.072L108.064 13.728L104.8 13.728L104.8 12.768L108.064 12.768C108.064 9.92 108.288 7.752 108.736 6.264C109.184 4.776 109.968 3.488 111.088 2.4C111.792 1.728 112.728 1.16 113.896 0.695999C115.064 0.231999 116.32 0 117.664 0L117.664 0ZM98.5681 0C99.6881 0 100.664 0.144 101.496 0.431999C102.328 0.720001 103.064 1.104 103.704 1.584C104.152 1.936 104.536 2.424 104.856 3.048C105.176 3.672 105.336 4.384 105.336 5.184C105.336 6.048 105.024 6.816 104.4 7.488C103.776 8.16 102.952 8.496 101.928 8.496C100.872 8.496 100 8.192 99.3121 7.584C98.6241 6.976 98.2801 6.144 98.2801 5.088C98.2801 4.256 98.5201 3.52 99.0001 2.88C99.4801 2.24 100.184 1.792 101.112 1.536C101.016 1.344 100.824 1.184 100.536 1.056C100.248 0.927999 99.8641 0.863998 99.3841 0.863998C98.7441 0.864003 98.2161 0.976005 97.8001 1.2C97.3841 1.424 97.0481 1.728 96.7921 2.112C96.4401 2.592 96.2001 3.288 96.0721 4.2C95.9441 5.112 95.8801 6.512 95.8801 8.4L95.8801 12.768L101.016 12.768L101.016 13.728L95.8801 13.728L95.8801 32.592C95.8801 34.16 96.2801 35.208 97.0801 35.736C97.8801 36.264 98.9841 36.528 100.392 36.528L100.392 37.536C99.5601 37.504 98.3921 37.464 96.8881 37.416C95.3841 37.368 93.8001 37.344 92.1361 37.344C90.9201 37.344 89.7281 37.368 88.5601 37.416C87.3921 37.464 86.5041 37.504 85.8961 37.536L85.8961 36.528C87.0161 36.528 87.8081 36.288 88.2721 35.808C88.7361 35.328 88.9681 34.416 88.9681 33.072L88.9681 13.728L85.7041 13.728L85.7041 12.768L88.9681 12.768C88.9681 9.92 89.1921 7.752 89.6401 6.264C90.0881 4.776 90.8721 3.488 91.9921 2.4C92.6961 1.728 93.6321 1.16 94.8001 0.695999C95.9681 0.231999 97.2241 0 98.5681 0L98.5681 0ZM65.168 37.872C63.024 37.872 61.472 37.312 60.512 36.192C59.552 35.072 59.072 33.712 59.072 32.112C59.072 30.736 59.384 29.616 60.008 28.752C60.632 27.888 61.44 27.176 62.432 26.616C63.424 26.056 64.472 25.592 65.576 25.224C66.68 24.856 67.736 24.488 68.744 24.12C69.752 23.752 70.568 23.328 71.192 22.848C71.816 22.368 72.128 21.76 72.128 21.024L72.128 17.28C72.128 16.448 71.992 15.704 71.72 15.048C71.448 14.392 71.032 13.888 70.472 13.536C69.912 13.184 69.184 13.008 68.288 13.008C67.648 13.008 67.008 13.096 66.368 13.272C65.728 13.448 65.2 13.744 64.784 14.16C65.68 14.48 66.376 14.968 66.872 15.624C67.368 16.28 67.616 17.024 67.616 17.856C67.616 18.944 67.24 19.808 66.488 20.448C65.736 21.088 64.848 21.408 63.824 21.408C62.672 21.408 61.8 21.048 61.208 20.328C60.616 19.608 60.32 18.736 60.32 17.712C60.32 16.784 60.552 16.016 61.016 15.408C61.48 14.8 62.128 14.224 62.96 13.68C63.856 13.168 64.936 12.768 66.2 12.48C67.464 12.192 68.832 12.048 70.304 12.048C71.776 12.048 73.104 12.2 74.288 12.504C75.472 12.808 76.464 13.36 77.264 14.16C78 14.896 78.48 15.8 78.704 16.872C78.928 17.944 79.04 19.296 79.04 20.928L79.04 33.984C79.04 34.752 79.12 35.296 79.28 35.616C79.44 35.936 79.712 36.096 80.096 36.096C80.416 36.096 80.72 36.016 81.008 35.856C81.296 35.696 81.568 35.504 81.824 35.28L82.304 36.096C81.632 36.672 80.856 37.112 79.976 37.416C79.096 37.72 78.112 37.872 77.024 37.872C75.104 37.872 73.832 37.48 73.208 36.696C72.584 35.912 72.256 35.008 72.224 33.984C71.424 35.296 70.44 36.272 69.272 36.912C68.104 37.552 66.736 37.872 65.168 37.872L65.168 37.872ZM68.8639 34.8C69.4719 34.8 70.0399 34.656 70.5679 34.368C71.0959 34.08 71.6159 33.568 72.1279 32.832L72.1279 22.992C71.7439 23.632 71.2079 24.168 70.5199 24.6C69.8319 25.032 69.1279 25.496 68.4079 25.992C67.6879 26.488 67.0879 27.12 66.6079 27.888C66.1279 28.656 65.8879 29.68 65.8879 30.96C65.8879 32.336 66.1759 33.32 66.7519 33.912C67.3279 34.504 68.0319 34.8 68.8639 34.8L68.8639 34.8ZM50.7281 12.048C51.7521 12.048 52.5841 12.264 53.2241 12.696C53.8641 13.128 54.3361 13.68 54.6401 14.352C54.9441 15.024 55.0961 15.728 55.0961 16.464C55.0961 17.648 54.7521 18.616 54.0641 19.368C53.3761 20.12 52.4721 20.496 51.3521 20.496C50.2321 20.496 49.3601 20.216 48.7361 19.656C48.1121 19.096 47.8001 18.352 47.8001 17.424C47.8001 16.528 48.0001 15.784 48.4001 15.192C48.8001 14.6 49.3041 14.096 49.9121 13.68C49.4641 13.552 49.0161 13.568 48.5681 13.728C47.7361 13.856 46.9921 14.248 46.3361 14.904C45.6801 15.56 45.1601 16.336 44.7761 17.232C44.3921 18.128 44.2001 19.008 44.2001 19.872L44.2001 32.592C44.2001 34.128 44.5761 35.168 45.3281 35.712C46.0801 36.256 47.2081 36.528 48.7121 36.528L48.7121 37.536C47.9761 37.504 46.9041 37.464 45.4961 37.416C44.0881 37.368 42.6161 37.344 41.0801 37.344C39.8001 37.344 38.5041 37.368 37.1921 37.416C35.8801 37.464 34.8881 37.504 34.2161 37.536L34.2161 36.528C35.3361 36.528 36.1281 36.288 36.5921 35.808C37.0561 35.328 37.2881 34.416 37.2881 33.072L37.2881 17.952C37.2881 16.512 37.0721 15.448 36.6401 14.76C36.2081 14.072 35.4001 13.728 34.2161 13.728L34.2161 12.72C35.2401 12.816 36.2321 12.864 37.1921 12.864C38.5361 12.864 39.7921 12.808 40.9601 12.696C42.1281 12.584 43.2081 12.416 44.2001 12.192L44.2001 16.656C44.5841 15.792 45.0961 15.008 45.7361 14.304C46.3761 13.6 47.1121 13.048 47.9441 12.648C48.7761 12.248 49.7041 12.048 50.7281 12.048L50.7281 12.048ZM29.616 3.552C29.488 5.184 29.4 6.752 29.352 8.256C29.304 9.76 29.28 10.912 29.28 11.712C29.28 12.416 29.296 13.088 29.328 13.728C29.36 14.368 29.392 14.912 29.424 15.36L28.32 15.36C27.808 12.672 27.16 10.544 26.376 8.976C25.592 7.408 24.656 6.296 23.568 5.64C22.48 4.984 21.2 4.656 19.728 4.656L18.624 4.656L18.624 32.064C18.624 33.344 18.76 34.304 19.032 34.944C19.304 35.584 19.808 36.008 20.544 36.216C21.28 36.424 22.352 36.544 23.76 36.576L23.76 37.536C22.768 37.504 21.448 37.472 19.8 37.44C18.152 37.408 16.432 37.392 14.64 37.392C12.88 37.392 11.216 37.408 9.648 37.44C8.08 37.472 6.816 37.504 5.856 37.536L5.856 36.576C7.296 36.544 8.384 36.424 9.12 36.216C9.856 36.008 10.352 35.584 10.608 34.944C10.864 34.304 10.992 33.344 10.992 32.064L10.992 4.656L9.936 4.656C8.464 4.656 7.184 4.984 6.096 5.64C5.008 6.296 4.08 7.4 3.312 8.952C2.544 10.504 1.872 12.64 1.296 15.36L0.192 15.36C0.256 14.912 0.296 14.368 0.312 13.728C0.328 13.088 0.336 12.416 0.336 11.712C0.336 10.912 0.312 9.76 0.264 8.256C0.216 6.752 0.128 5.184 0 3.552C1.472 3.584 3.08 3.616 4.824 3.648C6.568 3.68 8.32 3.696 10.08 3.696C11.84 3.696 13.424 3.696 14.832 3.696C16.272 3.696 17.864 3.696 19.608 3.696C21.352 3.696 23.104 3.68 24.864 3.648C26.624 3.616 28.208 3.584 29.616 3.552L29.616 3.552Z" id="Traffique" fill="#CFFF60" stroke="none" />
  </g>
</svg>