<svg id="bus" width="2889px" height="771px" viewBox="0 0 2889 771" version="1.1" xmlns:xlink="http://www.w3.org/1999/xlink" xmlns="http://www.w3.org/2000/svg">
    <g transform="translate(47.499268 62.33789)">
      <path d="M443.389 617.886C437.089 617.904 430.788 617.918 424.488 617.936C408.83 617.976 393.169 618.017 377.511 618.06C357.353 618.112 337.192 618.167 317.035 618.219C297.235 618.271 277.436 618.323 257.636 618.375C243.105 618.413 228.574 618.45 214.043 618.488C207.298 618.505 200.561 618.537 193.816 618.398C180.504 618.124 167.193 617.433 153.997 615.58C140.556 613.693 127.276 610.54 114.511 605.908C102.344 601.492 90.6162 595.772 79.8972 588.492C70.0335 581.796 61.1323 573.75 53.6818 564.43C45.7256 554.477 39.4918 543.267 34.4054 531.611C29.1167 519.485 24.9811 506.864 21.4466 494.125C17.7734 480.885 14.6984 467.502 12.0251 454.026C9.42122 440.899 7.36064 427.646 5.68154 414.372C3.93018 400.526 2.69905 386.633 1.72799 372.715C0.791628 359.302 0.306107 345.844 0.103807 332.402C-0.0956048 319.131 -0.0146847 305.843 0.407269 292.575C0.852329 278.671 1.64131 264.782 2.8291 250.921C3.97933 237.52 5.45322 224.136 7.46467 210.834C9.56282 196.959 12.0916 183.188 15.0828 169.478C17.9208 156.47 21.3223 143.537 25.3625 130.847C29.3161 118.428 33.9979 106.175 40.0959 94.6376C45.8499 83.7509 52.9304 73.555 61.5947 64.7781C69.9729 56.2931 79.6775 49.1807 90.0613 43.3487C101.861 36.7218 114.528 31.7048 127.545 28.0461C140.457 24.4163 153.743 22.2168 167.098 21.0579C178.236 20.0897 189.452 19.6447 200.633 19.6071C209.032 19.5812 217.433 19.6505 225.831 19.6736C242.692 19.717 259.549 19.7632 276.41 19.8066C296.868 19.8615 317.329 19.9135 337.788 19.9685C356.986 20.0177 376.188 20.0696 395.386 20.1188C408.466 20.1536 421.543 20.1881 434.624 20.2229C436.921 20.2287 440.589 20.957 442.802 20.2432C444.12 19.8184 444.233 18.2288 444.837 16.83C445.765 14.6856 446.681 12.4863 447.866 10.4662C451.172 4.81622 457.952 2.74978 464.134 2.4926C468.919 2.29319 473.734 2.40009 478.523 2.36542C491.173 2.27008 503.819 2.17183 516.469 2.07641C534.474 1.93767 552.479 1.80185 570.483 1.66312C590.968 1.5071 611.449 1.35099 631.934 1.19206C652.016 1.03886 672.102 0.885756 692.185 0.732559C708.99 0.605379 725.796 0.475378 742.601 0.348199C753.219 0.267235 763.84 0.186359 774.458 0.105395C778.374 0.0764662 782.512 -0.278965 786.376 0.504218C792.396 1.7238 796.509 5.28719 800.766 9.45747C804.173 12.7954 807.58 16.1363 810.988 19.4743C811.678 20.1506 812.751 21.691 813.672 22.0434C814.141 22.2226 815.016 22.0521 815.508 22.0551C819.152 22.0754 822.796 22.0955 826.438 22.1158C833.07 22.1533 839.703 22.1909 846.333 22.2285C855.667 22.2805 865.002 22.3325 874.337 22.3874C886.088 22.4539 897.838 22.5204 909.589 22.5867C923.404 22.6647 937.215 22.7428 951.029 22.8208C966.748 22.9104 982.467 22.997 998.186 23.0866C1015.46 23.1849 1032.74 23.2831 1050.02 23.3785C1068.58 23.4826 1087.13 23.5895 1105.69 23.6936C1125.23 23.8035 1144.77 23.9132 1164.31 24.0259C1184.56 24.1414 1204.8 24.2542 1225.05 24.3699C1245.61 24.4854 1266.18 24.6011 1286.75 24.7195C1307.54 24.838 1328.33 24.9536 1349.12 25.0721C1369.76 25.1876 1390.4 25.3062 1411.04 25.4217C1431.24 25.5344 1451.44 25.65 1471.64 25.7627C1491.12 25.8726 1510.59 25.9823 1530.07 26.0922C1548.53 26.1962 1567 26.3003 1585.46 26.4042C1602.62 26.5025 1619.79 26.5979 1636.96 26.6961C1652.54 26.7829 1668.13 26.8724 1683.71 26.9591C1697.36 27.0371 1711.02 27.1123 1724.68 27.1904C1736.25 27.2569 1747.82 27.3204 1759.39 27.3869C1768.53 27.4389 1777.66 27.491 1786.79 27.543C1793.2 27.5806 1799.6 27.6153 1806.01 27.6529C1809.41 27.6732 1812.8 27.6905 1816.2 27.7108C1816.57 27.7136 1817.29 27.861 1817.64 27.7194C1818.07 27.546 1818.57 26.8177 1818.89 26.4998C1820.36 25.0548 1821.84 23.6098 1823.31 22.1676C1826.44 19.107 1829.55 16.0437 1832.68 12.986C1836.41 9.33884 1840.83 6.76669 1846.05 5.99506C1850.04 5.40264 1854.31 5.787 1858.32 5.81875C1869.56 5.90545 1880.8 5.99215 1892.04 6.07593C1909.21 6.20602 1926.38 6.33893 1943.55 6.46893C1963.76 6.62213 1983.98 6.77815 2004.2 6.93426C2024.6 7.09028 2044.99 7.24639 2065.38 7.4024C2083.07 7.53823 2100.76 7.67405 2118.45 7.80705C2130.55 7.89957 2142.66 7.992 2154.76 8.08451C2159.31 8.11918 2163.97 7.89375 2168.52 8.28684C2175.17 8.85905 2181.12 11.5988 2184.21 17.7834C2185.5 20.3497 2186.62 23.0028 2187.71 25.65C2188.22 26.8695 2188.84 29.9474 2189.96 30.4821C2191.14 31.0485 2193.96 30.5168 2195.24 30.5283C2204.67 30.6092 2214.09 30.6902 2223.51 30.774C2238.93 30.907 2254.35 31.0398 2269.77 31.1728C2288.94 31.3376 2308.11 31.5051 2327.28 31.6699C2347.95 31.8491 2368.63 32.0283 2389.3 32.2045C2409.16 32.3751 2429.01 32.5485 2448.86 32.7189C2465.83 32.8664 2482.8 33.0136 2499.78 33.1581C2511.54 33.2592 2523.3 33.3604 2535.06 33.4615C2539.38 33.4991 2543.69 33.5135 2548.01 33.5742C2562.18 33.7707 2576.34 34.054 2590.5 34.4759C2603.87 34.8748 2617.25 35.4353 2630.59 36.4498C2643.88 37.4584 2657.18 38.863 2670.27 41.4494C2682.25 43.8163 2694.3 47.1023 2705.26 52.5876C2714.8 57.3618 2723.22 64.0522 2729.59 72.6443C2736.73 82.2651 2741.15 93.6345 2744.05 105.183C2747.25 117.87 2748.75 130.95 2749.53 143.99C2750.09 153.385 2750.17 162.787 2750.17 172.194C2750.17 187.129 2750.17 202.065 2750.17 217C2750.17 237.231 2750.17 257.458 2750.17 277.688C2750.17 290.783 2750.17 303.877 2750.17 316.969C2750.17 323.064 2750.17 329.162 2750.17 335.257C2750.17 353.372 2750.17 371.486 2750.17 389.601C2750.17 408.808 2750.17 428.018 2750.17 447.225C2750.17 456.381 2750.23 465.539 2750.15 474.695C2750.05 487.619 2749.43 500.572 2747.72 513.392C2746.1 525.614 2743.5 537.868 2738.7 549.272C2734.26 559.84 2727.77 569.479 2718.88 576.808C2710.02 584.111 2699.38 588.787 2688.49 592.154C2676.23 595.94 2663.58 598.148 2650.87 599.743C2637.29 601.448 2623.6 602.28 2609.93 602.948C2597.4 603.561 2584.85 603.887 2572.3 604.124C2563.17 604.295 2554.04 604.529 2544.91 604.61C2536.7 604.682 2528.49 604.751 2520.29 604.823C2505.71 604.951 2491.14 605.075 2476.56 605.202C2457.86 605.364 2439.16 605.526 2420.46 605.688C2399.98 605.864 2379.49 606.043 2359.01 606.219C2338.78 606.393 2318.56 606.569 2298.34 606.743C2280.71 606.896 2263.09 607.046 2245.46 607.199C2232.67 607.309 2219.89 607.419 2207.11 607.532C2203.23 607.566 2199.36 607.598 2195.48 607.633C2194.15 607.644 2191.23 607.092 2190.01 607.679C2188.92 608.202 2188.44 610.745 2187.96 611.919C2186.83 614.65 2185.69 617.383 2184.39 620.034C2182.71 623.438 2180.42 626.051 2176.95 627.712C2172.89 629.66 2168.47 629.972 2164.04 630.007C2155.94 630.068 2147.84 630.131 2139.74 630.192C2124.56 630.308 2109.39 630.423 2094.21 630.539C2074.85 630.686 2055.48 630.834 2036.12 630.984C2015.45 631.143 1994.79 631.299 1974.12 631.458C1955.02 631.605 1935.92 631.75 1916.83 631.897C1902.18 632.01 1887.54 632.123 1872.89 632.232C1865.57 632.287 1858.26 632.339 1850.94 632.4C1846.72 632.435 1842.69 631.822 1838.89 629.86C1836.66 628.701 1834.73 627.172 1832.93 625.423C1829.9 622.487 1826.91 619.525 1823.9 616.577C1822.35 615.06 1820.8 613.543 1819.25 612.025C1818.85 611.635 1818.17 610.658 1817.63 610.442C1816.35 609.927 1813.77 610.465 1812.42 610.471C1807.52 610.5 1802.63 610.526 1797.73 610.555C1789.96 610.598 1782.2 610.641 1774.43 610.687C1764.08 610.745 1753.72 610.803 1743.37 610.864C1730.72 610.936 1718.06 611.005 1705.41 611.078C1690.74 611.161 1676.07 611.242 1661.41 611.326C1645.09 611.418 1628.77 611.511 1612.45 611.603C1594.62 611.705 1576.79 611.806 1558.95 611.907C1539.96 612.014 1520.97 612.121 1501.98 612.228C1482.12 612.34 1462.25 612.453 1442.39 612.563C1421.94 612.679 1401.49 612.794 1381.04 612.91C1360.29 613.028 1339.54 613.144 1318.79 613.262C1298.03 613.381 1277.26 613.497 1256.5 613.615C1236.1 613.731 1215.7 613.846 1195.3 613.962C1175.36 614.075 1155.42 614.187 1135.48 614.3C1116.39 614.407 1097.29 614.517 1078.19 614.624C1060.22 614.725 1042.25 614.826 1024.28 614.927C1007.72 615.02 991.167 615.115 974.61 615.207C959.752 615.291 944.895 615.375 930.037 615.459C917.165 615.531 904.293 615.603 891.421 615.678C880.82 615.739 870.22 615.797 859.619 615.858C851.605 615.904 843.594 615.947 835.58 615.993C830.364 616.022 825.15 616.051 819.933 616.083C818.243 616.092 815.286 615.517 813.671 616.118C812.87 616.415 812.026 617.65 811.419 618.245C808.029 621.565 804.639 624.889 801.249 628.21C798.871 630.539 796.608 632.995 793.75 634.747C789.84 637.143 785.476 638.125 780.927 638.105C774.52 638.076 768.11 638.007 761.702 637.958C747.749 637.851 733.799 637.744 719.846 637.637C701.087 637.492 682.328 637.351 663.569 637.206C642.931 637.047 622.294 636.891 601.656 636.732C582.018 636.582 562.381 636.432 542.74 636.281C526.981 636.16 511.219 636.041 495.46 635.92C486.454 635.851 477.449 635.781 468.447 635.715C464.146 635.683 459.878 635.62 455.791 634.065C448.475 631.247 446.253 624.614 443.389 617.886L443.389 617.886Z" id="Shape" fill="currentColor" fill-rule="evenodd" stroke="#000000" stroke-width="5" stroke-linecap="round" stroke-linejoin="round" />
      <path d="M371.298 0.17604C367.509 0.17604 363.72 0.17604 359.932 0.17604C349.767 0.17604 339.6 0.17604 329.436 0.17604C314.495 0.17604 299.55 0.17604 284.609 0.17604C266.633 0.17604 248.657 0.17604 230.681 0.17604C211.379 0.17604 192.077 0.17604 172.771 0.17604C153.94 0.17604 135.106 0.17604 116.274 0.17604C99.4255 0.17604 82.5738 0.17604 65.7249 0.17604C52.662 0.17604 39.5963 0.17604 26.5335 0.17604C18.9848 0.17604 11.4361 0.17604 3.88734 0.17604C3.33541 0.17604 0.705394 -0.219962 0.254535 0.17604C-0.291753 0.655829 0.211142 4.51972 0.211142 5.27697C0.211142 9.79404 0.211142 14.3083 0.211142 18.8254C0.211142 20.6489 0.211142 22.4696 0.211142 24.2934C0.211142 24.5767 -0.00564456 26.1892 0.211142 26.3974C0.326679 26.5073 0.852682 26.354 1.00597 26.3974C2.66476 26.8655 5.14167 26.3974 6.8495 26.3974C15.6727 26.3974 24.496 26.3974 33.3192 26.3974C47.2115 26.3974 61.1008 26.3974 74.9931 26.3974C92.3911 26.3974 109.786 26.3974 127.184 26.3974C146.322 26.3974 165.459 26.3974 184.597 26.3974C203.677 26.3974 222.757 26.3974 241.837 26.3974C259.348 26.3974 276.858 26.3974 294.369 26.3974C308.507 26.3974 322.647 26.3974 336.786 26.3974C345.817 26.3974 354.845 26.3974 363.877 26.3974C365.923 26.3974 368.171 26.6604 370.206 26.3974C370.396 26.3715 371.122 26.5304 371.266 26.3974C371.83 25.8858 371.295 21.8225 371.295 21.0654C371.298 14.1002 371.298 7.13809 371.298 0.17604L371.298 0.17604Z" transform="translate(1809.2595 567.2539)" id="Shape" fill="none" fill-rule="evenodd" stroke="#000000" stroke-width="5" stroke-linecap="round" stroke-linejoin="round" />
      <path d="M371.295 0.17604C367.506 0.17604 363.717 0.17604 359.929 0.17604C349.764 0.17604 339.597 0.17604 329.433 0.17604C314.492 0.17604 299.547 0.17604 284.606 0.17604C266.63 0.17604 248.654 0.17604 230.678 0.17604C211.376 0.17604 192.074 0.17604 172.771 0.17604C153.94 0.17604 135.106 0.17604 116.274 0.17604C99.4254 0.17604 82.5738 0.17604 65.7249 0.17604C52.662 0.17604 39.5963 0.17604 26.5335 0.17604C18.9848 0.17604 11.4361 0.17604 3.88734 0.17604C3.33541 0.17604 0.705394 -0.219962 0.254535 0.17604C-0.291753 0.655829 0.211142 4.51972 0.211142 5.27697C0.211142 9.79404 0.211142 14.3083 0.211142 18.8254C0.211142 20.6489 0.211142 22.4696 0.211142 24.2934C0.211142 24.5767 -0.00564456 26.1892 0.211142 26.3974C0.326679 26.5073 0.852682 26.354 1.00597 26.3974C2.66476 26.8655 5.14167 26.3974 6.8495 26.3974C15.6727 26.3974 24.496 26.3974 33.3191 26.3974C47.2115 26.3974 61.1008 26.3974 74.9931 26.3974C92.3911 26.3974 109.786 26.3974 127.184 26.3974C146.322 26.3974 165.459 26.3974 184.597 26.3974C203.677 26.3974 222.757 26.3974 241.837 26.3974C259.347 26.3974 276.858 26.3974 294.369 26.3974C308.507 26.3974 322.647 26.3974 336.785 26.3974C345.817 26.3974 354.845 26.3974 363.876 26.3974C365.923 26.3974 368.171 26.6604 370.206 26.3974C370.396 26.3715 371.122 26.5304 371.266 26.3974C371.83 25.8858 371.295 21.8225 371.295 21.0654C371.295 14.1002 371.295 7.13809 371.295 0.17604L371.295 0.17604Z" transform="translate(1403.2153 567.2539)" id="Shape" fill="none" fill-rule="evenodd" stroke="#000000" stroke-width="5" stroke-linecap="round" stroke-linejoin="round" />
      <path d="M381.411 0.187505C377.535 0.187505 373.657 0.187505 369.781 0.187505C359.314 0.187505 348.846 0.187505 338.378 0.187505C323.145 0.187505 307.912 0.187505 292.678 0.187505C274.266 0.187505 255.854 0.187505 237.444 0.187505C217.659 0.187505 197.877 0.187505 178.092 0.187505C158.68 0.187505 139.265 0.187505 119.852 0.187505C102.553 0.187505 85.2502 0.187505 67.9505 0.187505C54.5582 0.187505 41.1658 0.187505 27.7735 0.187505C19.8952 0.187505 12.0171 0.187505 4.13888 0.187505C3.54064 0.187505 0.722857 -0.234426 0.246068 0.187505C-0.25965 0.635543 0.170925 3.88963 0.170925 4.60932C0.170925 9.2652 0.170925 13.9209 0.170925 18.5768C0.170925 20.4871 0.170925 22.3945 0.170925 24.3048C0.170925 24.5909 -0.0458621 26.2007 0.170925 26.4088C0.289372 26.5215 0.818286 26.3654 0.974393 26.4088C2.67085 26.8914 5.22846 26.4088 6.97986 26.4088C15.9562 26.4088 24.9356 26.4088 33.9119 26.4088C48.1944 26.4088 62.4798 26.4088 76.7622 26.4088C94.582 26.4088 112.399 26.4088 130.219 26.4088C149.831 26.4088 169.442 26.4088 189.054 26.4088C208.718 26.4088 228.378 26.4088 248.042 26.4088C265.931 26.4088 283.823 26.4088 301.712 26.4088C316.269 26.4088 330.826 26.4088 345.384 26.4088C354.77 26.4088 364.16 26.4088 373.547 26.4088C375.732 26.4088 377.983 26.5677 380.162 26.4088C380.35 26.3943 381.202 26.5418 381.347 26.4088C381.887 25.9089 381.405 22.2558 381.405 21.5391C381.411 14.4208 381.411 7.30265 381.411 0.187505L381.411 0.187505Z" transform="translate(987.0554 567.2417)" id="Shape" fill="none" fill-rule="evenodd" stroke="#000000" stroke-width="5" stroke-linecap="round" stroke-linejoin="round" />
      <path d="M23.909 27.9295C27.9724 27.915 32.0329 27.9006 36.0963 27.8861C47.009 27.8457 57.9217 27.8051 68.8315 27.7676C84.8017 27.7097 100.775 27.652 116.745 27.5942C136.079 27.5249 155.411 27.4525 174.745 27.3832C195.463 27.3081 216.185 27.2329 236.903 27.1578C257.391 27.0826 277.881 27.0075 298.368 26.9324C316.639 26.8659 334.91 26.7994 353.18 26.733C367.593 26.681 382.008 26.629 396.421 26.5741C405.047 26.5424 413.671 26.5106 422.298 26.4787C423.231 26.4759 426.341 27.0105 427.142 26.4614C427.639 26.1204 427.387 25.1233 427.387 24.3574C427.387 19.8373 427.387 15.3202 427.387 10.8004C427.387 8.47391 427.387 6.14447 427.387 3.8152C427.387 3.2227 427.777 0.798001 427.387 0.344319C427.231 0.162281 427.052 0.347141 426.772 0.240247C425.376 -0.300221 422.676 0.240247 421.2 0.240247C412.44 0.240247 403.68 0.240247 394.921 0.240247C380.679 0.240247 366.437 0.240247 352.192 0.240247C334.199 0.240247 316.208 0.240247 298.215 0.240247C277.918 0.240247 257.625 0.240247 237.328 0.240247C216.517 0.240247 195.709 0.240247 174.898 0.240247C155.081 0.240247 135.264 0.240247 115.45 0.240247C98.1537 0.240247 80.8569 0.240247 63.5573 0.240247C50.5406 0.240247 37.524 0.240247 24.5074 0.240247C17.2621 0.240247 10.0197 0.240247 2.7773 0.240247C1.85248 0.240247 0.924827 0.240247 0 0.240247C9.76827 4.34403 20.259 10.9159 23.1375 21.8286C23.6634 23.8171 23.909 25.8747 23.909 27.9295L23.909 27.9295Z" transform="translate(524.88184 567.1897)" id="Shape" fill="none" fill-rule="evenodd" stroke="#000000" stroke-width="5" stroke-linecap="round" stroke-linejoin="round" />
      <path d="M26.3419 27.6666C46.5835 27.5799 66.9611 27.1234 87.012 24.1148C96.1039 22.7508 105.352 20.93 113.852 17.3203C118.302 15.4303 122.854 12.9333 125.955 9.11262C128.024 6.56075 129.241 3.46259 129.241 0.159283C104.265 0.159283 79.2868 0.159283 54.3113 0.159283C39.526 0.159283 24.7407 0.159283 9.95538 0.159283C7.82253 0.159283 5.68972 0.159283 3.55687 0.159283C2.89218 0.159283 0.984756 -0.199147 0.400984 0.159283C-0.220358 0.537821 0.0657503 1.59847 0.0657503 2.52612C0.0657503 6.32367 0.0657503 10.1182 0.0657503 13.9156C0.0657503 18.0194 0.0657503 22.1233 0.0657503 26.2271C0.0657503 28.5477 1.42984 27.6721 3.64939 27.6721C11.2126 27.6666 18.7758 27.6666 26.3419 27.6666L26.3419 27.6666Z" transform="translate(340.32837 567.2727)" id="Shape" fill="none" fill-rule="evenodd" stroke="#000000" stroke-width="5" stroke-linecap="round" stroke-linejoin="round" />
      <path d="M403.656 27.7166C399.486 27.7021 395.316 27.6876 391.145 27.6703C379.894 27.6299 368.647 27.5894 357.396 27.546C340.876 27.4853 324.354 27.4246 307.835 27.3668C288.09 27.2944 268.349 27.2223 248.604 27.15C227.466 27.072 206.326 26.9969 185.188 26.9187C164.545 26.8436 143.905 26.7684 123.261 26.6933C105.008 26.6268 86.7516 26.5603 68.4984 26.494C54.5251 26.4419 40.552 26.3929 26.5758 26.3409C18.7728 26.3119 10.9727 26.283 3.1696 26.2571C2.59738 26.2543 0.513655 26.5345 0.178509 26.1415C-0.223137 25.6704 0.178509 23.0637 0.178509 22.4625C0.178509 20.2026 0.178509 17.9455 0.178509 15.6855C0.178509 11.0616 0.178509 6.43744 0.178509 1.81049C0.178509 -0.348375 0.135117 0.0245186 2.0772 0.0245186C4.57421 0.0245186 7.07123 0.0245186 9.56524 0.0245186C19.4259 0.0245186 29.2866 0.0245186 39.1445 0.0245186C54.1986 0.0245186 69.2556 0.0245186 84.3097 0.0245186C102.982 0.0245186 121.654 0.0245186 140.33 0.0245186C161.042 0.0245186 181.758 0.0245186 202.471 0.0245186C223.649 0.0245186 244.827 0.0245186 266.005 0.0245186C286.07 0.0245186 306.133 0.0245186 326.198 0.0245186C343.642 0.0245186 361.087 0.0245186 378.531 0.0245186C391.614 0.0245186 404.7 0.0245186 417.783 0.0245186C425.016 0.0245186 432.247 0.0245186 439.481 0.0245186C440.412 0.0245186 441.342 0.0245186 442.273 0.0245186C430.851 4.90001 420.129 11.3129 411.058 19.8558C408.433 22.3295 405.986 24.9652 403.656 27.7166L403.656 27.7166Z" transform="translate(2215.3376 567.40283)" id="Shape" fill="none" fill-rule="evenodd" stroke="#000000" stroke-width="5" stroke-linecap="round" stroke-linejoin="round" />
      <path d="M27.3367 27.7143C48.5003 27.7143 69.6639 27.7143 90.8275 27.7143C116.023 27.7143 141.218 27.7143 166.413 27.7143C166.664 27.7143 167.927 27.8993 168.121 27.7143C168.595 27.2663 168.15 23.8157 168.15 23.1972C168.15 16.1108 168.15 9.02161 168.15 1.93538C168.15 -0.38242 167.78 0.204263 165.578 0.204263C162.104 0.204263 158.63 0.204263 155.156 0.204263C126.389 0.204263 97.6219 0.204263 68.8547 0.204263C54.1965 0.204263 39.5384 0.204263 24.8802 0.204263C19.84 0.204263 14.8027 0.204263 9.76249 0.204263C7.02563 0.204263 3.83217 -0.25524 1.1271 0.204263C0.77454 0.264942 0.361252 0.204263 0 0.204263C0.0173306 11.8192 4.43328 22.7781 16.3546 26.3041C19.9093 27.3531 23.6433 27.7085 27.3367 27.7143L27.3367 27.7143Z" transform="translate(107.508545 567.2256)" id="Shape" fill="none" fill-rule="evenodd" stroke="#000000" stroke-width="5" stroke-linecap="round" stroke-linejoin="round" />
      <path d="M27.3367 0.0821991C48.5003 0.0821991 69.6639 0.0821991 90.8275 0.0821991C116.023 0.0821991 141.218 0.0821991 166.413 0.0821991C166.664 0.0821991 167.927 -0.102837 168.121 0.0821991C168.595 0.530237 168.15 3.98084 168.15 4.59927C168.15 11.6885 168.15 18.7749 168.15 25.8612C168.15 28.179 167.78 27.5923 165.578 27.5923C162.104 27.5923 158.63 27.5923 155.156 27.5923C126.389 27.5923 97.6219 27.5923 68.8547 27.5923C54.1965 27.5923 39.5384 27.5923 24.8802 27.5923C19.84 27.5923 14.8027 27.5923 9.76249 27.5923C7.02563 27.5923 3.83217 28.0518 1.1271 27.5923C0.77454 27.5316 0.361252 27.5923 0 27.5923C0.0173306 15.9773 4.43328 5.01838 16.3546 1.49246C19.9093 0.443452 23.6433 0.0880201 27.3367 0.0821991L27.3367 0.0821991Z" transform="translate(107.508545 43.104492)" id="Shape" fill="none" fill-rule="evenodd" stroke="#000000" stroke-width="5" stroke-linecap="round" stroke-linejoin="round" />
      <path d="M403.656 0C399.486 0.0144642 395.316 0.0317507 391.145 0.046215C379.894 0.086609 368.647 0.127179 357.396 0.170572C340.876 0.231251 324.354 0.29193 307.835 0.349787C288.09 0.422108 268.349 0.494253 248.604 0.566574C227.466 0.64454 206.326 0.719683 185.188 0.797826C164.545 0.872969 143.905 0.948112 123.261 1.02326C105.008 1.08976 86.7516 1.15626 68.4984 1.22258C54.5251 1.27462 40.552 1.32365 26.5758 1.37569C18.7728 1.40462 10.9727 1.43355 3.1696 1.46247C2.59738 1.4653 0.513655 1.18501 0.178509 1.57801C-0.223137 2.04916 0.178509 4.65589 0.178509 5.25704C0.178509 7.51699 0.178509 9.77411 0.178509 12.0341C0.178509 16.658 0.178509 21.2822 0.178509 25.9091C0.178509 28.068 0.135117 27.6951 2.0772 27.6951C4.57421 27.6951 7.07123 27.6951 9.56524 27.6951C19.4259 27.6951 29.2866 27.6951 39.1445 27.6951C54.1986 27.6951 69.2556 27.6951 84.3097 27.6951C102.982 27.6951 121.654 27.6951 140.33 27.6951C161.042 27.6951 181.758 27.6951 202.471 27.6951C223.649 27.6951 244.827 27.6951 266.005 27.6951C286.07 27.6951 306.133 27.6951 326.198 27.6951C343.642 27.6951 361.087 27.6951 378.531 27.6951C391.614 27.6951 404.7 27.6951 417.783 27.6951C425.016 27.6951 432.247 27.6951 439.481 27.6951C440.412 27.6951 441.342 27.6951 442.273 27.6951C430.851 22.8196 420.129 16.4067 411.058 7.86378C408.433 5.38704 405.986 2.75138 403.656 0L403.656 0Z" transform="translate(2215.3376 43.007324)" id="Shape" fill="none" fill-rule="evenodd" stroke="#000000" stroke-width="5" stroke-linecap="round" stroke-linejoin="round" />
      <path d="M26.3419 0.166515C46.5835 0.2533 66.9611 0.709805 87.012 3.71836C96.1039 5.08241 105.352 6.90314 113.852 10.5128C118.302 12.4029 122.854 14.8999 125.955 18.7206C128.024 21.2725 129.241 24.3706 129.241 27.6739C104.265 27.6739 79.2868 27.6739 54.3113 27.6739C39.526 27.6739 24.7407 27.6739 9.95538 27.6739C7.82253 27.6739 5.68972 27.6739 3.55687 27.6739C2.89218 27.6739 0.984756 28.0324 0.400984 27.6739C-0.220358 27.2954 0.0657503 26.2347 0.0657503 25.3071C0.0657503 21.5095 0.0657503 17.715 0.0657503 13.9176C0.0657503 9.8138 0.0657503 5.70984 0.0657503 1.60606C0.0657503 -0.711746 1.42984 0.161047 3.64939 0.161047C11.2126 0.166515 18.7758 0.166515 26.3419 0.166515L26.3419 0.166515Z" transform="translate(340.32837 43.02002)" id="Shape" fill="none" fill-rule="evenodd" stroke="#000000" stroke-width="5" stroke-linecap="round" stroke-linejoin="round" />
      <path d="M23.909 0C27.9724 0.0144642 32.0329 0.0289284 36.0963 0.0433926C47.009 0.0837866 57.9217 0.124357 68.8315 0.161929C84.8017 0.219785 100.775 0.277466 116.745 0.335323C136.079 0.404645 155.411 0.476966 174.745 0.546288C195.463 0.621432 216.185 0.696575 236.903 0.771718C257.391 0.846862 277.881 0.922005 298.368 0.997148C316.639 1.06365 334.91 1.13015 353.18 1.19647C367.593 1.24851 382.008 1.30054 396.421 1.3554C405.047 1.38715 413.671 1.4189 422.298 1.45083C423.231 1.45365 426.341 0.919006 427.142 1.46812C427.639 1.80908 427.387 2.80623 427.387 3.57213C427.387 8.09219 427.387 12.6093 427.387 17.1291C427.387 19.4586 427.387 21.785 427.387 24.1143C427.387 24.7068 427.777 27.1315 427.387 27.5852C427.231 27.7672 427.052 27.5824 426.772 27.6893C425.376 28.2297 422.676 27.6893 421.2 27.6893C412.44 27.6893 403.68 27.6893 394.921 27.6893C380.679 27.6893 366.437 27.6893 352.192 27.6893C334.199 27.6893 316.208 27.6893 298.215 27.6893C277.918 27.6893 257.625 27.6893 237.328 27.6893C216.517 27.6893 195.709 27.6893 174.898 27.6893C155.081 27.6893 135.264 27.6893 115.45 27.6893C98.1537 27.6893 80.8569 27.6893 63.5573 27.6893C50.5406 27.6893 37.524 27.6893 24.5074 27.6893C17.2621 27.6893 10.0197 27.6893 2.7773 27.6893C1.85248 27.6893 0.924827 27.6893 0 27.6893C9.76827 23.5855 20.259 17.0136 23.1375 6.1009C23.6634 4.1126 23.909 2.0548 23.909 0L23.909 0Z" transform="translate(524.88184 43.007324)" id="Shape" fill="none" fill-rule="evenodd" stroke="#000000" stroke-width="5" stroke-linecap="round" stroke-linejoin="round" />
      <path d="M381.411 26.4358C377.535 26.4358 373.657 26.4358 369.781 26.4358C359.314 26.4358 348.846 26.4358 338.378 26.4358C323.145 26.4358 307.912 26.4358 292.678 26.4358C274.266 26.4358 255.854 26.4358 237.444 26.4358C217.659 26.4358 197.877 26.4358 178.092 26.4358C158.68 26.4358 139.265 26.4358 119.852 26.4358C102.553 26.4358 85.2502 26.4358 67.9505 26.4358C54.5582 26.4358 41.1658 26.4358 27.7735 26.4358C19.8952 26.4358 12.0171 26.4358 4.13888 26.4358C3.54064 26.4358 0.722857 26.8578 0.246068 26.4358C-0.25965 25.9878 0.170925 22.7337 0.170925 22.014C0.170925 17.3581 0.170925 12.7024 0.170925 8.04651C0.170925 6.13618 0.170925 4.22884 0.170925 2.31851C0.170925 2.0324 -0.0458621 0.422637 0.170925 0.214494C0.289372 0.101779 0.818286 0.257886 0.974393 0.214494C2.67085 -0.268117 5.22846 0.214494 6.97986 0.214494C15.9562 0.214494 24.9356 0.214494 33.9119 0.214494C48.1944 0.214494 62.4798 0.214494 76.7622 0.214494C94.582 0.214494 112.399 0.214494 130.219 0.214494C149.831 0.214494 169.442 0.214494 189.054 0.214494C208.718 0.214494 228.378 0.214494 248.042 0.214494C265.931 0.214494 283.823 0.214494 301.712 0.214494C316.269 0.214494 330.826 0.214494 345.384 0.214494C354.77 0.214494 364.16 0.214494 373.547 0.214494C375.732 0.214494 377.983 0.0555637 380.162 0.214494C380.35 0.228958 381.202 0.0814935 381.347 0.214494C381.887 0.714391 381.405 4.36749 381.405 5.08417C381.411 12.1995 381.411 19.3177 381.411 26.4358L381.411 26.4358Z" transform="translate(987.0554 44.26367)" id="Shape" fill="none" fill-rule="evenodd" stroke="#000000" stroke-width="5" stroke-linecap="round" stroke-linejoin="round" />
      <path d="M371.295 26.4295C367.506 26.4295 363.717 26.4295 359.929 26.4295C349.764 26.4295 339.597 26.4295 329.433 26.4295C314.492 26.4295 299.547 26.4295 284.606 26.4295C266.63 26.4295 248.654 26.4295 230.678 26.4295C211.376 26.4295 192.074 26.4295 172.771 26.4295C153.94 26.4295 135.106 26.4295 116.274 26.4295C99.4254 26.4295 82.5738 26.4295 65.7249 26.4295C52.662 26.4295 39.5963 26.4295 26.5335 26.4295C18.9848 26.4295 11.4361 26.4295 3.88734 26.4295C3.33541 26.4295 0.705394 26.8255 0.254535 26.4295C-0.291753 25.9497 0.211142 22.0858 0.211142 21.3286C0.211142 16.8115 0.211142 12.2972 0.211142 7.78016C0.211142 5.95661 0.211142 4.13589 0.211142 2.31216C0.211142 2.02605 -0.00564456 0.416287 0.211142 0.208144C0.326679 0.0982509 0.852682 0.251536 1.00597 0.208144C2.66476 -0.260003 5.14167 0.208144 6.8495 0.208144C15.6727 0.208144 24.496 0.208144 33.3191 0.208144C47.2115 0.208144 61.1008 0.208144 74.9931 0.208144C92.3911 0.208144 109.786 0.208144 127.184 0.208144C146.322 0.208144 165.459 0.208144 184.597 0.208144C203.677 0.208144 222.757 0.208144 241.837 0.208144C259.347 0.208144 276.858 0.208144 294.369 0.208144C308.507 0.208144 322.647 0.208144 336.785 0.208144C345.817 0.208144 354.845 0.208144 363.876 0.208144C365.923 0.208144 368.171 -0.0548582 370.206 0.208144C370.396 0.234073 371.122 0.0751434 371.266 0.208144C371.83 0.719683 371.295 4.78307 371.295 5.54015C371.295 12.5024 371.295 19.4644 371.295 26.4295L371.295 26.4295Z" transform="translate(1403.2153 44.27002)" id="Shape" fill="none" fill-rule="evenodd" stroke="#000000" stroke-width="5" stroke-linecap="round" stroke-linejoin="round" />
      <path d="M371.298 26.4295C367.509 26.4295 363.72 26.4295 359.932 26.4295C349.767 26.4295 339.6 26.4295 329.436 26.4295C314.495 26.4295 299.55 26.4295 284.609 26.4295C266.633 26.4295 248.657 26.4295 230.681 26.4295C211.379 26.4295 192.077 26.4295 172.771 26.4295C153.94 26.4295 135.106 26.4295 116.274 26.4295C99.4255 26.4295 82.5738 26.4295 65.7249 26.4295C52.662 26.4295 39.5963 26.4295 26.5335 26.4295C18.9848 26.4295 11.4361 26.4295 3.88734 26.4295C3.33541 26.4295 0.705394 26.8255 0.254535 26.4295C-0.291753 25.9497 0.211142 22.0858 0.211142 21.3286C0.211142 16.8115 0.211142 12.2972 0.211142 7.78016C0.211142 5.95661 0.211142 4.13589 0.211142 2.31216C0.211142 2.02605 -0.00564456 0.416287 0.211142 0.208144C0.326679 0.0982509 0.852682 0.251536 1.00597 0.208144C2.66476 -0.260003 5.14167 0.208144 6.8495 0.208144C15.6727 0.208144 24.496 0.208144 33.3192 0.208144C47.2115 0.208144 61.1008 0.208144 74.9931 0.208144C92.3911 0.208144 109.786 0.208144 127.184 0.208144C146.322 0.208144 165.459 0.208144 184.597 0.208144C203.677 0.208144 222.757 0.208144 241.837 0.208144C259.348 0.208144 276.858 0.208144 294.369 0.208144C308.507 0.208144 322.647 0.208144 336.786 0.208144C345.817 0.208144 354.845 0.208144 363.877 0.208144C365.923 0.208144 368.171 -0.0548582 370.206 0.208144C370.396 0.234073 371.122 0.0751434 371.266 0.208144C371.83 0.719683 371.295 4.78307 371.295 5.54015C371.298 12.5024 371.298 19.4644 371.298 26.4295L371.298 26.4295Z" transform="translate(1809.2595 44.27002)" id="Shape" fill="none" fill-rule="evenodd" stroke="#000000" stroke-width="5" stroke-linecap="round" stroke-linejoin="round" />
      <path d="M227.855 0.116066C227.855 7.76304 227.855 15.41 227.855 23.057C227.855 41.6773 227.855 60.2949 227.855 78.9152C227.855 101.928 227.855 124.945 227.855 147.958C227.855 169.095 227.855 190.233 227.855 211.373C227.855 224.063 227.855 236.753 227.855 249.444C227.855 250.467 228.254 252.761 227.529 253.221C226.954 253.588 224.922 253.221 224.257 253.221C222.185 253.221 220.113 253.221 218.041 253.221C201.805 253.221 185.571 253.221 169.335 253.221C146.565 253.221 123.797 253.221 101.027 253.221C79.7361 253.221 58.4426 253.221 37.1518 253.221C25.3692 253.221 13.5837 253.221 1.80114 253.221C-0.0485079 253.221 0.156725 253.374 0.156725 251.53C0.156725 247.548 0.156725 243.565 0.156725 239.58C0.156725 223.104 0.156725 206.628 0.156725 190.152C0.156725 167.546 0.156725 144.94 0.156725 122.332C0.156725 100.125 0.156725 77.9151 0.156725 55.7083C0.156725 40.3826 0.156725 25.0539 0.156725 9.72823C0.156725 7.75722 0.156725 5.78621 0.156725 3.8152C0.156725 3.06376 -0.195884 1.24022 0.156725 0.558106C0.619138 -0.340614 2.63927 0.11589 3.83574 0.11589C17.2888 0.11589 30.7389 0.11589 44.192 0.11589C66.1156 0.11589 88.0393 0.11589 109.963 0.11589C132.265 0.11589 154.567 0.11589 176.87 0.11589C191.747 0.11589 206.628 0.11589 221.506 0.11589C223.618 0.116066 225.737 0.116066 227.855 0.116066L227.855 0.116066Z" transform="translate(1146.1045 192.39502)" id="Shape" fill="none" fill-rule="evenodd" stroke="#000000" stroke-width="5" stroke-linecap="round" stroke-linejoin="round" />
      <path d="M234.687 0.209907C234.687 8.09095 234.687 15.972 234.687 23.853C234.687 42.8694 234.687 61.8856 234.687 80.9019C234.687 104.328 234.687 127.755 234.687 151.181C234.687 172.293 234.687 193.407 234.687 214.519C234.687 226.593 234.687 238.668 234.687 250.742C234.687 251.133 234.956 252.89 234.687 253.202C234.496 253.421 234.074 253.245 233.707 253.315C230.155 253.968 225.849 253.315 222.251 253.315C205.177 253.315 188.103 253.315 171.026 253.315C147.868 253.315 124.71 253.315 101.553 253.315C80.1377 253.315 58.7225 253.315 37.3076 253.315C25.4586 253.315 13.6124 253.315 1.76322 253.315C-0.115361 253.315 0.113068 253.448 0.113068 251.572C0.113068 247.465 0.113068 243.358 0.113068 239.255C0.113068 222.325 0.113068 205.395 0.113068 188.465C0.113068 165.493 0.113068 142.517 0.113068 119.544C0.113068 97.2507 0.113068 74.9571 0.113068 52.6664C0.113068 37.7771 0.113068 22.8906 0.113068 8.00117C0.113068 6.21802 0.113068 4.43786 0.113068 2.65471C0.113068 2.29628 -0.141291 0.582625 0.113068 0.299338C0.667999 -0.319094 4.65324 0.212553 5.50592 0.212553C19.9213 0.212553 34.3396 0.212553 48.7551 0.212553C71.1556 0.212553 93.5532 0.212553 115.954 0.212553C138.51 0.212553 161.07 0.212553 183.627 0.212553C198.519 0.212553 213.408 0.212553 228.301 0.212553C230.433 0.209907 232.56 0.209907 234.687 0.209907L234.687 0.209907Z" transform="translate(1789.8213 192.30103)" id="Shape" fill="none" fill-rule="evenodd" stroke="#000000" stroke-width="5" stroke-linecap="round" stroke-linejoin="round" />
      <path d="M61.8578 250.854C61.8839 231.8 62.086 212.738 61.9213 193.687C61.7392 172.864 61.7336 152.033 61.1525 131.216C60.592 111.185 60.0688 91.1084 58.0688 71.1585C56.3522 54.0236 53.4071 35.5997 43.2575 21.1844C39.356 15.6413 34.2696 11.3438 28.5732 7.72847C23.0559 4.22866 16.6606 0.809819 10.054 0.0814934C5.453 -0.424224 0.964868 1.3935 0.12665 6.41928C-0.503425 10.1937 1.32295 13.5923 3.60335 16.4333C8.9731 23.1208 15.9727 28.2708 21.1311 35.178C26.1887 41.9463 29.4632 49.6453 31.3849 57.8444C35.5177 75.4823 35.0235 94.1171 35.2602 112.125C35.4973 130.271 35.7255 148.415 35.9308 166.561C36.2286 192.857 36.5232 219.154 36.8209 245.45C37.0001 261.371 36.5839 277.303 36.4046 293.222C36.1559 315.166 35.9308 337.11 35.662 359.051C35.4249 378.636 35.5262 398.271 34.5582 417.837C33.6998 435.151 31.5122 453.049 20.6224 467.201C15.4118 473.975 8.34867 479.059 3.1726 485.821C1.00226 488.659 -0.59903 492.096 0.216257 495.751C3.14685 508.915 23.5735 497.202 29.0759 493.65C42.4221 485.038 49.5893 471.909 53.6989 456.805C58.7102 438.387 59.2418 418.683 60.164 399.722C61.0513 381.52 61.4386 363.27 61.5974 345.048C61.7851 323.639 61.9297 302.242 61.9008 280.832C61.8867 270.844 61.8722 260.848 61.8578 250.854L61.8578 250.854Z" transform="translate(2676.5798 68.210205)" id="Shape" fill="none" fill-rule="evenodd" stroke="#000000" stroke-width="5" stroke-linecap="round" stroke-linejoin="round" />
      <path d="M37.8425 246.688C37.9234 228.389 38.3078 210.109 39.2152 191.83C40.0996 174.065 41.5533 156.32 43.6052 138.651C45.7091 120.519 48.5933 102.525 52.0758 84.6073C55.4282 67.3682 60.0523 50.427 63.9451 33.3123C65.6242 25.9311 68.0287 18.0704 68.0461 10.4407C68.0548 6.55934 66.1618 0.672409 61.6794 0.0597971C57.3761 -0.526885 53.2116 3.32835 50.4892 6.19244C45.3016 11.6488 41.3943 18.3334 37.9292 24.9717C30.0308 40.1039 24.3953 56.4354 19.9562 72.8853C15.153 90.679 11.6474 108.765 8.5464 126.92C5.57257 144.321 3.28079 161.898 1.92537 179.501C0.581522 196.939 0.107555 214.461 0.0295237 231.949C-0.0571732 250.962 0.0237469 269.961 0.590188 288.969C1.12195 306.846 2.7028 324.623 4.95701 342.362C7.23146 360.26 10.3122 378.1 14.0432 395.749C17.6702 412.919 22.0832 429.97 28.2448 446.417C33.5739 460.647 40.0678 476.502 50.8476 487.551C53.5815 490.351 57.8905 494.203 62.1591 493.226C66.4363 492.247 68.1097 486.452 68.0461 482.635C67.9131 474.806 65.5115 466.742 63.7486 459.168C61.5002 449.506 59.0986 439.877 56.7721 430.233C52.7983 413.763 49.6338 397.079 47.053 380.337C44.3624 362.875 42.3365 345.292 40.9464 327.678C39.5216 309.635 38.5708 291.561 38.1691 273.467C37.9639 264.543 37.8801 255.616 37.8425 246.688L37.8425 246.688Z" transform="translate(21.555908 72.376465)" id="Shape" fill="none" fill-rule="evenodd" stroke="#000000" stroke-width="5" stroke-linecap="round" stroke-linejoin="round" />
      <path d="M0 299.505C0.0982507 286.59 0.277444 273.686 0.875679 260.782C1.47391 247.895 2.36692 235.009 3.67322 222.177C4.99107 209.247 6.55457 196.337 8.65272 183.506C10.7769 170.509 13.2565 157.574 16.2708 144.754C19.2244 132.194 22.5335 119.7 26.6084 107.455C30.5822 95.5164 35.29 83.7627 41.3648 72.7286C47.0033 62.4922 53.8728 52.9407 62.147 44.6665C70.1581 36.6583 79.3657 29.8927 89.1917 24.2833C100.339 17.9224 112.289 13.0093 124.58 9.34193C136.906 5.66591 149.584 3.31336 162.367 1.95496C174.837 0.631309 187.409 0.165985 199.943 0.0446273C211.416 -0.0652653 222.898 0.0619138 234.372 0.0677348C252.911 0.082199 271.451 0.0936645 289.99 0.108129C295.626 0.110951 301.264 0.0994854 306.9 0.122593C308.047 0.128414 309.194 0.137057 310.342 0.142878C312.827 0.157342 315.315 0.174629 317.801 0.189093C321.578 0.2122 325.352 0.235308 329.129 0.258415C334.147 0.290166 339.161 0.319094 344.178 0.350845C350.383 0.388417 356.59 0.42881 362.795 0.466382C370.142 0.512597 377.488 0.55599 384.832 0.602204C393.268 0.65424 401.704 0.706276 410.14 0.758312C419.616 0.816169 429.092 0.876848 438.569 0.934528C449.088 1.00103 459.611 1.06453 470.13 1.13103C481.543 1.20035 492.956 1.27267 504.369 1.342C516.671 1.41714 528.977 1.4951 541.28 1.57025C554.427 1.65121 567.57 1.73218 580.717 1.81596C594.653 1.90275 608.591 1.98936 622.527 2.07614C637.205 2.16575 651.884 2.25818 666.562 2.34779C681.931 2.44321 697.303 2.53847 712.675 2.63389C728.689 2.73215 744.7 2.83322 760.713 2.93165C777.319 3.03572 793.922 3.13679 810.528 3.24086C827.761 3.34776 844.992 3.45465 862.225 3.56172C879.869 3.67161 897.512 3.78133 915.153 3.88822C933.238 4.00094 951.324 4.11365 969.41 4.22354C987.889 4.33908 1006.37 4.4518 1024.85 4.56751C1043.67 4.68305 1062.49 4.80158 1081.31 4.91712C1100.43 5.03566 1119.55 5.15402 1138.66 5.27255C1158.02 5.39391 1177.38 5.51245 1196.74 5.6338C1216.29 5.75516 1235.85 5.87652 1255.4 5.99788C1275.1 6.11924 1294.8 6.24059 1314.49 6.36495C1334.38 6.48931 1354.27 6.61067 1374.16 6.73485C1393.99 6.8592 1413.83 6.98056 1433.67 7.10474C1453.5 7.2261 1473.33 7.35046 1493.16 7.47464C1512.94 7.596 1532.71 7.72035 1552.49 7.84171C1572.16 7.96307 1591.84 8.08443 1611.51 8.20578C1631.02 8.32714 1650.54 8.4485 1670.06 8.56704C1689.37 8.68557 1708.68 8.80693 1728 8.92547C1747.06 9.044 1766.11 9.16236 1785.17 9.2809C1803.93 9.39643 1822.68 9.51215 1841.43 9.63051C1859.93 9.74604 1878.41 9.85876 1896.9 9.97447C1914.9 10.0872 1932.89 10.1971 1950.89 10.3098C1968.43 10.4197 1985.97 10.5266 2003.51 10.6363C2020.55 10.7404 2037.59 10.8473 2054.63 10.9542C2071.11 11.0552 2087.6 11.1593 2104.08 11.2606C2119.97 11.3588 2135.85 11.4571 2151.73 11.5553C2166.96 11.6507 2182.19 11.7432 2197.42 11.8386C2211.95 11.9282 2226.48 12.0178 2241.01 12.1074C2254.78 12.1942 2268.56 12.278 2282.34 12.3646C2295.31 12.4456 2308.28 12.5265 2321.26 12.6045C2333.44 12.6796 2345.62 12.7548 2357.79 12.8299C2369.01 12.8992 2380.23 12.9686 2391.44 13.0381C2401.71 13.1016 2411.97 13.1652 2422.24 13.2287C2431.5 13.2866 2440.77 13.3443 2450.03 13.4021C2458.24 13.4542 2466.45 13.5032 2474.67 13.5552C2481.78 13.5986 2488.89 13.6448 2496 13.6882C2501.97 13.7258 2507.92 13.7634 2513.89 13.7981C2518.65 13.8271 2523.41 13.856 2528.17 13.8877C2531.68 13.9109 2535.19 13.9311 2538.7 13.9542C2540.92 13.9687 2543.14 13.9802 2545.36 13.9946C2546.21 14.0005 2547.07 14.0005 2547.92 14.0091C2559.14 14.1449 2570.37 14.3587 2581.59 14.6478C2595.08 14.9946 2608.58 15.4889 2622.06 16.2951C2634.55 17.0436 2647.04 18.1332 2659.42 20.0059C2671.55 21.8439 2683.65 24.4537 2695.19 28.7019C2704.94 32.2913 2714.22 37.2765 2721.85 44.4005C2730.1 52.0967 2735.93 61.914 2739.92 72.3961C2744.05 83.2164 2746.36 94.6782 2747.84 106.134C2749.45 118.605 2750.04 131.199 2750.14 143.768C2750.21 152.187 2750.16 160.605 2750.16 169.024C2750.16 186.994 2750.16 204.961 2750.16 222.931C2750.16 241.006 2750.16 259.08 2750.16 277.154C2750.16 284.662 2750.16 292.17 2750.16 299.676C2750.16 309.3 2750.16 318.923 2750.16 328.544C2750.16 347.275 2750.16 366.002 2750.16 384.732C2750.16 401.786 2750.16 418.84 2750.16 435.897C2750.16 443.911 2750.23 451.934 2750.08 459.945C2749.83 472.768 2749.04 485.619 2747.07 498.304C2745.29 509.716 2742.57 521.112 2737.83 531.683C2733.38 541.613 2727.02 550.622 2718.54 557.512C2710.12 564.352 2700.12 568.872 2689.85 572.158C2678.31 575.846 2666.38 578.132 2654.39 579.736C2641.68 581.432 2628.89 582.363 2616.1 583.051C2603.97 583.704 2591.83 584.189 2579.7 584.418C2569.07 584.617 2558.44 584.892 2547.81 585.016C2546.8 585.027 2545.78 585.027 2544.76 585.033C2542.43 585.048 2540.11 585.062 2537.78 585.076C2534.2 585.097 2530.63 585.12 2527.06 585.14C2522.29 585.169 2517.51 585.198 2512.74 585.227C2506.81 585.262 2500.88 585.299 2494.94 585.334C2487.9 585.377 2480.85 585.417 2473.81 585.461C2465.7 585.51 2457.59 585.559 2449.48 585.608C2440.36 585.663 2431.23 585.718 2422.1 585.773C2412 585.834 2401.9 585.894 2391.8 585.955C2380.77 586.022 2369.74 586.088 2358.72 586.154C2346.75 586.227 2334.78 586.299 2322.82 586.371C2310.07 586.449 2297.33 586.524 2284.58 586.602C2271.05 586.683 2257.52 586.767 2243.99 586.848C2229.71 586.935 2215.44 587.022 2201.17 587.108C2186.2 587.198 2171.23 587.29 2156.26 587.38C2140.65 587.475 2125.03 587.568 2109.42 587.663C2093.2 587.762 2076.98 587.86 2060.76 587.958C2043.98 588.059 2027.21 588.16 2010.43 588.261C1993.15 588.365 1975.87 588.47 1958.58 588.573C1940.83 588.68 1923.09 588.787 1905.34 588.894C1887.09 589.004 1868.83 589.114 1850.58 589.227C1832.04 589.339 1813.5 589.452 1794.96 589.562C1776.1 589.675 1757.24 589.79 1738.38 589.903C1719.24 590.018 1700.1 590.134 1680.96 590.25C1661.59 590.368 1642.21 590.484 1622.84 590.602C1603.29 590.721 1583.73 590.839 1564.17 590.958C1544.48 591.076 1524.78 591.195 1505.08 591.316C1485.3 591.435 1465.5 591.556 1445.72 591.675C1425.78 591.796 1405.85 591.914 1385.92 592.036C1366.08 592.157 1346.25 592.276 1326.41 592.394C1306.62 592.513 1286.83 592.634 1267.04 592.753C1247.34 592.871 1227.64 592.99 1207.94 593.111C1188.38 593.23 1168.82 593.348 1149.26 593.467C1129.89 593.585 1110.52 593.701 1091.14 593.819C1072 593.935 1052.85 594.05 1033.71 594.166C1014.84 594.279 995.978 594.394 977.112 594.507C958.57 594.62 940.028 594.732 921.485 594.842C903.313 594.952 885.14 595.062 866.968 595.172C849.128 595.279 831.285 595.389 813.445 595.495C796.154 595.6 778.863 595.704 761.572 595.807C744.79 595.909 728.007 596.01 711.225 596.111C694.998 596.209 678.77 596.307 662.543 596.406C646.916 596.501 631.293 596.594 615.667 596.689C600.688 596.779 585.712 596.871 570.733 596.961C556.45 597.047 542.165 597.134 527.882 597.221C514.34 597.302 500.797 597.385 487.252 597.466C474.495 597.544 461.739 597.62 448.982 597.698C437.003 597.77 425.024 597.842 413.045 597.914C402.005 597.981 390.965 598.047 379.925 598.114C369.81 598.174 359.695 598.235 349.583 598.296C340.442 598.351 331.298 598.406 322.157 598.461C314.033 598.51 305.909 598.559 297.785 598.608C290.725 598.651 283.664 598.695 276.607 598.735C270.659 598.77 264.709 598.808 258.761 598.842C253.969 598.871 249.178 598.9 244.386 598.929C240.797 598.952 237.21 598.972 233.621 598.995C231.274 599.01 228.927 599.024 226.581 599.039C225.543 599.045 224.509 599.056 223.471 599.059C213.963 599.074 204.452 599.056 194.947 598.863C182.112 598.6 169.283 598.016 156.541 596.366C143.842 594.721 131.288 591.987 119.13 587.956C107.081 583.959 95.4087 578.705 84.6145 572.006C75.0081 566.041 66.1126 558.897 58.4945 550.527C50.4921 541.739 43.9751 531.716 38.6372 521.118C32.941 509.813 28.5366 497.897 24.7593 485.831C21.0023 473.829 17.806 461.607 15.124 449.319C12.3149 436.449 9.84685 423.528 7.87584 410.503C5.96553 397.876 4.37315 385.192 3.23447 372.47C2.05246 359.269 1.16521 346.047 0.659466 332.799C0.239872 321.7 0.0838085 310.609 0 299.505L0 299.505Z" transform="translate(0.0056152344 19.559814)" id="Shape" fill="none" fill-rule="evenodd" stroke="#000000" stroke-width="5" stroke-linecap="round" stroke-linejoin="round" />
      <path d="M372.052 24.7634C368.517 16.1541 366.006 6.43788 356.151 3.53631C351.735 2.23577 347.114 2.44391 342.565 2.40917C331.459 2.32538 320.353 2.23868 309.246 2.15481C291.34 2.01899 273.43 1.88025 255.524 1.74443C234.172 1.57968 212.821 1.41784 191.469 1.25309C170.057 1.08834 148.648 0.9265 127.236 0.76175C109.084 0.623017 90.9314 0.484285 72.7792 0.345552C61.4418 0.258856 50.1041 0.172159 38.7667 0.085462C34.5703 0.0537114 30.2007 -0.30754 26.0939 0.741465C18.1956 2.7616 13.0658 9.20053 7.47358 14.6772C4.98239 17.1191 2.49119 19.5585 0 22.0004" transform="translate(1817.658 5.7009277)" id="Shape" fill="none" fill-rule="evenodd" stroke="#000000" stroke-width="5" stroke-linecap="round" stroke-linejoin="round" />
      <path d="M0 20.2263C1.87849 15.8075 3.48534 10.3598 7.23373 7.09115C9.62958 5.00169 12.6756 3.76183 15.7535 3.09136C20.2012 2.12323 24.938 2.41799 29.4609 2.38332C41.099 2.29372 52.7399 2.20411 64.3781 2.11741C82.4811 1.97868 100.581 1.83995 118.684 1.70122C139.952 1.53938 161.22 1.37462 182.487 1.21279C203.535 1.05095 224.583 0.892016 245.631 0.730176C263.361 0.594354 281.092 0.458532 298.822 0.32271C309.842 0.238923 320.861 0.155049 331.881 0.0712625C336.019 0.0395119 340.276 -0.287078 344.317 0.785122C352.189 2.87749 357.353 9.40021 362.943 14.8797C365.37 17.2583 367.798 19.6368 370.223 22.0123" transform="translate(443.38892 0.016113281)" id="Shape" fill="none" fill-rule="evenodd" stroke="#000000" stroke-width="5" stroke-linecap="round" stroke-linejoin="round" />
      <path d="M0 1.7865C1.87849 6.20532 3.48534 11.653 7.23373 14.9216C9.62958 17.0111 12.6756 18.2508 15.7535 18.9213C20.2012 19.8895 24.938 19.5946 29.4609 19.6293C41.099 19.7189 52.7399 19.8085 64.3781 19.8951C82.4811 20.0338 100.581 20.1726 118.684 20.3113C139.952 20.4732 161.22 20.6378 182.487 20.7997C203.535 20.9616 224.583 21.1205 245.631 21.2823C263.361 21.4181 281.092 21.5539 298.822 21.6898C309.842 21.7736 320.861 21.8573 331.881 21.9411C336.019 21.9729 340.276 22.2996 344.317 21.2273C352.189 19.1349 357.353 12.6093 362.943 7.13261C365.37 4.75413 367.798 2.37566 370.223 0" transform="translate(443.38892 616.09985)" id="Shape" fill="none" fill-rule="evenodd" stroke="#000000" stroke-width="5" stroke-linecap="round" stroke-linejoin="round" />
      <path d="M372.052 0C368.517 8.60938 366.006 18.3256 356.151 21.2271C351.735 22.5276 347.114 22.3195 342.565 22.3543C331.459 22.438 320.353 22.5248 309.246 22.6086C291.34 22.7444 273.43 22.8831 255.524 23.0191C234.172 23.1838 212.821 23.3456 191.469 23.5103C170.057 23.6751 148.648 23.8368 127.236 24.0016C109.084 24.1402 90.9314 24.2791 72.7792 24.4177C61.4418 24.5045 50.1041 24.5911 38.7667 24.6779C34.5703 24.7096 30.2007 25.0709 26.0939 24.0219C18.1956 22.0018 13.0658 15.5628 7.47358 10.0861C4.98239 7.64416 2.49119 5.20482 0 2.76284" transform="translate(1817.658 607.66187)" id="Shape" fill="none" fill-rule="evenodd" stroke="#000000" stroke-width="5" stroke-linecap="round" stroke-linejoin="round" />
    </g>
  </g>
</svg>