<svg version="1.1" xmlns:x="http://ns.adobe.com/Extensibility/1.0/" xmlns:i="http://ns.adobe.com/AdobeIllustrator/10.0/" xmlns:graph="http://ns.adobe.com/Graphs/1.0/" xmlns="http://www.w3.org/2000/svg" xmlns:xlink="http://www.w3.org/1999/xlink" x="0px" y="0px" enable-background="new 0 0 1500 850" xml:space="preserve" preserveAspectRatio="xMaxYMin meet">







<g id="AG-TRANSPORT">
	
	
	
	
	
	
	
	
	
	
	
	
	
	
	
	
	
	
	
	
	
	
	
	
	
	
	
	
	
	
	
	
	
	
	
	
	
	<g id="POLYLINE_3542_">
		
			<path fill="none" stroke="#F368E0" stroke-width="2.75" stroke-linecap="round" stroke-linejoin="round" stroke-miterlimit="10" d="    M118.787,586.872c0.084-5.37,0.167-10.739,0.251-16.109c0.064-4.137,0.099-8.276,0.209-12.412    c0.171-6.451,0.343-12.902,0.514-19.354c0.128-4.83,0.366-9.658,0.558-14.485c0.178-4.473,0.372-8.945,0.643-13.413    c0.329-5.428,0.695-10.85,1.131-16.271c0.358-4.444,0.773-8.9,1.353-13.322c0.707-5.388,1.455-10.772,2.113-16.166    c0.294-2.409,0.612-4.827,0.716-7.254c0.066-1.548,0.125-3.208-0.268-4.723c-0.801-3.088-4.521-2.296-6.938-2.197    c-3.459,0.142-7.355,0.145-10.451,1.907c-2.94,1.673-4.885,4.75-6.262,7.748c-1.928,4.198-3.029,8.761-3.962,13.268    c-1.001,4.836-1.779,9.72-2.475,14.609c-0.676,4.749-1.296,9.506-1.826,14.274c-0.629,5.668-1.208,11.334-1.749,17.011    c-0.46,4.821-0.844,9.65-1.172,14.482c-0.323,4.755-0.583,9.518-0.776,14.28c-0.222,5.491-0.364,10.983-0.494,16.477    c-0.108,4.548-0.142,9.1-0.162,13.649c-0.024,5.622-0.02,11.242,0.004,16.864c0.019,4.446,0.063,8.895,0.171,13.34    c0.131,5.36,0.259,10.719,0.486,16.076c0.205,4.84,0.448,9.687,0.8,14.519c0.365,5.021,0.757,10.038,1.235,15.05    c0.538,5.641,1.127,11.269,1.752,16.9c0.533,4.795,1.184,9.576,1.864,14.352c0.672,4.722,1.445,9.444,2.432,14.111    c0.965,4.558,2.097,9.184,4.135,13.397c1.387,2.866,3.341,5.77,6.217,7.31c3.27,1.751,7.353,1.67,10.96,1.814    c2.418,0.096,5.545,0.636,6.246-2.374c0.379-1.627,0.301-3.398,0.208-5.053c-0.14-2.481-0.465-4.953-0.77-7.418    c-0.653-5.273-1.406-10.533-2.071-15.804c-0.578-4.574-1.005-9.173-1.375-13.768c-0.431-5.353-0.788-10.71-1.105-16.072    c-0.268-4.537-0.459-9.077-0.64-13.618c-0.189-4.733-0.415-9.465-0.541-14.2c-0.171-6.434-0.342-12.867-0.513-19.301    c-0.113-4.267-0.145-8.537-0.211-12.805C118.946,597.089,118.787,591.978,118.787,586.872z"/>
	</g><g id="POLYLINE_3541_">
		
			<path fill="none" stroke="#F368E0" stroke-width="2.75" stroke-linecap="round" stroke-linejoin="round" stroke-miterlimit="10" d="    M579.105,421.247c-0.906,0.001-1.812,0.001-2.719,0.002c-2.582,0.002-5.163,0.004-7.745,0.006    c-4.008,0.003-8.016,0.006-12.024,0.009c-5.239,0.004-10.479,0.008-15.718,0.012c-6.199,0.005-12.398,0.009-18.597,0.014    c-6.952,0.005-13.904,0.01-20.856,0.015c-7.511,0.006-15.022,0.011-22.532,0.017c-7.779,0.006-15.557,0.012-23.336,0.017    c-7.884,0.006-15.768,0.012-23.651,0.018c-7.695,0.006-15.39,0.011-23.085,0.017c-7.313,0.005-14.626,0.011-21.938,0.016    c-6.704,0.005-13.408,0.01-20.112,0.015c-5.891,0.004-11.782,0.009-17.674,0.013c-4.801,0.004-9.603,0.007-14.404,0.011    c-3.523,0.003-7.047,0.005-10.57,0.008c-1.988,0.001-3.977,0.003-5.965,0.004c-1.217,0.001-2.433,0.019-3.651,0.036    c-6.988,0.096-13.976,0.191-20.964,0.287c-3.862,0.053-7.728,0.064-11.589,0.166c-6.152,0.163-12.305,0.325-18.457,0.488    c-5.217,0.138-10.437,0.237-15.653,0.414c-4.668,0.158-9.334,0.391-14,0.586c-6.605,0.277-13.21,0.554-19.815,0.83    c-4.67,0.196-9.336,0.49-14.002,0.744c-5.013,0.273-10.022,0.596-15.032,0.918c-5.152,0.33-10.298,0.703-15.447,1.091    c-5.285,0.398-10.561,0.848-15.841,1.32c-4.939,0.441-9.872,0.914-14.8,1.471c-5.168,0.585-10.337,1.199-15.476,2.001    c-5.097,0.796-10.187,1.689-15.189,2.963c-4.553,1.16-9.247,2.578-13.229,5.142c-3.376,2.173-5.559,5.252-7.206,8.867    c-1.979,4.345-2.974,9.09-3.803,13.768c-0.933,5.263-1.638,10.562-2.331,15.861c-0.637,4.864-1.225,9.734-1.76,14.61    c-0.632,5.755-1.204,11.512-1.759,17.275c-0.45,4.668-0.823,9.351-1.159,14.028c-0.374,5.217-0.724,10.44-0.997,15.663    c-0.274,5.248-0.531,10.497-0.71,15.75c-0.176,5.165-0.341,10.331-0.418,15.498c-0.079,5.256-0.152,10.512-0.146,15.769    c0.006,5.576,0.08,11.15,0.164,16.726c0.079,5.263,0.271,10.524,0.451,15.784c0.177,5.193,0.456,10.383,0.728,15.572    c0.253,4.843,0.581,9.69,0.941,14.526c0.377,5.073,0.788,10.147,1.276,15.21c0.561,5.825,1.158,11.64,1.797,17.457    c0.544,4.952,1.175,9.896,1.822,14.836c0.65,4.963,1.308,9.938,2.239,14.858c0.899,4.748,1.933,9.523,4.076,13.889    c1.791,3.65,4.192,6.524,7.737,8.577c4.071,2.357,8.722,3.713,13.269,4.812c4.89,1.182,9.853,2.083,14.829,2.815    c5.466,0.804,10.947,1.464,16.437,2.085c4.989,0.564,9.989,1.004,14.989,1.45c5.284,0.472,10.566,0.898,15.856,1.296    c5.144,0.388,10.287,0.74,15.435,1.071c4.98,0.319,9.957,0.624,14.94,0.896c4.398,0.24,8.794,0.505,13.194,0.689    c6.895,0.289,13.79,0.578,20.685,0.867c4.16,0.174,8.321,0.394,12.483,0.519c5.773,0.174,11.548,0.305,17.322,0.458    c5.658,0.15,11.317,0.321,16.976,0.449c4.296,0.097,8.595,0.12,12.892,0.179c6.719,0.092,13.438,0.184,20.157,0.276    c1.007,0.014,2.013,0.023,3.021,0.023c2.112,0.002,4.224,0.003,6.336,0.005c3.63,0.003,7.261,0.005,10.891,0.008    c4.89,0.004,9.781,0.007,14.671,0.011c5.963,0.004,11.927,0.009,17.89,0.013c6.758,0.005,13.517,0.01,20.275,0.015    c7.35,0.005,14.7,0.011,22.05,0.016c7.748,0.006,15.496,0.012,23.244,0.017c7.853,0.006,15.706,0.012,23.56,0.017    c7.764,0.006,15.528,0.011,23.292,0.017c7.479,0.006,14.957,0.011,22.436,0.017c6.903,0.005,13.805,0.01,20.708,0.015    c6.132,0.005,12.265,0.009,18.397,0.014c5.155,0.004,10.31,0.008,15.465,0.011c3.907,0.003,7.813,0.006,11.72,0.009    c2.462,0.002,4.925,0.004,7.387,0.005c0.776,0.001,1.551,0.001,2.327,0.002"/>
	</g><g id="POLYLINE_3540_">
		
			<path fill="none" stroke="#F368E0" stroke-width="2.75" stroke-linecap="round" stroke-linejoin="round" stroke-miterlimit="10" d="    M694.983,586.872c-0.044-5.973-0.116-11.94-0.255-17.911c-0.126-5.39-0.392-10.778-0.75-16.158    c-0.374-5.632-0.906-11.249-1.623-16.848c-0.694-5.415-1.628-10.816-2.927-16.12c-1.292-5.28-3.021-10.42-5.157-15.417    c-2.157-5.046-4.47-10.045-6.966-14.932c-2.508-4.911-5.237-9.718-8.467-14.195c-3.026-4.195-6.479-8.255-10.62-11.393    c-3.719-2.818-7.807-4.132-12.429-4.515c-5.362-0.444-10.808-0.286-16.146,0.366c-5.447,0.666-10.78,1.998-16.037,3.544    c-5.542,1.629-11.061,3.349-16.542,5.17c-2.604,0.865-5.199,1.766-7.76,2.753c-2.18,0.84-4.403,1.734-6.343,3.056    c-1.917,1.306-3.276,3.046-3.893,5.289c-1.297,4.72-0.311,10.103,0.283,14.859c0.71,5.686,1.626,11.349,2.461,17.017    c0.799,5.43,1.687,10.856,2.332,16.307c0.662,5.597,1.164,11.209,1.52,16.834c0.334,5.272,0.597,10.558,0.719,15.84    c0.136,5.928,0.27,11.851,0.311,17.779c0.042,6.078,0.036,12.148-0.006,18.226c-0.04,5.772-0.173,11.54-0.315,17.311    c-0.128,5.196-0.382,10.399-0.72,15.586c-0.375,5.772-0.877,11.534-1.58,17.275c-0.68,5.548-1.579,11.072-2.393,16.601    c-0.812,5.517-1.715,11.03-2.383,16.567c-0.569,4.724-1.581,10.142-0.12,14.799c0.697,2.223,2.179,3.888,4.126,5.139    c1.965,1.262,4.177,2.139,6.352,2.963c2.717,1.03,5.465,1.972,8.223,2.889c5.252,1.745,10.546,3.389,15.859,4.939    c5.345,1.56,10.76,2.904,16.299,3.552c5.365,0.628,10.852,0.775,16.235,0.276c4.636-0.43,8.674-1.902,12.35-4.784    c4.067-3.188,7.481-7.233,10.463-11.429c3.244-4.564,6.003-9.444,8.522-14.439c2.491-4.939,4.831-9.976,6.977-15.075    c2.064-4.904,3.708-9.957,4.952-15.13c1.31-5.446,2.218-10.979,2.93-16.532c0.717-5.597,1.196-11.22,1.57-16.85    c0.355-5.341,0.585-10.693,0.71-16.045C694.879,598.314,694.941,592.596,694.983,586.872z"/>
	</g>
	<g id="POLYLINE_3539_">
		
			<path fill="none" stroke="#F368E0" stroke-width="2.75" stroke-linecap="round" stroke-linejoin="round" stroke-miterlimit="10" d="    M664.514,725.841c3.909-2.864,7.595-6.01,10.941-9.52c3.154-3.308,6-6.898,8.547-10.693c2.717-4.047,5.085-8.32,7.23-12.694    c2.218-4.522,4.195-9.16,6.099-13.822c1.808-4.429,3.405-8.95,4.719-13.551c1.399-4.9,2.487-9.869,3.389-14.884    c0.902-5.015,1.535-10.078,2.074-15.144c0.532-4.994,0.896-10.007,1.195-15.02c0.276-4.612,0.49-9.236,0.591-13.856    c0.123-5.599,0.215-11.192,0.253-16.792c0.032-4.62,0.026-9.245-0.058-13.864c-0.094-5.185-0.205-10.37-0.43-15.551    c-0.217-5.006-0.485-10.012-0.89-15.007c-0.421-5.188-0.963-10.36-1.663-15.517c-0.655-4.826-1.484-9.646-2.579-14.392    c-1.127-4.884-2.47-9.711-4.147-14.437c-1.65-4.651-3.53-9.221-5.526-13.734c-2.027-4.583-4.192-9.097-6.673-13.453    c-2.259-3.965-4.797-7.777-7.644-11.345c-3.017-3.781-6.39-7.277-10.06-10.427c-1.731-1.486-3.528-2.886-5.368-4.234"/>
	</g>
	<g id="POLYLINE_3538_">
		
			<path fill="none" stroke="#F368E0" stroke-width="2.75" stroke-linecap="round" stroke-linejoin="round" stroke-miterlimit="10" d="    M863.656,621.87c1.195-1.474,1.87-3.321,2.462-5.101c0.754-2.268,1.341-4.589,1.775-6.939c0.871-4.723,1.233-9.537,1.425-14.331    c0.2-4.999,0.233-10.018,0.074-15.018c-0.16-5.034-0.438-10.08-1.238-15.059c-0.357-2.218-0.826-4.417-1.455-6.575    c-0.606-2.08-1.259-4.252-2.419-6.1c-0.19-0.303-0.397-0.596-0.622-0.874"/>
	</g>
	<g id="POLYLINE_3537_">
		
			<path fill="none" stroke="#F368E0" stroke-width="2.75" stroke-linecap="round" stroke-linejoin="round" stroke-miterlimit="10" d="    M875.72,586.872c-0.038-6.16-0.169-12.33-0.907-18.452c-0.35-2.906-0.845-5.8-1.608-8.628c-0.634-2.351-1.337-4.836-2.614-6.931    c-0.819-1.342-4.452-5.344-6.161-3.271c-0.462,0.561-0.613,1.405-0.741,2.101c-0.246,1.336-0.331,2.703-0.401,4.057    c-0.122,2.362-0.155,4.727-0.162,7.091c-0.024,7.813-0.047,15.626-0.071,23.439c-0.02,6.442,0.035,12.886,0.055,19.328    c0.008,2.553-0.021,5.109,0.033,7.661c0.062,2.932,0.01,5.956,0.557,8.849c0.295,1.557,0.931,2.997,2.756,2.361    c1.229-0.429,2.332-1.351,3.185-2.305c1.063-1.189,1.726-2.667,2.279-4.147c1.003-2.682,1.717-5.48,2.234-8.294    c1.107-6.031,1.405-12.204,1.522-18.323C875.703,589.896,875.711,588.384,875.72,586.872z"/>
	</g>
	<g id="POLYLINE_3536_">
		
			<path fill="none" stroke="#F368E0" stroke-width="2.75" stroke-linecap="round" stroke-linejoin="round" stroke-miterlimit="10" d="    M718.972,586.872c-0.037-6.422-0.134-12.841-0.451-19.255c-0.326-6.594-0.853-13.171-1.568-19.734    c-0.68-6.237-1.605-12.463-2.806-18.621c-1.262-6.477-2.825-12.878-4.723-19.198c-1.807-6.017-4.013-11.921-6.514-17.683    c-2.532-5.834-5.322-11.578-8.441-17.122c-3.044-5.412-6.443-10.694-10.576-15.346c-3.643-4.1-7.944-7.856-13.006-10.082    c-5.438-2.392-11.63-2.893-17.505-2.592c-6.177,0.317-12.218,1.667-18.189,3.206c-5.417,1.396-10.798,2.958-16.169,4.52    c-7.84,2.281-15.68,4.563-23.52,6.844c-5.636,1.64-11.282,3.241-16.875,5.022c-2.929,0.933-5.861,1.894-8.691,3.1    c-1.945,0.829-4.007,1.774-5.515,3.301c-2.359,2.388-1.78,5.582-1.004,8.55c1.605,6.135,3.651,12.142,5.158,18.307    c1.503,6.151,2.787,12.363,3.789,18.616c1.037,6.474,1.952,12.96,2.589,19.486c0.629,6.444,1.095,12.902,1.395,19.369    c0.29,6.255,0.513,12.522,0.56,18.783c0.054,7.211,0.071,14.416-0.004,21.627c-0.067,6.38-0.303,12.762-0.598,19.135    c-0.298,6.427-0.785,12.848-1.43,19.249c-0.653,6.471-1.554,12.913-2.614,19.328c-1.041,6.3-2.331,12.565-3.879,18.76    c-1.537,6.15-3.658,12.145-5.162,18.298c-0.699,2.86-0.911,5.764,1.374,7.938c1.652,1.572,3.866,2.53,5.946,3.384    c2.972,1.22,6.038,2.195,9.096,3.169c5.555,1.769,11.175,3.336,16.772,4.965c7.649,2.226,15.298,4.452,22.947,6.677    c5.635,1.64,11.285,3.251,16.969,4.715c5.787,1.491,11.686,2.698,17.671,2.942c5.862,0.239,12.018-0.35,17.392-2.847    c5.075-2.358,9.378-6.23,13.008-10.431c4.045-4.682,7.39-9.944,10.391-15.341c3.052-5.491,5.816-11.164,8.29-16.939    c2.567-5.992,4.797-12.108,6.664-18.354c1.81-6.052,3.274-12.209,4.46-18.413c1.225-6.411,2.155-12.875,2.862-19.362    c0.684-6.276,1.167-12.576,1.465-18.883C718.83,599.601,718.935,593.239,718.972,586.872z"/>
	</g>
	<g id="POLYLINE_3535_">
		
			<path fill="none" stroke="#F368E0" stroke-width="2.75" stroke-linecap="round" stroke-linejoin="round" stroke-miterlimit="10" d="    M888.661,430.524c2.065,4.431,3.908,8.95,5.483,13.579c1.639,4.817,3.032,9.716,4.259,14.654    c1.313,5.284,2.43,10.607,3.512,15.942c1.003,4.944,1.924,9.903,2.821,14.867c0.903,5.001,1.793,10.006,2.556,15.031    c0.805,5.303,1.557,10.613,2.194,15.938c0.612,5.115,1.129,10.241,1.57,15.373c0.471,5.469,0.833,10.942,1.154,16.421    c0.309,5.263,0.474,10.534,0.642,15.803c0.163,5.113,0.205,10.23,0.236,15.346c0.03,4.885,0.014,9.77-0.078,14.654    c-0.099,5.233-0.203,10.466-0.439,15.695c-0.242,5.358-0.505,10.714-0.892,16.064c-0.398,5.507-0.885,11.001-1.433,16.495    c-0.488,4.894-1.099,9.78-1.774,14.652c-0.714,5.153-1.499,10.295-2.371,15.424c-0.874,5.136-1.811,10.261-2.784,15.379    c-1.006,5.295-2.05,10.583-3.204,15.848c-1.09,4.973-2.31,9.926-3.73,14.816c-1.401,4.825-3.006,9.585-4.887,14.245    c-0.881,2.185-1.842,4.334-2.836,6.469"/>
	</g>
	<g id="POLYLINE_3534_">
		
			<path fill="none" stroke="#F368E0" stroke-width="2.75" stroke-linecap="round" stroke-linejoin="round" stroke-miterlimit="10" d="    M906.256,737.223c1.51-4.589,2.986-9.188,4.316-13.833c1.375-4.803,2.693-9.623,3.911-14.469    c1.264-5.029,2.464-10.074,3.594-15.135c1.14-5.108,2.18-10.237,3.223-15.365c0.883-4.341,1.684-8.704,2.441-13.068    c0.962-5.544,1.881-11.089,2.761-16.646c0.681-4.299,1.316-8.61,1.869-12.927c0.711-5.554,1.384-11.104,2.005-16.669    c0.527-4.722,0.945-9.459,1.297-14.197c0.366-4.917,0.623-9.842,0.732-14.771c0.102-4.664-0.013-9.342-0.273-14    c-0.289-5.179-0.67-10.348-1.148-15.513c-0.432-4.667-0.936-9.334-1.503-13.986c-0.642-5.272-1.362-10.531-2.116-15.787    c-0.68-4.739-1.405-9.473-2.191-14.196c-0.814-4.892-1.685-9.774-2.605-14.647c-1.013-5.361-2.094-10.703-3.191-16.047    c-0.941-4.584-1.997-9.146-3.078-13.699c-1.137-4.791-2.331-9.568-3.617-14.321c-1.306-4.824-2.671-9.631-4.161-14.402    c-0.734-2.349-1.498-4.686-2.267-7.023"/>
	</g>
	<g id="POLYLINE_3533_">
		
			<path fill="none" stroke="#F368E0" stroke-width="2.75" stroke-linecap="round" stroke-linejoin="round" stroke-miterlimit="10" d="    M598.29,752.482c4.25-0.026,8.5-0.051,12.75-0.077c9.946-0.06,19.892-0.12,29.839-0.18c11.436-0.069,22.873-0.138,34.309-0.207    c8.72-0.053,17.441-0.105,26.161-0.158c2.833-0.017,5.665-0.019,8.497-0.077c8.482-0.175,16.965-0.351,25.447-0.526    c10.896-0.225,21.793-0.45,32.689-0.675c4.591-0.095,9.182-0.165,13.771-0.316c9.149-0.301,18.3-0.577,27.448-0.903    c8.022-0.286,16.042-0.706,24.061-1.06c6.818-0.301,13.644-0.725,20.449-1.246c8.042-0.615,16.065-1.369,24.069-2.362    c3.787-0.469,7.569-1.006,11.347-1.542c3.179-0.45,6.365-1.016,9.416-2.038c6.038-2.021,10.998-5.927,14.9-10.914    c4.504-5.757,7.699-12.505,10.32-19.292c2.721-7.046,4.774-14.333,6.493-21.681c1.753-7.492,3.052-15.077,4.184-22.684    c1.115-7.496,1.908-15.043,2.575-22.591c0.687-7.772,1.149-15.559,1.52-23.351c0.338-7.096,0.561-14.214,0.618-21.318    c0.068-8.513,0.062-17.016-0.006-25.53c-0.058-7.291-0.326-14.595-0.673-21.878c-0.371-7.796-0.885-15.581-1.572-23.356    c-0.664-7.508-1.523-15.004-2.633-22.46c-1.124-7.557-2.466-15.091-4.249-22.522c-1.769-7.374-3.866-14.672-6.66-21.729    c-2.661-6.723-5.93-13.404-10.53-19.029c-3.987-4.876-9.047-8.55-15.09-10.406c-3.299-1.013-6.711-1.503-10.117-1.992    c-3.588-0.515-7.182-1.008-10.78-1.445c-7.784-0.945-15.586-1.693-23.407-2.27c-6.957-0.513-13.926-0.948-20.895-1.256    c-7.897-0.349-15.795-0.78-23.696-1.04c-9.287-0.306-18.574-0.611-27.861-0.917c-4.69-0.154-9.383-0.216-14.074-0.313    c-10.96-0.226-21.921-0.453-32.881-0.679c-8.202-0.169-16.403-0.339-24.605-0.508c-2.936-0.061-5.873-0.055-8.81-0.073    c-8.91-0.054-17.82-0.108-26.73-0.161c-11.458-0.069-22.915-0.138-34.373-0.208c-9.799-0.059-19.598-0.118-29.397-0.178    c-3.943-0.024-7.885-0.048-11.828-0.071"/>
	</g>
	<g id="POLYLINE_3532_">
		
			<path fill="none" stroke="#F368E0" stroke-width="2.75" stroke-linecap="round" stroke-linejoin="round" stroke-miterlimit="10" d="    M105.116,456.204c-0.143-3.511-0.32-8.064-2.787-10.852c-1.18-1.334-2.587-1.539-3.939-0.371    c-1.549,1.339-2.799,3.169-3.898,4.879c-2.765,4.307-4.051,9.139-4.99,14.121c-0.993,5.271-1.749,10.605-2.448,15.922    c-0.815,6.203-1.533,12.412-2.226,18.629c-0.574,5.152-1.079,10.32-1.507,15.486c-0.487,5.873-0.931,11.748-1.283,17.631    c-0.34,5.684-0.599,11.371-0.803,17.061c-0.189,5.29-0.351,10.584-0.425,15.877c-0.089,6.36-0.151,12.716-0.178,19.077    c-0.023,5.231-0.012,10.464,0.042,15.695c0.062,6.068,0.18,12.133,0.329,18.199c0.133,5.443,0.338,10.883,0.598,16.322    c0.281,5.882,0.645,11.757,1.065,17.631c0.41,5.729,0.958,11.445,1.502,17.163c0.501,5.261,1.052,10.521,1.692,15.767    c0.72,5.897,1.495,11.787,2.372,17.663c0.777,5.206,1.495,10.587,3.233,15.577c0.783,2.248,1.846,4.391,3.146,6.385    c1.085,1.663,2.312,3.467,3.845,4.754c2.992,2.513,5.129-2.022,5.767-4.385c0.606-2.246,0.798-4.578,0.893-6.894"/>
	</g>
	<g id="POLYLINE_3531_">
		
			<path fill="none" stroke="#F368E0" stroke-width="2.75" stroke-linecap="round" stroke-linejoin="round" stroke-miterlimit="10" d="    M896.983,453.347c-2.545-0.074-5.09-0.148-7.635-0.221c-6.648-0.193-13.296-0.386-19.944-0.578    c-9.433-0.274-18.867-0.547-28.301-0.821c-10.717-0.311-21.434-0.622-32.152-0.932c-10.733-0.311-21.466-0.622-32.199-0.934    c-9.231-0.268-18.463-0.535-27.694-0.803c-6.444-0.187-12.888-0.374-19.331-0.561c-2.34-0.068-4.681-0.147-7.021-0.201    c-7.629-0.175-15.273-0.493-22.904-0.256c-6.749,0.21-13.463,0.979-19.972,2.825c-1.507,0.428-2.996,0.915-4.474,1.434"/>
	</g>
	<g id="POLYLINE_3530_">
		
			<path fill="none" stroke="#F368E0" stroke-width="2.75" stroke-linecap="round" stroke-linejoin="round" stroke-miterlimit="10" d="    M823.656,471.948c3.964,0.497,8.476,0.866,12.002,2.919c2.411,1.404,3.892,3.76,5.099,6.21c2.19,4.447,3.842,9.191,5.473,13.865    c0.825,2.365,1.652,4.75,2.273,7.178c0.34,1.33,0.733,2.87,0.443,4.251c-0.71,3.379-6.079,2.498-8.445,2.217    c-4.603-0.547-9.39-1.465-13.738-3.101c-2.199-0.827-4.14-1.936-5.272-4.061c-1.062-1.994-1.723-4.249-2.465-6.375    c-0.742-2.128-1.468-4.264-2.173-6.404c-0.859-2.607-1.743-5.208-2.554-7.831c-0.639-2.066-1.402-4.194-1.682-6.348    c-0.208-1.598,0.312-2.599,1.96-2.902c1.744-0.321,3.607-0.148,5.359-0.007C820.261,471.585,823.656,471.856,823.656,471.948z"/>
	</g>
	<g id="POLYLINE_3529_">
		
			<path fill="none" stroke="#F368E0" stroke-width="2.75" stroke-linecap="round" stroke-linejoin="round" stroke-miterlimit="10" d="    M794.928,509.234c6.51,0.476,13.019,0.952,19.529,1.428c9.377,0.686,18.754,1.371,28.132,2.057    c1.951,0.143,3.901,0.297,5.855,0.385c2.88,0.129,5.975,0.338,8.777-0.49c1.651-0.488,2.978-1.472,3.469-3.21    c0.632-2.238,0.364-4.665-0.04-6.916c-1.178-6.551-3.41-13.013-6.046-19.11c-2.429-5.618-5.265-11.919-10.072-15.919    c-4.726-3.932-11.02-5.547-16.974-6.457c-6.327-0.967-12.765-1.26-19.148-1.644c-6.578-0.396-13.155-0.811-19.736-1.15    c-9.283-0.478-18.566-0.956-27.849-1.434c-0.702-0.036-1.405-0.072-2.107-0.108"/>
	</g>
	<g id="POLYLINE_3528_">
		
			<path fill="none" stroke="#F368E0" stroke-width="2.75" stroke-linecap="round" stroke-linejoin="round" stroke-miterlimit="10" d="    M417.577,439.117c-0.941-4.685-1.878-9.387-2.352-14.146c-0.123-1.239-0.213-2.483-0.215-3.729"/>
	</g>
	<g id="POLYLINE_3527_">
		
			<path fill="none" stroke="#F368E0" stroke-width="2.75" stroke-linecap="round" stroke-linejoin="round" stroke-miterlimit="10" d="    M580.74,424.085c0.76,1.143,1.689,2.307,2.961,2.899c1.077,0.501,2.286,0.476,3.445,0.4c2.868-0.19,6.054-0.922,8.427-2.619    c1.672-1.196,2.718-2.956,3.146-4.954c0.61-2.849,0.02-5.797-1.03-8.468c-1.495-3.804-3.811-7.6-6.82-10.398    c-2.846-2.645-6.563-4.121-10.214-5.285c-2.988-0.953-6.486-2.092-9.666-1.657c-0.852,0.116-1.787,0.397-2.355,1.084    c-0.641,0.776-0.493,1.832-0.26,2.736c0.413,1.603,1.175,3.118,1.87,4.612c0.968,2.081,1.941,4.158,2.912,6.238    c2.018,4.324,3.914,8.743,6.152,12.96C579.751,422.468,580.217,423.295,580.74,424.085z"/>
	</g>
	<g id="POLYLINE_3526_">
		
			<path fill="none" stroke="#F368E0" stroke-width="2.75" stroke-linecap="round" stroke-linejoin="round" stroke-miterlimit="10" d="    M596.808,423.679c1.524,2.098,3.393,4.342,4.192,6.851c0.553,1.739-0.127,3.02-1.755,3.812c-2.394,1.164-5.245,1.544-7.877,1.606    c-2.08,0.048-4.343-0.084-6.241-1.022c-3.404-1.681-2.214-5.079-1.661-8.061"/>
	</g>
	<g id="POLYLINE_3525_">
		
			<path fill="none" stroke="#F368E0" stroke-width="2.75" stroke-linecap="round" stroke-linejoin="round" stroke-miterlimit="10" d="    M117.508,451.238c1.171-5.194,2.412-10.379,4.17-15.411c0.472-1.351,0.983-2.688,1.55-4.002"/>
	</g>
	<g id="POLYLINE_3524_">
		
			<path fill="none" stroke="#F368E0" stroke-width="2.75" stroke-linecap="round" stroke-linejoin="round" stroke-miterlimit="10" d="    M435.03,428.202c5.095,0.274,10.285,0.326,15.371-0.122c1.686-0.149,3.661-0.263,5.212-1.034c1.365-0.678,1.208-2.691-0.007-3.468    c-1.485-0.95-3.866-0.794-5.534-0.866c-2.643-0.113-5.29-0.105-7.935-0.072c-2.462,0.03-4.933,0.105-7.385,0.344    c-1.647,0.161-3.411,0.357-4.927,1.074c-1.249,0.59-2.534,2.036-0.888,3.026c1.226,0.738,2.886,0.842,4.259,0.978    C433.806,428.121,434.418,428.163,435.03,428.202z"/>
	</g>
	<g id="POLYLINE_3523_">
		
			<path fill="none" stroke="#F368E0" stroke-width="2.75" stroke-linecap="round" stroke-linejoin="round" stroke-miterlimit="10" d="    M657.049,421.243c-5.072,5.053-10.212,10.038-15.562,14.798c-1.574,1.4-3.169,2.775-4.766,4.147    c5.318,0.072,10.635,0.187,15.932,0.688c5.004,0.473,10.033,1.224,14.806,2.847c4.544,1.546,8.787,3.938,12.662,6.753    c3.953,2.871,7.512,6.243,10.779,9.868c3.541,3.929,6.718,8.169,9.559,12.628c2.804,4.401,5.308,8.989,7.687,13.631    c2.336,4.556,4.524,9.18,6.676,13.825c2.405,5.19,4.689,10.46,7.324,15.54c2.237,4.313,4.836,8.652,9.152,11.164    c4,2.328,8.841,2.838,13.365,3.213c5.315,0.441,10.659,0.614,15.984,0.883c4.982,0.252,9.968,0.466,14.947,0.772    c5.696,0.35,11.397,0.65,17.089,1.057c5.389,0.385,10.78,0.755,16.161,1.241c5.653,0.511,11.307,1.028,16.946,1.673    c5.213,0.596,10.409,1.332,15.566,2.298c5.199,0.974,10.362,2.153,15.479,3.49c5.219,1.364,10.401,2.865,15.509,4.601    c5.005,1.701,9.939,3.615,14.765,5.775c4.678,2.094,9.256,4.428,13.671,7.032c2.25,1.327,4.444,2.737,6.615,4.187"/>
	</g>
	<g id="POLYLINE_3522_">
		
			<path fill="none" stroke="#F368E0" stroke-width="2.75" stroke-linecap="round" stroke-linejoin="round" stroke-miterlimit="10" d="    M657.049,752.501c-5.072-5.053-10.212-10.038-15.562-14.798c-1.574-1.4-3.169-2.775-4.766-4.147    c5.318-0.072,10.635-0.187,15.932-0.688c5.004-0.473,10.033-1.224,14.806-2.847c4.544-1.546,8.787-3.938,12.662-6.753    c3.953-2.871,7.512-6.243,10.779-9.868c3.541-3.929,6.718-8.169,9.559-12.628c2.804-4.401,5.308-8.989,7.687-13.631    c2.336-4.556,4.524-9.18,6.676-13.825c2.405-5.19,4.689-10.46,7.324-15.54c2.237-4.313,4.836-8.653,9.152-11.164    c4-2.328,8.841-2.838,13.365-3.213c5.315-0.441,10.659-0.614,15.984-0.883c4.982-0.252,9.968-0.466,14.947-0.772    c5.696-0.35,11.397-0.65,17.089-1.057c5.389-0.385,10.78-0.755,16.161-1.241c5.653-0.511,11.307-1.028,16.946-1.673    c5.213-0.596,10.409-1.332,15.566-2.298c5.199-0.974,10.362-2.153,15.479-3.49c5.219-1.364,10.401-2.865,15.509-4.601    c5.005-1.701,9.939-3.615,14.765-5.775c4.678-2.094,9.256-4.428,13.671-7.032c2.25-1.327,4.444-2.737,6.615-4.187"/>
	</g>
	<g id="POLYLINE_3521_">
		
			<path fill="none" stroke="#F368E0" stroke-width="2.75" stroke-linecap="round" stroke-linejoin="round" stroke-miterlimit="10" d="    M435.03,745.542c5.095-0.274,10.285-0.326,15.371,0.123c1.686,0.149,3.661,0.263,5.212,1.034c1.365,0.678,1.208,2.691-0.007,3.468    c-1.485,0.95-3.866,0.794-5.534,0.866c-2.643,0.113-5.29,0.104-7.935,0.072c-2.462-0.03-4.933-0.105-7.385-0.344    c-1.647-0.161-3.411-0.357-4.927-1.074c-1.249-0.59-2.534-2.036-0.888-3.026c1.226-0.738,2.886-0.842,4.259-0.978    C433.806,745.622,434.418,745.581,435.03,745.542z"/>
	</g>
	<g id="POLYLINE_3520_">
		
			<path fill="none" stroke="#F368E0" stroke-width="2.75" stroke-linecap="round" stroke-linejoin="round" stroke-miterlimit="10" d="    M117.508,722.506c1.171,5.194,2.412,10.379,4.17,15.411c0.472,1.351,0.983,2.688,1.55,4.002"/>
	</g>
	<g id="POLYLINE_3519_">
		
			<path fill="none" stroke="#F368E0" stroke-width="2.75" stroke-linecap="round" stroke-linejoin="round" stroke-miterlimit="10" d="    M596.808,750.065c1.524-2.098,3.393-4.342,4.192-6.851c0.553-1.739-0.127-3.02-1.755-3.812c-2.394-1.164-5.245-1.544-7.877-1.606    c-2.08-0.048-4.343,0.084-6.241,1.022c-3.404,1.681-2.214,5.079-1.661,8.061"/>
	</g>
	<g id="POLYLINE_3518_">
		
			<path fill="none" stroke="#F368E0" stroke-width="2.75" stroke-linecap="round" stroke-linejoin="round" stroke-miterlimit="10" d="    M580.74,749.659c0.76-1.143,1.689-2.307,2.961-2.899c1.077-0.501,2.286-0.476,3.445-0.4c2.868,0.19,6.054,0.922,8.427,2.619    c1.672,1.196,2.718,2.956,3.146,4.954c0.61,2.849,0.02,5.797-1.03,8.468c-1.495,3.804-3.811,7.6-6.82,10.398    c-2.846,2.645-6.563,4.121-10.214,5.286c-2.988,0.953-6.486,2.092-9.666,1.657c-0.852-0.116-1.787-0.397-2.355-1.084    c-0.641-0.776-0.493-1.832-0.26-2.736c0.413-1.603,1.175-3.118,1.87-4.612c0.968-2.081,1.941-4.158,2.912-6.238    c2.018-4.324,3.914-8.743,6.152-12.96C579.751,751.276,580.217,750.449,580.74,749.659z"/>
	</g>
	<g id="POLYLINE_3517_">
		
			<path fill="none" stroke="#F368E0" stroke-width="2.75" stroke-linecap="round" stroke-linejoin="round" stroke-miterlimit="10" d="    M417.577,734.626c-0.941,4.685-1.878,9.387-2.352,14.146c-0.123,1.239-0.213,2.483-0.215,3.729"/>
	</g>
	<g id="POLYLINE_3516_">
		
			<path fill="none" stroke="#F368E0" stroke-width="2.75" stroke-linecap="round" stroke-linejoin="round" stroke-miterlimit="10" d="    M794.928,664.51c6.51-0.476,13.019-0.952,19.529-1.428c9.377-0.686,18.754-1.371,28.132-2.057    c1.951-0.143,3.901-0.297,5.855-0.385c2.88-0.129,5.975-0.338,8.777,0.49c1.651,0.488,2.978,1.472,3.469,3.21    c0.632,2.238,0.364,4.665-0.04,6.916c-1.178,6.551-3.41,13.013-6.046,19.11c-2.429,5.618-5.265,11.919-10.072,15.919    c-4.726,3.932-11.02,5.547-16.974,6.457c-6.327,0.968-12.765,1.26-19.148,1.644c-6.578,0.396-13.155,0.811-19.736,1.15    c-9.283,0.478-18.566,0.956-27.849,1.434c-0.702,0.036-1.405,0.072-2.107,0.109"/>
	</g>
	<g id="POLYLINE_3515_">
		
			<path fill="none" stroke="#F368E0" stroke-width="2.75" stroke-linecap="round" stroke-linejoin="round" stroke-miterlimit="10" d="    M823.656,701.796c3.964-0.497,8.476-0.866,12.002-2.919c2.411-1.404,3.892-3.76,5.099-6.21c2.19-4.447,3.842-9.191,5.473-13.865    c0.825-2.365,1.652-4.75,2.273-7.178c0.34-1.33,0.733-2.87,0.443-4.251c-0.71-3.379-6.079-2.498-8.445-2.217    c-4.603,0.547-9.39,1.465-13.738,3.101c-2.199,0.827-4.14,1.935-5.272,4.061c-1.062,1.994-1.723,4.249-2.465,6.375    c-0.742,2.128-1.468,4.264-2.173,6.404c-0.859,2.607-1.743,5.208-2.554,7.831c-0.639,2.066-1.402,4.194-1.682,6.347    c-0.208,1.598,0.312,2.599,1.96,2.902c1.744,0.321,3.607,0.148,5.359,0.007C821.179,702.085,822.418,701.941,823.656,701.796z"/>
	</g>
	<g id="POLYLINE_3514_">
		
			<path fill="none" stroke="#F368E0" stroke-width="2.75" stroke-linecap="round" stroke-linejoin="round" stroke-miterlimit="10" d="    M896.983,720.397c-2.545,0.074-5.09,0.148-7.635,0.221c-6.648,0.193-13.296,0.386-19.944,0.578    c-9.433,0.273-18.867,0.547-28.301,0.821c-10.717,0.311-21.434,0.622-32.152,0.932c-10.733,0.311-21.466,0.622-32.199,0.934    c-9.231,0.268-18.463,0.535-27.694,0.803c-6.444,0.187-12.888,0.374-19.331,0.561c-2.34,0.068-4.681,0.147-7.021,0.201    c-7.629,0.175-15.273,0.493-22.904,0.256c-6.749-0.21-13.463-0.979-19.972-2.826c-1.507-0.428-2.996-0.915-4.474-1.434"/>
	</g>
	<g id="POLYLINE_3513_">
		
			<path fill="none" stroke="#F368E0" stroke-width="2.75" stroke-linecap="round" stroke-linejoin="round" stroke-miterlimit="10" d="    M236.562,711.021c5.244-1.4,10.488-2.8,15.731-4.2c4.497-1.201,8.998-2.385,13.483-3.633c4.922-1.37,9.852-2.722,14.743-4.203    c5.031-1.524,10.037-3.085,14.975-4.894c3.064-1.122,6.609-2.233,8.812-4.794c1.864-2.166,2.427-5.129,2.731-7.885    c0.516-4.685,0.379-9.469,0.134-14.167c-0.274-5.267-0.684-10.519-1.098-15.776c-0.383-4.858-0.767-9.715-1.025-14.582    c-0.262-4.929-0.496-9.861-0.621-14.796c-0.145-5.706-0.258-11.41-0.337-17.117c-0.074-5.314-0.08-10.627-0.102-15.941    c-0.022-5.134,0.025-10.268,0.047-15.401c0.019-4.503,0.084-9.008,0.177-13.51c0.113-5.478,0.291-10.953,0.503-16.428    c0.191-4.945,0.482-9.889,0.841-14.825c0.355-4.889,0.812-9.771,1.151-14.661c0.359-5.178,0.676-10.365,0.651-15.558    c-0.018-3.843-0.043-8.102-1.543-11.709c-0.908-2.183-2.522-3.741-4.578-4.864c-2.035-1.111-4.257-1.881-6.43-2.671    c-2.352-0.856-4.717-1.67-7.101-2.436c-5.029-1.615-10.106-3.076-15.183-4.53c-3.902-1.118-7.816-2.2-11.738-3.247    c-6.607-1.764-13.215-3.528-19.822-5.293c-1.118-0.298-2.235-0.597-3.353-0.895c-0.21-0.056-0.648-0.271-0.863-0.23    c-0.306,0.058-0.031-0.149-0.258,0.21c-0.402,0.634-0.504,1.744-0.713,2.468c-0.116,0.403-0.232,0.805-0.344,1.209    c-0.335,1.211-0.677,2.42-0.999,3.635c-1.309,4.941-2.545,9.9-3.644,14.893c-1.082,4.918-2.086,9.852-2.973,14.808    c-0.886,4.949-1.704,9.911-2.405,14.89c-0.695,4.931-1.345,9.873-1.869,14.826c-0.555,5.248-1.059,10.502-1.46,15.764    c-0.404,5.312-0.695,10.631-0.963,15.952c-0.256,5.088-0.359,10.184-0.47,15.277c-0.106,4.859-0.102,9.72-0.067,14.579    c0.035,4.901,0.117,9.802,0.298,14.7c0.185,5.009,0.367,10.022,0.708,15.023c0.351,5.156,0.7,10.313,1.189,15.459    c0.497,5.224,1.068,10.441,1.719,15.648c0.64,5.118,1.396,10.224,2.228,15.314c0.817,5,1.736,9.983,2.746,14.948    c0.996,4.894,2.093,9.77,3.294,14.618C233.928,701.697,235.216,706.366,236.562,711.021z"/>
	</g>
	<g id="POLYLINE_3512_">
		
			<path fill="none" stroke="#F368E0" stroke-width="2.75" stroke-linecap="round" stroke-linejoin="round" stroke-miterlimit="10" d="    M341.773,447.008c4.735-0.835,9.474-1.637,14.231-2.338c4.796-0.706,9.605-1.327,14.42-1.892c4.513-0.529,9.034-0.983,13.56-1.39    c5.172-0.465,10.344-0.866,15.522-1.252c4.213-0.314,8.437-0.544,12.657-0.748c5.402-0.261,10.801-0.487,16.205-0.69    c3.951-0.148,7.906-0.267,11.859-0.329c5.839-0.092,11.678-0.185,17.517-0.277c3.441-0.054,6.886-0.014,10.328-0.016    c6.788-0.004,13.577-0.009,20.365-0.013c2.428-0.002,4.857-0.016,7.285,0.005c4.217,0.037,8.433,0.074,12.65,0.111    c6.831,0.06,13.663,0.12,20.494,0.18c6.692,0.059,13.383,0.117,20.075,0.176c3.804,0.033,7.608,0.067,11.413,0.1    c1.621,0.014,3.242,0.06,4.862,0.093c5.193,0.106,10.385,0.212,15.578,0.318c6.996,0.143,13.992,0.285,20.988,0.428    c6.734,0.137,13.468,0.275,20.201,0.412c4.309,0.088,8.617,0.176,12.926,0.264c0.604,0.012,1.208,0.025,1.812,0.037    c-9.509,2.597-19.017,5.194-28.526,7.792c-7.663,2.093-15.345,4.097-23.035,6.092c-8.395,2.177-16.79,4.312-25.249,6.232    c-8.41,1.909-16.88,3.545-25.408,4.829c-8.276,1.246-16.635,2.02-24.997,2.372c-9.276,0.39-18.548,0.524-27.831,0.638    c-8.26,0.101-16.528,0.002-24.788,0c-9.224-0.002-18.452,0.062-27.676-0.006c-8.519-0.063-17.072-0.178-25.573-0.781    c-8.359-0.594-16.395-2.11-24.332-4.814c-8.08-2.753-15.947-6.121-23.781-9.498c-4.375-1.886-8.732-3.806-13.086-5.741    c-3.406-1.513-6.71-2.996-10.473-3.31c-4.278-0.357-8.621-0.078-12.903,0.065c-4.379,0.146-8.755,0.386-13.13,0.629    c-9.138,0.509-18.257,1.229-27.381,1.932c-8.19,0.632-16.375,1.326-24.547,2.163c-3.3,0.338-6.934,0.553-9.875,2.255    c-2.567,1.486-4.188,4.064-5.459,6.665c-0.448,0.917-0.858,1.853-1.242,2.797c-0.155,0.38-0.307,0.762-0.456,1.144    c-0.089,0.23-0.179,0.784-0.358,0.94c-0.209,0.182-0.399,0.051-0.744-0.035c-1.903-0.477-3.83-0.858-5.774-1.122    c-3.898-0.529-7.856-0.588-11.784-0.516c-6.284,0.115-12.561,0.35-18.842,0.577c-12.044,0.433-24.089,0.867-36.133,1.3    c-10.803,0.389-21.606,0.778-32.409,1.166c-1.74,0.063-3.481,0.125-5.221,0.188"/>
	</g>
	
	
	
	
	
	
	
	
	
	
	
	
	
	
	
	
	
	
	
	
	
	
	
	
	
	
	
	
	
	
	
	
	
	
	
	
	
	
	
	
	
	
	
	
	
	
	
	
	
	
	
	
	
	
	
	
	
	
	
	
	
	
	
	
	
	
	
	
	
	
	
	
	
	
	
	
	
	
	
	
	
	
	
	
	
	
	
	
	
	
	
	
	
	
	
	
	
	
	
	
	
	
	
	
	
	
	
	
	
	
	
	
	
	
	
	
	
	
	
	
	
	
	
	
	
	
	
	
	
	
	
	
	
	
	
	
	
	
	
	
	
	
	
	
	
	
	
	
	
	
	
	
	
	
	
	
	
<g id="POLYLINE_3511_">
		
			<path fill="none" stroke="#F368E0" stroke-width="2.75" stroke-linecap="round" stroke-linejoin="round" stroke-miterlimit="10" d="    M341.773,726.736c4.735,0.835,9.474,1.638,14.231,2.338c4.796,0.706,9.605,1.327,14.42,1.892c4.513,0.529,9.034,0.983,13.56,1.39    c5.172,0.465,10.344,0.866,15.522,1.252c4.213,0.314,8.437,0.544,12.657,0.748c5.402,0.261,10.801,0.487,16.205,0.69    c3.951,0.148,7.906,0.267,11.859,0.329c5.839,0.092,11.678,0.185,17.517,0.277c3.441,0.054,6.886,0.014,10.328,0.016    c6.788,0.004,13.577,0.009,20.365,0.013c2.428,0.002,4.857,0.016,7.285-0.005c4.217-0.037,8.433-0.074,12.65-0.111    c6.831-0.06,13.663-0.12,20.494-0.18c6.692-0.059,13.383-0.117,20.075-0.176c3.804-0.033,7.608-0.067,11.413-0.1    c1.621-0.014,3.242-0.06,4.862-0.093c5.193-0.106,10.385-0.212,15.578-0.318c6.996-0.143,13.992-0.285,20.988-0.428    c6.734-0.137,13.468-0.275,20.201-0.412c4.309-0.088,8.617-0.176,12.926-0.264c0.604-0.012,1.208-0.025,1.812-0.037    c-9.509-2.597-19.017-5.194-28.526-7.792c-7.663-2.093-15.345-4.097-23.035-6.092c-8.395-2.177-16.79-4.312-25.249-6.232    c-8.41-1.909-16.88-3.545-25.408-4.829c-8.276-1.246-16.635-2.02-24.997-2.372c-9.276-0.391-18.548-0.524-27.831-0.638    c-8.26-0.101-16.528-0.002-24.788,0c-9.224,0.002-18.452-0.062-27.676,0.006c-8.519,0.063-17.072,0.178-25.573,0.781    c-8.359,0.594-16.395,2.11-24.332,4.814c-8.08,2.753-15.947,6.121-23.781,9.498c-4.375,1.886-8.732,3.806-13.086,5.741    c-3.406,1.513-6.71,2.996-10.473,3.31c-4.278,0.357-8.621,0.078-12.903-0.065c-4.379-0.146-8.755-0.386-13.13-0.629    c-9.138-0.509-18.257-1.229-27.381-1.932c-8.19-0.632-16.375-1.326-24.547-2.163c-3.3-0.338-6.934-0.553-9.875-2.255    c-2.567-1.486-4.188-4.064-5.459-6.665c-0.448-0.917-0.858-1.853-1.242-2.797c-0.155-0.38-0.307-0.762-0.456-1.144    c-0.089-0.23-0.179-0.784-0.358-0.94c-0.209-0.182-0.399-0.051-0.744,0.035c-1.903,0.477-3.83,0.858-5.774,1.122    c-3.898,0.529-7.856,0.588-11.784,0.516c-6.284-0.115-12.561-0.35-18.842-0.577c-12.044-0.433-24.089-0.867-36.133-1.3    c-10.803-0.389-21.606-0.778-32.409-1.166c-1.74-0.063-3.481-0.125-5.221-0.188"/>
	</g><g id="POLYLINE_3510_">
		
			<path fill="none" stroke="#F368E0" stroke-width="2.75" stroke-linecap="round" stroke-linejoin="round" stroke-miterlimit="10" d="    M226.705,586.872c0.054,8.952,0.223,17.892,0.614,26.837c0.372,8.516,0.972,17.029,1.813,25.512    c0.865,8.723,1.917,17.428,3.316,26.082c1.4,8.658,3.025,17.274,5.012,25.817c0.375,1.612,0.496,3.739,1.916,4.839    c0.979,0.758,2.124,0.804,3.273,0.499c5.194-1.38,10.376-2.81,15.564-4.215c8.123-2.2,16.237-4.437,24.27-6.952    c1.887-0.591,3.768-1.207,5.633-1.864c1.625-0.573,3.7-0.992,5.128-1.982c1.111-0.77,1.405-1.898,1.484-3.171    c0.121-1.961,0.121-3.93,0.08-5.894c-0.182-8.671-1.072-17.301-1.694-25.946c-0.653-9.062-1.077-18.132-1.307-27.215    c-0.226-8.936-0.29-17.875-0.332-26.814c-0.038-8.044-0.047-16.092,0.092-24.135c0.164-9.444,0.339-18.881,0.763-28.318    c0.381-8.482,1.178-16.932,1.784-25.399c0.322-4.503,0.619-9.003,0.702-13.517c0.037-2.001,0.049-4.021-0.118-6.016    c-0.098-1.168-0.59-2.204-1.627-2.833c-1.591-0.964-3.724-1.447-5.473-2.052c-1.806-0.625-3.624-1.222-5.451-1.784    c-4.223-1.298-8.457-2.557-12.708-3.76c-8.958-2.535-17.939-5.074-26.965-7.352c-1.2-0.303-2.427-0.111-3.351,0.765    c-1.221,1.157-1.339,3.227-1.694,4.765c-1.013,4.382-1.923,8.781-2.788,13.195c-1.703,8.689-3.005,17.446-4.141,26.225    c-1.11,8.577-1.876,17.198-2.485,25.824c-0.599,8.482-1,16.987-1.154,25.489C226.777,577.958,226.732,582.413,226.705,586.872z"/>
	</g><g id="POLYLINE_3509_">
		
			<path fill="none" stroke="#F368E0" stroke-width="2.75" stroke-linecap="round" stroke-linejoin="round" stroke-miterlimit="10" d="    M417.577,734.626c1.461-7.604,2.958-15.221,5.084-22.673c0.604-2.118,1.259-4.22,2.005-6.293"/>
	</g><g id="POLYLINE_3508_">
		
			<path fill="none" stroke="#F368E0" stroke-width="2.75" stroke-linecap="round" stroke-linejoin="round" stroke-miterlimit="10" d="    M402.702,728.895c2.61-0.279,4.685-1.265,5.947-3.655c0.992-1.88,1.688-3.939,2.271-5.978c0.409-1.431,0.834-2.939,0.869-4.438    c0.026-1.148-0.294-2.221-1.438-2.689c-1.11-0.454-2.434-0.447-3.605-0.469c-4.135-0.075-8.305,0.375-12.38,1.047    c-4.228,0.697-8.41,1.703-12.506,2.958c-4.259,1.305-8.462,2.807-12.574,4.518c-0.786,0.327-8.566,3.395-7.093,4.804    c0.889,0.85,3.066,0.833,4.155,0.96c1.54,0.18,3.084,0.33,4.626,0.49c6.018,0.623,12.037,1.246,18.055,1.87    c3.657,0.379,7.338,0.736,11.018,0.711C400.933,729.019,401.82,728.988,402.702,728.895z"/>
	</g><g id="POLYLINE_3507_">
		
			<path fill="none" stroke="#F368E0" stroke-width="2.75" stroke-linecap="round" stroke-linejoin="round" stroke-miterlimit="10" d="    M402.702,444.849c2.61,0.279,4.685,1.265,5.947,3.655c0.992,1.88,1.688,3.939,2.271,5.978c0.409,1.431,0.834,2.939,0.869,4.438    c0.026,1.148-0.294,2.221-1.438,2.689c-1.11,0.454-2.434,0.447-3.605,0.469c-4.135,0.075-8.305-0.375-12.38-1.047    c-4.228-0.697-8.41-1.703-12.506-2.958c-4.259-1.305-8.462-2.807-12.574-4.518c-0.786-0.327-8.566-3.395-7.093-4.804    c0.889-0.85,3.066-0.833,4.155-0.96c1.54-0.18,3.084-0.33,4.626-0.49c6.018-0.623,12.037-1.246,18.055-1.87    c3.657-0.379,7.338-0.736,11.018-0.711C400.293,444.721,402.702,444.76,402.702,444.849z"/>
	</g><g id="POLYLINE_3506_">
		
			<path fill="none" stroke="#F368E0" stroke-width="2.75" stroke-linecap="round" stroke-linejoin="round" stroke-miterlimit="10" d="    M417.577,439.117c1.461,7.604,2.958,15.222,5.084,22.673c0.604,2.118,1.259,4.22,2.005,6.293"/>
	</g></g>
</svg>