<?xml version="1.0" encoding="utf-8"?>
<svg width="959px" height="452px" viewBox="0 0 959 452" version="1.1" xmlns:xlink="http://www.w3.org/1999/xlink" xmlns="http://www.w3.org/2000/svg">
  <defs>
    <rect width="959" height="452" id="artboard_1" />
    <clipPath id="clip_1">
      <use xlink:href="#artboard_1" clip-rule="evenodd" />
    </clipPath>
  </defs>
  <g id="Artboard-4" clip-path="url(#clip_1)">
    <use xlink:href="#artboard_1" stroke="none" fill="#FFFFFF" />
    <path d="M0.00384521 331.219C4.25385 331.193 8.50385 331.168 12.7538 331.142C22.6998 331.082 32.6459 331.022 42.5928 330.962C54.0288 330.893 65.4658 330.824 76.9019 330.755C85.6218 330.702 94.3428 330.65 103.063 330.597C105.896 330.58 108.728 330.578 111.56 330.52C120.042 330.345 128.525 330.169 137.007 329.994C147.903 329.769 158.8 329.544 169.696 329.319C174.287 329.224 178.878 329.154 183.467 329.003C192.616 328.702 201.767 328.426 210.915 328.1C218.937 327.814 226.957 327.394 234.976 327.04C241.794 326.739 248.62 326.315 255.425 325.794C263.467 325.179 271.49 324.425 279.494 323.432C283.281 322.963 287.063 322.426 290.841 321.89C294.02 321.44 297.206 320.874 300.257 319.852C306.295 317.831 311.255 313.925 315.157 308.938C319.661 303.181 322.856 296.433 325.477 289.646C328.198 282.6 330.251 275.313 331.97 267.965C333.723 260.473 335.022 252.888 336.154 245.281C337.269 237.785 338.062 230.238 338.729 222.69C339.416 214.918 339.878 207.131 340.249 199.339C340.587 192.243 340.81 185.125 340.867 178.021C340.935 169.508 340.929 161.005 340.861 152.491C340.803 145.2 340.535 137.896 340.188 130.613C339.817 122.817 339.303 115.032 338.616 107.257C337.952 99.749 337.093 92.253 335.983 84.797C334.859 77.24 333.517 69.706 331.734 62.275C329.965 54.901 327.868 47.603 325.074 40.546C322.413 33.823 319.144 27.142 314.544 21.517C310.557 16.641 305.497 12.967 299.454 11.111C296.155 10.098 292.743 9.60803 289.337 9.11902C285.749 8.604 282.155 8.11102 278.557 7.67401C270.773 6.729 262.971 5.98102 255.15 5.40402C248.193 4.89102 241.224 4.45602 234.255 4.14801C226.358 3.79901 218.46 3.36801 210.559 3.108C201.272 2.802 191.985 2.49701 182.698 2.19101C178.008 2.03702 173.315 1.97501 168.624 1.87802C157.664 1.65201 146.703 1.42502 135.743 1.19904C127.541 1.03003 119.34 0.860046 111.138 0.69104C108.202 0.630035 105.265 0.636047 102.328 0.618042C93.418 0.564056 84.5079 0.51004 75.598 0.457031C64.14 0.388031 52.683 0.319031 41.225 0.249023C31.426 0.190033 21.627 0.131012 11.828 0.0710144C7.88501 0.0470276 3.94299 0.0230103 0 0" transform="translate(562.0851 58.425537)" id="Shape" fill="#A20202" fill-rule="evenodd" stroke="#000000" stroke-width="2.75" stroke-linecap="round" stroke-linejoin="round" />
    <path d="M537.995 0C537.028 0.00100708 536.062 0.00100708 535.094 0.00201416C532.34 0.00402832 529.587 0.00601196 526.833 0.00802612C522.558 0.0110168 518.282 0.0140381 514.007 0.0170288C508.419 0.0210266 502.829 0.0250244 497.241 0.0290222C490.628 0.0340271 484.016 0.0380249 477.404 0.0430298C469.988 0.0480347 462.572 0.0530396 455.157 0.0580444C447.145 0.0640564 439.133 0.0690308 431.122 0.0750427C422.824 0.0810547 414.528 0.0870361 406.23 0.092041C397.82 0.098053 389.41 0.104034 381.002 0.110046C372.794 0.116058 364.585 0.121033 356.377 0.127045C348.577 0.13205 340.776 0.138031 332.976 0.143036C325.825 0.148041 318.674 0.153046 311.523 0.158051C305.239 0.162048 298.955 0.167053 292.671 0.171051C287.549 0.175049 282.427 0.17804 277.306 0.182037C273.548 0.185028 269.789 0.187042 266.031 0.190033C263.91 0.19104 261.789 0.193024 259.668 0.194031C258.37 0.195038 257.073 0.213043 255.774 0.230042C248.32 0.32605 240.866 0.421051 233.412 0.517029C229.292 0.570038 225.168 0.581024 221.05 0.683014C214.488 0.846008 207.924 1.00803 201.362 1.17102C195.797 1.30902 190.229 1.40802 184.665 1.58502C179.686 1.74301 174.709 1.97601 169.732 2.17102C162.686 2.44803 155.641 2.72501 148.595 3.00101C143.614 3.19702 138.637 3.491 133.659 3.745C128.312 4.01801 122.969 4.341 117.625 4.66299C112.129 4.99298 106.64 5.366 101.148 5.754C95.5105 6.15201 89.8826 6.60199 84.2505 7.07401C78.9822 7.51501 73.7202 7.98801 68.4636 8.54501C62.9509 9.13 57.4372 9.74402 51.9555 10.546C46.5186 11.342 41.0892 12.235 35.7536 13.509C30.897 14.669 25.8899 16.087 21.6424 18.651C18.0413 20.824 15.7127 23.903 13.9558 27.518C11.8449 31.863 10.7835 36.608 9.89923 41.286C8.90401 46.549 8.152 51.848 7.41278 57.147C6.7333 62.011 6.10609 66.881 5.53541 71.757C4.86126 77.512 4.25112 83.269 3.6591 89.032C3.1791 93.7 2.78122 98.383 2.42282 103.06C2.02387 108.277 1.65054 113.5 1.35933 118.723C1.06705 123.971 0.792919 129.22 0.601981 134.473C0.414241 139.638 0.238237 144.804 0.156107 149.971C0.0718357 155.227 -0.00603039 160.483 0.000366218 165.74C0.00676282 171.316 0.0857031 176.89 0.175304 182.466C0.259575 187.729 0.464381 192.99 0.656377 198.25C0.845182 203.443 1.14279 208.633 1.43292 213.822C1.70279 218.665 2.05267 223.512 2.43668 228.348C2.83882 233.421 3.27723 238.495 3.79777 243.558C4.39618 249.383 5.03299 255.198 5.7146 261.015C6.29488 265.967 6.96796 270.911 7.65811 275.851C8.35145 280.814 9.05333 285.789 10.0464 290.709C11.0054 295.457 12.1083 300.232 14.3942 304.598C16.3047 308.248 18.8658 311.122 22.6472 313.175C26.9897 315.532 31.9508 316.888 36.8011 317.987C42.0172 319.169 47.3111 320.07 52.619 320.802C58.4495 321.606 64.296 322.266 70.1521 322.887C75.4738 323.451 80.8072 323.891 86.1407 324.337C91.7771 324.809 97.4113 325.235 103.054 325.633C108.541 326.021 114.027 326.373 119.518 326.704C124.83 327.023 130.139 327.328 135.455 327.6C140.146 327.84 144.835 328.105 149.529 328.289C156.883 328.578 164.238 328.867 171.593 329.156C176.03 329.33 180.469 329.55 184.908 329.675C191.066 329.849 197.227 329.98 203.386 330.133C209.421 330.283 215.457 330.454 221.494 330.582C226.076 330.679 230.662 330.702 235.245 330.761C242.412 330.853 249.58 330.945 256.747 331.037C257.821 331.051 258.894 331.06 259.969 331.06C262.222 331.062 264.475 331.063 266.728 331.065C270.6 331.068 274.473 331.07 278.345 331.073C283.561 331.077 288.778 331.08 293.994 331.084C300.355 331.088 306.717 331.093 313.077 331.097C320.286 331.102 327.496 331.107 334.704 331.112C342.545 331.117 350.385 331.123 358.225 331.128C366.49 331.134 374.754 331.14 383.019 331.145C391.396 331.151 399.772 331.157 408.15 331.162C416.432 331.168 424.714 331.173 432.995 331.179C440.973 331.185 448.95 331.19 456.928 331.196C464.291 331.201 471.653 331.206 479.016 331.211C485.557 331.216 492.099 331.22 498.64 331.225C504.139 331.229 509.638 331.233 515.137 331.236C519.304 331.239 523.471 331.242 527.638 331.245C530.264 331.247 532.892 331.249 535.518 331.25C536.346 331.251 537.172 331.251 538 331.252" transform="translate(38.5437 58.409546)" id="Shape" fill="#A20202" fill-rule="evenodd" stroke="#000000" stroke-width="2.75" stroke-linecap="round" stroke-linejoin="round" />
    <path d="M29.0631 135.869C29.1471 130.499 29.2301 125.13 29.3141 119.76C29.3781 115.623 29.4131 111.484 29.5231 107.348C29.6941 100.897 29.8661 94.446 30.0371 87.994C30.1651 83.164 30.4031 78.336 30.5951 73.509C30.7731 69.036 30.9671 64.564 31.2381 60.096C31.5671 54.668 31.9331 49.246 32.3691 43.825C32.7271 39.381 33.1421 34.925 33.7221 30.503C34.4291 25.115 35.1771 19.731 35.8351 14.337C36.1291 11.928 36.4471 9.51001 36.5511 7.08301C36.6171 5.535 36.6761 3.875 36.2831 2.36002C35.4821 -0.727997 31.7621 0.0640259 29.3451 0.163025C25.8861 0.305023 21.9901 0.308014 18.8941 2.07004C15.9541 3.74304 14.0091 6.82004 12.6321 9.81802C10.7041 14.016 9.60312 18.579 8.67012 23.086C7.66912 27.922 6.89112 32.806 6.19512 37.695C5.51912 42.444 4.89912 47.201 4.36913 51.969C3.74013 57.637 3.16113 63.303 2.62012 68.98C2.16013 73.801 1.77612 78.63 1.44813 83.462C1.12513 88.217 0.865128 92.98 0.672127 97.742C0.450127 103.233 0.308128 108.725 0.178123 114.219C0.0701218 118.767 0.0361252 123.319 0.0161209 127.868C-0.00788116 133.49 -0.00387573 139.11 0.0201187 144.732C0.0391159 149.178 0.0831223 153.627 0.191116 158.072C0.322113 163.432 0.450119 168.791 0.677116 174.148C0.882118 178.988 1.12511 183.835 1.47712 188.667C1.84212 193.688 2.23412 198.705 2.71212 203.717C3.25012 209.358 3.83912 214.986 4.46412 220.617C4.99712 225.412 5.64812 230.193 6.32812 234.969C7.00011 239.691 7.77312 244.413 8.76012 249.08C9.72511 253.638 10.8571 258.264 12.8951 262.477C14.2821 265.343 16.2361 268.247 19.1121 269.787C22.3821 271.538 26.4651 271.457 30.0721 271.601C32.4901 271.697 35.6171 272.237 36.3181 269.227C36.6971 267.6 36.6191 265.829 36.5261 264.174C36.3861 261.693 36.0611 259.221 35.7561 256.756C35.1031 251.483 34.3501 246.223 33.6851 240.952C33.1071 236.378 32.6801 231.779 32.3101 227.184C31.8791 221.831 31.5221 216.474 31.2051 211.112C30.9371 206.575 30.7461 202.035 30.5651 197.494C30.3761 192.761 30.1501 188.029 30.0241 183.294C29.8531 176.86 29.6821 170.427 29.5111 163.993C29.3981 159.726 29.3661 155.456 29.3001 151.188C29.2221 146.086 29.0631 140.975 29.0631 135.869L29.0631 135.869Z" transform="translate(53.52295 88.16565)" id="Shape" fill="none" fill-rule="evenodd" stroke="#000000" stroke-width="2.75" stroke-linecap="round" stroke-linejoin="round" />
    <path d="M116.56 127.74C116.516 121.767 116.444 115.8 116.305 109.829C116.179 104.439 115.913 99.0514 115.555 93.6714C115.181 88.0393 114.649 82.4223 113.932 76.8233C113.238 71.4084 112.304 66.0074 111.005 60.7033C109.713 55.4233 107.984 50.2833 105.848 45.2863C103.691 40.2404 101.378 35.2413 98.8822 30.3543C96.3742 25.4433 93.6452 20.6364 90.4152 16.1593C87.3892 11.9643 83.9362 7.90433 79.7952 4.76633C76.0762 1.94833 71.9882 0.634338 67.3662 0.251312C62.0042 -0.192688 56.5582 -0.0346985 51.2202 0.61731C45.7732 1.28329 40.4402 2.6153 35.1832 4.16132C29.6412 5.79031 24.1223 7.51032 18.6412 9.33133C16.0372 10.1963 13.4423 11.0973 10.8812 12.0843C8.70123 12.9243 6.47821 13.8183 4.53821 15.1403C2.62122 16.4463 1.26221 18.1863 0.645203 20.4293C-0.651794 25.1493 0.334229 30.5323 0.928223 35.2883C1.63824 40.9743 2.5542 46.6373 3.38922 52.3053C4.18823 57.7353 5.07623 63.1613 5.72119 68.6123C6.38318 74.2093 6.88519 79.8213 7.24121 85.4463C7.57519 90.7183 7.8382 96.0043 7.96021 101.286C8.09619 107.214 8.23022 113.137 8.27118 119.065C8.31317 125.143 8.30719 131.213 8.2652 137.291C8.22522 143.063 8.09222 148.831 7.95019 154.602C7.8222 159.798 7.56818 165.001 7.23022 170.188C6.85522 175.96 6.35321 181.722 5.65021 187.463C4.97021 193.011 4.07123 198.535 3.2572 204.064C2.44519 209.581 1.54218 215.094 0.874206 220.631C0.305237 225.355 -0.706787 230.773 0.754211 235.43C1.45123 237.653 2.93323 239.318 4.88019 240.569C6.84521 241.831 9.05719 242.708 11.2322 243.532C13.9492 244.562 16.6972 245.504 19.4552 246.421C24.7072 248.166 30.0012 249.81 35.3142 251.36C40.6592 252.92 46.0742 254.264 51.6132 254.912C56.9782 255.54 62.4652 255.687 67.8482 255.188C72.4842 254.758 76.5222 253.286 80.1982 250.404C84.2652 247.216 87.6792 243.171 90.6612 238.975C93.9052 234.411 96.6642 229.531 99.1832 224.536C101.674 219.597 104.014 214.56 106.16 209.461C108.224 204.557 109.868 199.504 111.112 194.331C112.422 188.885 113.33 183.352 114.042 177.799C114.759 172.202 115.238 166.579 115.612 160.949C115.967 155.608 116.197 150.256 116.322 144.904C116.456 139.182 116.518 133.464 116.56 127.74L116.56 127.74Z" transform="translate(542.2218 96.29419)" id="Shape" fill="none" fill-rule="evenodd" stroke="#000000" stroke-width="2.75" stroke-linecap="round" stroke-linejoin="round" />
    <path d="M0 277.937C3.909 275.073 7.59497 271.927 10.941 268.417C14.095 265.109 16.941 261.519 19.488 257.724C22.205 253.677 24.573 249.404 26.718 245.03C28.936 240.508 30.913 235.87 32.817 231.208C34.6249 226.779 36.222 222.258 37.5359 217.657C38.9349 212.757 40.0229 207.788 40.9249 202.773C41.8269 197.758 42.4599 192.695 42.9989 187.629C43.5309 182.635 43.8949 177.622 44.1939 172.609C44.4699 167.997 44.6839 163.373 44.7849 158.753C44.9079 153.154 44.9999 147.561 45.0379 141.961C45.0699 137.341 45.0639 132.716 44.9799 128.097C44.8859 122.912 44.7749 117.727 44.5499 112.546C44.333 107.54 44.0649 102.534 43.6599 97.5391C43.2389 92.3511 42.6969 87.1791 41.9969 82.0221C41.3419 77.1961 40.5129 72.3761 39.4179 67.63C38.2909 62.746 36.9479 57.919 35.2709 53.193C33.6209 48.542 31.7409 43.972 29.7449 39.459C27.718 34.876 25.5529 30.362 23.072 26.006C20.813 22.041 18.275 18.229 15.428 14.661C12.4109 10.88 9.03796 7.384 5.36798 4.23401C3.63696 2.74802 1.83997 1.34802 0 0" transform="translate(628.313 85.066284)" id="Shape" fill="none" fill-rule="evenodd" stroke="#000000" stroke-width="2.75" stroke-linecap="round" stroke-linejoin="round" />
    <path d="M0 69.9971C1.19501 68.5231 1.86999 66.6761 2.46197 64.8961C3.216 62.6281 3.80298 60.3071 4.237 57.957C5.10797 53.234 5.46997 48.42 5.66199 43.626C5.862 38.627 5.89496 33.608 5.73596 28.608C5.57599 23.574 5.29797 18.528 4.49799 13.549C4.14099 11.331 3.672 9.13202 3.04297 6.974C2.43695 4.89398 1.784 2.72198 0.623962 0.874023C0.43396 0.571045 0.22699 0.278015 0.00195313 0" transform="translate(827.45496 189.03552)" id="Shape" fill="none" fill-rule="evenodd" stroke="#000000" stroke-width="2.75" stroke-linecap="round" stroke-linejoin="round" />
    <path d="M12.6693 37.8668C12.6313 31.7068 12.5003 25.5367 11.7623 19.4147C11.4124 16.5087 10.9174 13.6147 10.1544 10.7867C9.52038 8.43573 8.81738 5.95075 7.54034 3.85571C6.72137 2.51373 3.08832 -1.48828 1.37933 0.584717C0.917358 1.14569 0.766357 1.98975 0.638306 2.68573C0.392334 4.02173 0.307312 5.38873 0.237305 6.74274C0.115295 9.10474 0.0822754 11.4697 0.0753174 13.8337C0.0513306 21.6467 0.0283203 29.4597 0.0043335 37.2728C-0.015686 43.7148 0.0393066 50.1588 0.0593262 56.6008C0.0673218 59.1537 0.0383301 61.7098 0.0923462 64.2618C0.154358 67.1938 0.102356 70.2178 0.649353 73.1108C0.944336 74.6678 1.58038 76.1078 3.40533 75.4718C4.63434 75.0428 5.7373 74.1208 6.59033 73.1668C7.65332 71.9778 8.31635 70.4998 8.86932 69.0198C9.87231 66.3378 10.5863 63.5399 11.1033 60.7258C12.2103 54.6948 12.5084 48.5219 12.6253 42.4028C12.6523 40.8907 12.6603 39.3787 12.6693 37.8668L12.6693 37.8668Z" transform="translate(826.84973 186.16785)" id="Shape" fill="none" fill-rule="evenodd" stroke="#000000" stroke-width="2.75" stroke-linecap="round" stroke-linejoin="round" />
    <path d="M156.232 139.712C156.195 133.29 156.098 126.871 155.781 120.457C155.455 113.863 154.928 107.286 154.213 100.723C153.533 94.4857 152.608 88.2596 151.407 82.1017C150.145 75.6247 148.582 69.2237 146.684 62.9037C144.877 56.8867 142.671 50.9827 140.17 45.2207C137.638 39.3867 134.848 33.6427 131.729 28.0987C128.685 22.6867 125.286 17.4047 121.153 12.7527C117.51 8.65265 113.209 4.89667 108.147 2.67065C102.709 0.278656 96.5172 -0.222351 90.6422 0.0786438C84.4652 0.39563 78.4242 1.74564 72.4532 3.28464C67.0362 4.68063 61.6552 6.24265 56.2842 7.80463C48.4442 10.0856 40.6042 12.3676 32.7642 14.6486C27.1282 16.2886 21.4822 17.8896 15.8892 19.6706C12.9601 20.6036 10.0281 21.5646 7.19818 22.7706C5.25317 23.5996 3.19116 24.5446 1.68317 26.0716C-0.675842 28.4596 -0.0968628 31.6536 0.679138 34.6216C2.28412 40.7566 4.33014 46.7636 5.83716 52.9286C7.34015 59.0796 8.62415 65.2916 9.62616 71.5446C10.6631 78.0186 11.5782 84.5046 12.2151 91.0306C12.8442 97.4746 13.3101 103.933 13.6102 110.4C13.9001 116.655 14.1232 122.922 14.1702 129.183C14.2242 136.394 14.2411 143.599 14.1661 150.81C14.0991 157.19 13.8632 163.572 13.5681 169.945C13.2701 176.372 12.7831 182.793 12.1381 189.194C11.4851 195.665 10.5841 202.107 9.52411 208.522C8.48309 214.822 7.19311 221.087 5.64508 227.282C4.10809 233.432 1.98706 239.427 0.483093 245.58C-0.215881 248.44 -0.427917 251.344 1.85712 253.518C3.50909 255.09 5.72314 256.048 7.8031 256.902C10.7751 258.122 13.8411 259.097 16.8991 260.071C22.4541 261.84 28.0741 263.407 33.6711 265.036C41.3201 267.262 48.9691 269.488 56.6181 271.713C62.2531 273.353 67.9031 274.964 73.5871 276.428C79.3741 277.919 85.2731 279.126 91.2581 279.37C97.1201 279.609 103.276 279.02 108.65 276.523C113.725 274.165 118.028 270.293 121.658 266.092C125.703 261.41 129.048 256.148 132.049 250.751C135.101 245.26 137.865 239.587 140.339 233.812C142.906 227.82 145.136 221.704 147.003 215.458C148.813 209.406 150.277 203.249 151.463 197.045C152.688 190.634 153.618 184.17 154.325 177.683C155.009 171.407 155.492 165.107 155.79 158.8C156.09 152.441 156.195 146.079 156.232 139.712L156.232 139.712Z" transform="translate(526.5388 84.322876)" id="Shape" fill="none" fill-rule="evenodd" stroke="#000000" stroke-width="2.75" stroke-linecap="round" stroke-linejoin="round" />
    <path d="M0.000976563 0C2.06598 4.431 3.909 8.95001 5.48395 13.579C7.12293 18.396 8.51593 23.295 9.74292 28.233C11.0559 33.517 12.1729 38.84 13.2549 44.175C14.2579 49.119 15.179 54.078 16.0759 59.042C16.9789 64.043 17.869 69.048 18.632 74.073C19.437 79.376 20.189 84.686 20.8259 90.011C21.4379 95.126 21.955 100.252 22.3959 105.384C22.8669 110.853 23.2289 116.326 23.5499 121.805C23.8589 127.068 24.0239 132.339 24.192 137.608C24.355 142.721 24.397 147.838 24.428 152.954C24.458 157.839 24.442 162.724 24.35 167.608C24.251 172.841 24.147 178.074 23.9109 183.303C23.6689 188.661 23.4059 194.017 23.0189 199.367C22.6209 204.874 22.1339 210.368 21.5859 215.862C21.098 220.756 20.4869 225.642 19.812 230.514C19.098 235.667 18.3129 240.809 17.441 245.938C16.567 251.074 15.63 256.199 14.657 261.317C13.651 266.612 12.607 271.9 11.453 277.165C10.363 282.138 9.14301 287.091 7.72302 291.981C6.32202 296.806 4.71704 301.566 2.836 306.226C1.95502 308.411 0.994019 310.56 0 312.695" transform="translate(852.4591 67.68652)" id="Shape" fill="none" fill-rule="evenodd" stroke="#000000" stroke-width="2.75" stroke-linecap="round" stroke-linejoin="round" />
    <path d="M0.0010376 300.701C1.51105 296.112 2.98706 291.513 4.31702 286.868C5.69202 282.065 7.01001 277.245 8.22803 272.399C9.49201 267.37 10.692 262.325 11.822 257.264C12.962 252.156 14.002 247.027 15.045 241.899C15.928 237.558 16.7291 233.195 17.486 228.831C18.448 223.287 19.367 217.742 20.247 212.185C20.928 207.886 21.563 203.575 22.116 199.258C22.827 193.704 23.5 188.154 24.121 182.589C24.648 177.867 25.066 173.13 25.418 168.392C25.7841 163.475 26.041 158.55 26.15 153.621C26.252 148.957 26.137 144.279 25.877 139.621C25.588 134.442 25.207 129.273 24.729 124.108C24.297 119.441 23.793 114.774 23.226 110.122C22.584 104.85 21.864 99.591 21.11 94.335C20.43 89.596 19.705 84.862 18.919 80.139C18.105 75.247 17.234 70.3651 16.314 65.492C15.301 60.131 14.22 54.789 13.123 49.445C12.1821 44.861 11.126 40.299 10.045 35.746C8.90802 30.955 7.71405 26.178 6.42804 21.425C5.12201 16.601 3.75702 11.794 2.26703 7.02301C1.53302 4.67401 0.769043 2.33701 0 0" transform="translate(870.05383 73.68457)" id="Shape" fill="none" fill-rule="evenodd" stroke="#000000" stroke-width="2.75" stroke-linecap="round" stroke-linejoin="round" />
    <path d="M24.4953 11.9881C24.3523 8.47714 24.1753 3.92413 21.7083 1.13614C20.5283 -0.197876 19.1213 -0.402863 17.7693 0.765137C16.2203 2.10413 14.9703 3.93414 13.8713 5.64413C11.1063 9.95114 9.82034 14.7831 8.88134 19.7651C7.88834 25.0361 7.13234 30.3701 6.43334 35.6871C5.61834 41.8901 4.90034 48.0991 4.20734 54.3161C3.63335 59.4681 3.12834 64.6361 2.70035 69.8021C2.21335 75.6751 1.76935 81.5501 1.41735 87.4331C1.07735 93.1171 0.818352 98.8041 0.614349 104.494C0.425346 109.784 0.263351 115.078 0.189346 120.371C0.100349 126.731 0.0383453 133.087 0.0113449 139.448C-0.0116577 144.679 -0.000656128 149.912 0.0533447 155.143C0.115341 161.211 0.233345 167.276 0.382347 173.342C0.51535 178.785 0.720344 184.225 0.980347 189.664C1.26134 195.546 1.62534 201.421 2.04535 207.295C2.45535 213.024 3.00335 218.74 3.54735 224.458C4.04835 229.719 4.59935 234.979 5.23935 240.225C5.95935 246.122 6.73435 252.012 7.61135 257.888C8.38835 263.094 9.10635 268.475 10.8444 273.465C11.6273 275.713 12.6904 277.856 13.9904 279.85C15.0754 281.513 16.3024 283.317 17.8354 284.604C20.8274 287.117 22.9644 282.582 23.6024 280.219C24.2084 277.973 24.4004 275.641 24.4954 273.325" transform="translate(44.419678 81.37842)" id="Shape" fill="none" fill-rule="evenodd" stroke="#000000" stroke-width="2.75" stroke-linecap="round" stroke-linejoin="round" />
    <path d="M221.627 5.39163C219.082 5.31763 216.537 5.24362 213.992 5.17062C207.344 4.97763 200.696 4.78464 194.048 4.59262C184.615 4.31863 175.181 4.04562 165.747 3.77161C155.03 3.4606 144.313 3.1496 133.595 2.8396C122.862 2.52859 112.129 2.21759 101.396 1.90561C92.1649 1.6376 82.9329 1.37061 73.702 1.1026C67.258 0.915588 60.814 0.728607 54.371 0.541595C52.0309 0.473602 49.6899 0.394592 47.35 0.340607C39.7209 0.165619 32.077 -0.152405 24.446 0.0845947C17.697 0.294586 10.983 1.0636 4.474 2.90961C2.96698 3.33762 1.47803 3.82462 0 4.3436" transform="translate(639.155 85.11792)" id="Shape" fill="none" fill-rule="evenodd" stroke="#000000" stroke-width="2.75" stroke-linecap="round" stroke-linejoin="round" />
    <path d="M11.0824 0.563995C15.0464 1.061 19.5584 1.42999 23.0844 3.483C25.4954 4.88699 26.9764 7.24301 28.1834 9.69299C30.3734 14.14 32.0254 18.884 33.6564 23.558C34.4814 25.923 35.3084 28.308 35.9294 30.736C36.2695 32.066 36.6624 33.606 36.3724 34.987C35.6624 38.366 30.2935 37.485 27.9274 37.204C23.3244 36.657 18.5374 35.739 14.1895 34.103C11.9905 33.276 10.0494 32.167 8.91748 30.042C7.85547 28.048 7.19446 25.793 6.45245 23.667C5.71045 21.539 4.98444 19.403 4.27948 17.263C3.42047 14.656 2.5365 12.055 1.72546 9.43201C1.08649 7.366 0.323486 5.23801 0.043457 3.08402C-0.164551 1.48602 0.355469 0.485016 2.00348 0.182007C3.7475 -0.139008 5.61047 0.0339966 7.36249 0.175018C7.68738 0.200989 11.0824 0.471985 11.0824 0.563995L11.0824 0.563995Z" transform="translate(776.3727 108.54651)" id="Shape" fill="none" fill-rule="evenodd" stroke="#000000" stroke-width="2.75" stroke-linecap="round" stroke-linejoin="round" />
    <path d="M36.2101 52.568C42.7201 53.044 49.2291 53.52 55.7391 53.996C65.1161 54.682 74.4931 55.367 83.8711 56.0529C85.8221 56.196 87.7721 56.3499 89.7261 56.438C92.6061 56.567 95.7011 56.776 98.5031 55.948C100.154 55.46 101.481 54.476 101.972 52.738C102.604 50.5 102.336 48.073 101.932 45.822C100.754 39.271 98.5221 32.809 95.8861 26.712C93.457 21.094 90.621 14.793 85.814 10.793C81.088 6.86099 74.794 5.246 68.84 4.336C62.513 3.36899 56.075 3.07599 49.692 2.69199C43.114 2.29599 36.537 1.88098 29.956 1.54199C20.673 1.064 11.39 0.585999 2.10699 0.108002C1.40497 0.071991 0.701965 0.0360107 0 0" transform="translate(722.51697 93.82861)" id="Shape" fill="none" fill-rule="evenodd" stroke="#000000" stroke-width="2.75" stroke-linecap="round" stroke-linejoin="round" />
    <path d="M2.56699 17.875C1.62598 13.19 0.688995 8.48801 0.214996 3.729C0.0920105 2.48999 0.00198364 1.246 0 0" transform="translate(378.80896 58.40454)" id="Shape" fill="none" fill-rule="evenodd" stroke="#000000" stroke-width="2.75" stroke-linecap="round" stroke-linejoin="round" />
    <path d="M12.5651 30.1775C13.3251 31.3205 14.2542 32.4845 15.5261 33.0765C16.6031 33.5775 17.8121 33.5525 18.9711 33.4765C21.8391 33.2865 25.0251 32.5545 27.3981 30.8575C29.0701 29.6615 30.1161 27.9015 30.5441 25.9035C31.1541 23.0545 30.5641 20.1065 29.5141 17.4355C28.0191 13.6315 25.7031 9.83548 22.6941 7.03748C19.8481 4.39249 16.1311 2.91647 12.4801 1.75247C9.49213 0.799469 5.99408 -0.339539 2.81409 0.095459C1.9621 0.211456 1.0271 0.492462 0.459106 1.17947C-0.181885 1.95547 -0.0338745 3.01147 0.199097 3.91547C0.612122 5.51846 1.37408 7.03348 2.06909 8.52747C3.03711 10.6085 4.01007 12.6855 4.98108 14.7655C6.99908 19.0895 8.89508 23.5085 11.1331 27.7255C11.5761 28.5605 12.0421 29.3875 12.5651 30.1775L12.5651 30.1775Z" transform="translate(531.9739 31.070068)" id="Shape" fill="#A20202" fill-rule="evenodd" stroke="#000000" stroke-width="2.75" stroke-linecap="round" stroke-linejoin="round" />
    <path d="M14.0008 0C15.5248 2.09799 17.3938 4.34201 18.1928 6.85101C18.7458 8.59003 18.0658 9.871 16.4378 10.663C14.0438 11.827 11.1928 12.207 8.56079 12.269C6.48077 12.317 4.21777 12.185 2.31976 11.247C-1.08423 9.56601 0.105774 6.168 0.658752 3.186" transform="translate(546.6062 60.841553)" id="Shape" fill="none" fill-rule="evenodd" stroke="#000000" stroke-width="2.75" stroke-linecap="round" stroke-linejoin="round" />
    <path d="M0 19.413C1.171 14.219 2.412 9.03403 4.17 4.00201C4.642 2.651 5.153 1.31403 5.72 0" transform="translate(81.30701 68.98755)" id="Shape" fill="none" fill-rule="evenodd" stroke="#000000" stroke-width="2.75" stroke-linecap="round" stroke-linejoin="round" />
    <path d="M6.87204 5.58353C11.967 5.85751 17.157 5.90952 22.243 5.46152C23.929 5.31253 25.9041 5.19852 27.455 4.42752C28.82 3.74951 28.6631 1.73651 27.4481 0.959534C25.9631 0.00952148 23.5821 0.165527 21.9141 0.0935364C19.2711 -0.0194702 16.6241 -0.0114746 13.9791 0.0215454C11.5171 0.0515442 9.04605 0.126556 6.59406 0.36554C4.94705 0.52655 3.18304 0.722534 1.66705 1.43954C0.41806 2.02954 -0.866943 3.47556 0.779053 4.46555C2.00507 5.20355 3.66504 5.30756 5.03806 5.44354C5.64804 5.50253 6.26004 5.54453 6.87204 5.58353L6.87204 5.58353Z" transform="translate(391.9569 59.781006)" id="Shape" fill="none" fill-rule="evenodd" stroke="#000000" stroke-width="2.75" stroke-linecap="round" stroke-linejoin="round" />
    <path d="M20.328 0C15.256 5.05301 10.116 10.038 4.76599 14.798C3.19202 16.198 1.59698 17.573 0 18.945C5.31799 19.017 10.635 19.132 15.932 19.633C20.936 20.106 25.965 20.857 30.738 22.48C35.282 24.026 39.525 26.418 43.4 29.233C47.353 32.104 50.912 35.476 54.179 39.101C57.72 43.03 60.897 47.27 63.738 51.729C66.542 56.13 69.046 60.718 71.425 65.36C73.761 69.916 75.949 74.54 78.101 79.185C80.5061 84.375 82.79 89.645 85.425 94.725C87.662 99.038 90.261 103.377 94.577 105.889C98.577 108.217 103.418 108.727 107.942 109.102C113.257 109.543 118.601 109.716 123.926 109.985C128.908 110.237 133.894 110.451 138.873 110.757C144.569 111.107 150.27 111.407 155.962 111.814C161.351 112.199 166.742 112.569 172.123 113.055C177.776 113.566 183.43 114.083 189.069 114.728C194.282 115.324 199.478 116.06 204.635 117.026C209.834 118 214.997 119.179 220.114 120.516C225.333 121.88 230.515 123.381 235.623 125.117C240.628 126.818 245.562 128.732 250.388 130.892C255.066 132.986 259.644 135.32 264.059 137.924C266.309 139.251 268.503 140.661 270.674 142.111" transform="translate(600.52 58.40564)" id="Shape" fill="none" fill-rule="evenodd" stroke="#000000" stroke-width="2.75" stroke-linecap="round" stroke-linejoin="round" />
    <path d="M20.328 142.111C15.256 137.058 10.116 132.073 4.76599 127.313C3.19202 125.913 1.59698 124.538 0 123.166C5.31799 123.094 10.635 122.979 15.932 122.478C20.936 122.005 25.965 121.254 30.738 119.631C35.282 118.085 39.525 115.693 43.4 112.878C47.353 110.007 50.912 106.635 54.179 103.01C57.72 99.0809 60.897 94.841 63.738 90.382C66.542 85.981 69.046 81.3929 71.425 76.751C73.761 72.1949 75.949 67.571 78.101 62.926C80.5061 57.736 82.79 52.4659 85.425 47.386C87.662 43.073 90.261 38.733 94.577 36.222C98.577 33.894 103.418 33.384 107.942 33.009C113.257 32.568 118.601 32.395 123.926 32.126C128.908 31.874 133.894 31.66 138.873 31.354C144.569 31.004 150.27 30.704 155.962 30.297C161.351 29.912 166.742 29.542 172.123 29.056C177.776 28.545 183.43 28.028 189.069 27.383C194.282 26.787 199.478 26.051 204.635 25.085C209.834 24.111 214.997 22.932 220.114 21.595C225.333 20.231 230.515 18.73 235.623 16.994C240.628 15.293 245.562 13.379 250.388 11.219C255.066 9.125 259.644 6.79102 264.059 4.18701C266.309 2.85999 268.503 1.45001 270.674 0" transform="translate(600.52 247.55273)" id="Shape" fill="none" fill-rule="evenodd" stroke="#000000" stroke-width="2.75" stroke-linecap="round" stroke-linejoin="round" />
    <path d="M6.87204 0.210266C11.967 -0.0637207 17.157 -0.115723 22.243 0.333252C23.929 0.482239 25.9041 0.596252 27.455 1.36725C28.82 2.04523 28.6631 4.05823 27.4481 4.83527C25.9631 5.78528 23.5821 5.62927 21.9141 5.70129C19.2711 5.81427 16.6241 5.8053 13.9791 5.77332C11.5171 5.74329 9.04605 5.66833 6.59406 5.42932C4.94705 5.26831 3.18304 5.07233 1.66705 4.35535C0.41806 3.76532 -0.866943 2.31934 0.779053 1.32935C2.00507 0.59137 3.66504 0.487366 5.03806 0.351318C5.64804 0.290283 6.26004 0.249268 6.87204 0.210266L6.87204 0.210266Z" transform="translate(391.9569 382.49426)" id="Shape" fill="none" fill-rule="evenodd" stroke="#000000" stroke-width="2.75" stroke-linecap="round" stroke-linejoin="round" />
    <path d="M0 0C1.171 5.19397 2.412 10.379 4.17 15.411C4.642 16.762 5.153 18.099 5.72 19.413" transform="translate(81.30701 359.66858)" id="Shape" fill="none" fill-rule="evenodd" stroke="#000000" stroke-width="2.75" stroke-linecap="round" stroke-linejoin="round" />
    <path d="M14.0008 12.2775C15.5248 10.1795 17.3938 7.93555 18.1928 5.42651C18.7458 3.6875 18.0658 2.40649 16.4378 1.6145C14.0438 0.4505 11.1928 0.0704956 8.56079 0.00848389C6.48077 -0.0394897 4.21777 0.0924683 2.31976 1.03046C-1.08423 2.71149 0.105774 6.10944 0.658752 9.09143" transform="translate(546.6062 374.95007)" id="Shape" fill="none" fill-rule="evenodd" stroke="#000000" stroke-width="2.75" stroke-linecap="round" stroke-linejoin="round" />
    <path d="M12.5651 3.34082C13.3251 2.19781 14.2542 1.03381 15.5261 0.441833C16.6031 -0.0591431 17.8121 -0.0341797 18.9711 0.0418091C21.8391 0.231812 25.0251 0.963806 27.3981 2.66083C29.0701 3.85681 30.1161 5.61682 30.5441 7.61481C31.1541 10.4638 30.5641 13.4118 29.5141 16.0828C28.0191 19.8868 25.7031 23.6828 22.6941 26.4808C19.8481 29.1259 16.1311 30.6018 12.4801 31.7668C9.49213 32.7198 5.99408 33.8588 2.81409 33.4238C1.9621 33.3078 1.0271 33.0269 0.459106 32.3398C-0.181885 31.5638 -0.0338745 30.5079 0.199097 29.6038C0.612122 28.0008 1.37408 26.4858 2.06909 24.9918C3.03711 22.9108 4.01007 20.8338 4.98108 18.7538C6.99908 14.4299 8.89508 10.0109 11.1331 5.79382C11.5761 4.95782 12.0421 4.1308 12.5651 3.34082L12.5651 3.34082Z" transform="translate(531.9739 383.4807)" id="Shape" fill="#A20202" fill-rule="evenodd" stroke="#000000" stroke-width="2.75" stroke-linecap="round" stroke-linejoin="round" />
    <path d="M2.56699 0C1.62598 4.685 0.688995 9.38702 0.214996 14.146C0.0920105 15.385 0.00198364 16.629 0 17.875" transform="translate(378.80896 371.78857)" id="Shape" fill="none" fill-rule="evenodd" stroke="#000000" stroke-width="2.75" stroke-linecap="round" stroke-linejoin="round" />
    <path d="M36.2101 3.99213C42.7201 3.51611 49.2291 3.0401 55.7391 2.56415C65.1161 1.87817 74.4931 1.19318 83.8711 0.507141C85.8221 0.364136 87.7721 0.210144 89.7261 0.122131C92.6061 -0.00689697 95.7011 -0.215881 98.5031 0.612122C100.154 1.1001 101.481 2.08411 101.972 3.82214C102.604 6.06012 102.336 8.48712 101.932 10.7382C100.754 17.2892 98.5221 23.7512 95.8861 29.8481C93.457 35.4661 90.621 41.7672 85.814 45.7672C81.088 49.6992 74.794 51.3141 68.84 52.2241C62.513 53.1921 56.075 53.4841 49.692 53.8681C43.114 54.2641 36.537 54.6791 29.956 55.0181C20.673 55.4962 11.39 55.9741 2.10699 56.4521C1.40497 56.4882 0.701965 56.5242 0 56.5612" transform="translate(722.51697 297.68042)" id="Shape" fill="none" fill-rule="evenodd" stroke="#000000" stroke-width="2.75" stroke-linecap="round" stroke-linejoin="round" />
    <path d="M11.0824 36.9543C15.0464 36.4573 19.5584 36.0883 23.0844 34.0353C25.4954 32.6313 26.9764 30.2753 28.1834 27.8253C30.3734 23.3782 32.0254 18.6343 33.6564 13.9603C34.4814 11.5953 35.3084 9.21027 35.9294 6.78229C36.2695 5.45227 36.6624 3.91229 36.3724 2.53131C35.6624 -0.847717 30.2935 0.0333252 27.9274 0.314331C23.3244 0.861328 18.5374 1.77936 14.1895 3.41534C11.9905 4.24237 10.0494 5.35034 8.91748 7.47632C7.85547 9.47034 7.19446 11.7253 6.45245 13.8513C5.71045 15.9793 4.98444 18.1153 4.27948 20.2553C3.42047 22.8623 2.5365 25.4633 1.72546 28.0863C1.08649 30.1523 0.323486 32.2803 0.043457 34.4333C-0.164551 36.0313 0.355469 37.0323 2.00348 37.3353C3.7475 37.6563 5.61047 37.4833 7.36249 37.3423C8.60541 37.2433 9.84442 37.0992 11.0824 36.9543L11.0824 36.9543Z" transform="translate(776.3727 302.00427)" id="Shape" fill="none" fill-rule="evenodd" stroke="#000000" stroke-width="2.75" stroke-linecap="round" stroke-linejoin="round" />
    <path d="M221.627 0C219.082 0.0739746 216.537 0.14801 213.992 0.221008C207.344 0.414001 200.696 0.606995 194.048 0.799011C184.615 1.07202 175.181 1.34601 165.747 1.62C155.03 1.93097 144.313 2.242 133.595 2.552C122.862 2.86298 112.129 3.17401 101.396 3.48602C92.1649 3.75403 82.9329 4.021 73.702 4.289C67.258 4.47601 60.814 4.66302 54.371 4.84998C52.0309 4.91797 49.6899 4.99695 47.35 5.05096C39.7209 5.22595 32.077 5.54395 24.446 5.30695C17.697 5.09692 10.983 4.32794 4.474 2.48096C2.96698 2.05298 1.47803 1.56598 0 1.04694" transform="translate(639.155 357.55957)" id="Shape" fill="none" fill-rule="evenodd" stroke="#000000" stroke-width="2.75" stroke-linecap="round" stroke-linejoin="round" />
    <path d="M16.0021 248.254C21.2461 246.854 26.4901 245.454 31.7331 244.054C36.2301 242.853 40.7311 241.669 45.2161 240.421C50.1381 239.051 55.0681 237.699 59.9592 236.218C64.9902 234.694 69.9961 233.133 74.9342 231.324C77.9982 230.202 81.5432 229.091 83.7462 226.53C85.6102 224.364 86.1732 221.401 86.4771 218.645C86.9931 213.96 86.8562 209.176 86.6112 204.478C86.3372 199.211 85.9272 193.959 85.5132 188.702C85.1302 183.844 84.7462 178.987 84.4882 174.12C84.2262 169.191 83.9922 164.259 83.8672 159.324C83.7222 153.618 83.6092 147.914 83.5302 142.207C83.4562 136.893 83.4502 131.58 83.4282 126.266C83.4062 121.132 83.4532 115.998 83.4752 110.865C83.4942 106.362 83.5592 101.857 83.6522 97.3549C83.7652 91.8769 83.9432 86.4019 84.1552 80.9269C84.3462 75.9819 84.6372 71.038 84.9962 66.1019C85.3512 61.213 85.8082 56.3309 86.1472 51.4409C86.5062 46.2629 86.8232 41.0759 86.7982 35.8829C86.7802 32.0399 86.7552 27.7809 85.2552 24.1739C84.3472 21.9909 82.7332 20.4329 80.6772 19.3099C78.6422 18.1989 76.4202 17.4289 74.2472 16.6389C71.8952 15.7829 69.5302 14.9689 67.1462 14.2029C62.1172 12.5879 57.0402 11.1269 51.9631 9.67288C48.0611 8.55487 44.1471 7.47287 40.2251 6.42587C33.6181 4.66187 27.0101 2.89786 20.4031 1.13287C19.2851 0.834869 18.1681 0.535889 17.0501 0.237885C16.8401 0.181885 16.4021 -0.0331116 16.1871 0.00787354C15.8811 0.0658875 16.1561 -0.141113 15.9291 0.217865C15.5271 0.851868 15.4251 1.96185 15.2161 2.68585C15.1001 3.08887 14.9841 3.49084 14.8721 3.89487C14.5371 5.10587 14.1951 6.31488 13.8732 7.52988C12.5641 12.4709 11.3282 17.4299 10.2292 22.4229C9.14716 27.3409 8.14316 32.2749 7.25615 37.2309C6.37015 42.1799 5.55215 47.1419 4.85115 52.1209C4.15614 57.0519 3.50615 61.9939 2.98215 66.9469C2.42715 72.1949 1.92314 77.4489 1.52214 82.7109C1.11813 88.0229 0.827133 93.3419 0.559143 98.6629C0.303146 103.751 0.20015 108.847 0.0891418 113.94C-0.016861 118.799 -0.0128632 123.66 0.0221405 128.519C0.0571442 133.42 0.139145 138.321 0.320145 143.219C0.505142 148.228 0.687149 153.241 1.02814 158.242C1.37914 163.398 1.72813 168.555 2.21713 173.701C2.71413 178.925 3.28513 184.142 3.93613 189.349C4.57613 194.467 5.33212 199.573 6.16412 204.663C6.98112 209.663 7.90012 214.646 8.91013 219.611C9.90613 224.505 11.0031 229.381 12.2041 234.229C13.3681 238.93 14.6561 243.599 16.0021 248.254L16.0021 248.254Z" transform="translate(184.35889 99.92969)" id="Shape" fill="none" fill-rule="evenodd" stroke="#000000" stroke-width="2.75" stroke-linecap="round" stroke-linejoin="round" />
    <path d="M216.065 8.95145C220.8 8.11646 225.539 7.31445 230.296 6.61343C235.092 5.90744 239.901 5.28644 244.716 4.72144C249.229 4.19244 253.75 3.73843 258.276 3.33142C263.448 2.86642 268.62 2.46542 273.798 2.07941C278.011 1.76541 282.235 1.5354 286.455 1.33142C291.857 1.07043 297.256 0.844421 302.66 0.641418C306.611 0.493408 310.566 0.37442 314.519 0.312408C320.358 0.220398 326.197 0.127411 332.036 0.0354004C335.477 -0.0185852 338.922 0.0213928 342.364 0.0194092C349.152 0.0154114 355.941 0.0104065 362.729 0.00640869C365.157 0.00439453 367.586 -0.00958252 370.014 0.0114136C374.231 0.0484009 378.447 0.0854187 382.664 0.122406C389.495 0.182404 396.327 0.242401 403.158 0.302399C409.85 0.361389 416.541 0.419403 423.233 0.478394C427.037 0.511383 430.841 0.54538 434.646 0.5784C436.267 0.592407 437.888 0.638397 439.508 0.671387C444.701 0.777374 449.893 0.883392 455.086 0.98938C462.082 1.13239 469.078 1.27438 476.074 1.41739C482.808 1.55438 489.542 1.69238 496.275 1.82938C500.584 1.91739 504.892 2.00537 509.201 2.09338C509.805 2.10538 510.409 2.11838 511.013 2.13037C501.504 4.72736 491.996 7.32437 482.487 9.92236C474.824 12.0154 467.142 14.0194 459.452 16.0144C451.057 18.1914 442.662 20.3264 434.203 22.2464C425.793 24.1554 417.323 25.7914 408.795 27.0754C400.519 28.3214 392.16 29.0954 383.798 29.4474C374.522 29.8374 365.25 29.9714 355.967 30.0854C347.707 30.1864 339.439 30.0874 331.179 30.0854C321.955 30.0834 312.727 30.1474 303.503 30.0794C294.984 30.0164 286.431 29.9014 277.93 29.2984C269.571 28.7044 261.535 27.1884 253.598 24.4844C245.518 21.7314 237.651 18.3634 229.817 14.9864C225.442 13.1004 221.085 11.1804 216.731 9.24539C213.325 7.73239 210.021 6.24939 206.258 5.93539C201.98 5.5784 197.637 5.85739 193.355 6.0004C188.976 6.14639 184.6 6.38638 180.225 6.6294C171.087 7.1384 161.968 7.8584 152.844 8.5614C144.654 9.19339 136.469 9.88739 128.297 10.7244C124.997 11.0624 121.363 11.2774 118.422 12.9794C115.855 14.4654 114.234 17.0434 112.963 19.6444C112.515 20.5614 112.105 21.4974 111.721 22.4414C111.566 22.8214 111.414 23.2034 111.265 23.5854C111.176 23.8154 111.086 24.3694 110.907 24.5254C110.698 24.7074 110.508 24.5764 110.163 24.4904C108.26 24.0134 106.333 23.6324 104.389 23.3684C100.491 22.8394 96.533 22.7804 92.605 22.8524C86.321 22.9674 80.044 23.2024 73.763 23.4294C61.719 23.8624 49.674 24.2964 37.63 24.7294C26.827 25.1184 16.024 25.5074 5.221 25.8954C3.481 25.9584 1.74 26.0204 0 26.0834" transform="translate(89.50708 75.21912)" id="Shape" fill="none" fill-rule="evenodd" stroke="#000000" stroke-width="2.75" stroke-linecap="round" stroke-linejoin="round" />
    <path d="M216.065 21.1793C220.8 22.0143 225.539 22.8173 230.296 23.5173C235.092 24.2233 239.901 24.8443 244.716 25.4093C249.229 25.9383 253.75 26.3923 258.276 26.7993C263.448 27.2643 268.62 27.6653 273.798 28.0513C278.011 28.3654 282.235 28.5953 286.455 28.7993C291.857 29.0603 297.256 29.2863 302.66 29.4893C306.611 29.6373 310.566 29.7563 314.519 29.8183C320.358 29.9103 326.197 30.0033 332.036 30.0953C335.477 30.1493 338.922 30.1093 342.364 30.1113C349.152 30.1153 355.941 30.1202 362.729 30.1243C365.157 30.1263 367.586 30.1403 370.014 30.1193C374.231 30.0823 378.447 30.0453 382.664 30.0082C389.495 29.9482 396.327 29.8882 403.158 29.8282C409.85 29.7692 416.541 29.7112 423.233 29.6522C427.037 29.6192 430.841 29.5852 434.646 29.5522C436.267 29.5383 437.888 29.4922 439.508 29.4592C444.701 29.3532 449.893 29.2473 455.086 29.1412C462.082 28.9982 469.078 28.8563 476.074 28.7133C482.808 28.5762 489.542 28.4382 496.275 28.3013C500.584 28.2133 504.892 28.1252 509.201 28.0373C509.805 28.0253 510.409 28.0123 511.013 28.0003C501.504 25.4033 491.996 22.8063 482.487 20.2083C474.824 18.1153 467.142 16.1113 459.452 14.1163C451.057 11.9393 442.662 9.80432 434.203 7.88434C425.793 5.97534 417.323 4.33936 408.795 3.05536C400.519 1.80939 392.16 1.03534 383.798 0.68335C374.522 0.292358 365.25 0.159363 355.967 0.0453491C347.707 -0.0556641 339.439 0.043335 331.179 0.0453491C321.955 0.0473633 312.727 -0.0166626 303.503 0.0513306C294.984 0.114319 286.431 0.229309 277.93 0.832336C269.571 1.42633 261.535 2.94232 253.598 5.64636C245.518 8.39935 237.651 11.7673 229.817 15.1443C225.442 17.0303 221.085 18.9504 216.731 20.8854C213.325 22.3984 210.021 23.8813 206.258 24.1954C201.98 24.5524 197.637 24.2734 193.355 24.1304C188.976 23.9844 184.6 23.7444 180.225 23.5013C171.087 22.9924 161.968 22.2723 152.844 21.5693C144.654 20.9373 136.469 20.2433 128.297 19.4063C124.997 19.0683 121.363 18.8533 118.422 17.1513C115.855 15.6653 114.234 13.0873 112.963 10.4863C112.515 9.56934 112.105 8.6333 111.721 7.68933C111.566 7.30933 111.414 6.92731 111.265 6.54535C111.176 6.31537 111.086 5.76135 110.907 5.60535C110.698 5.42334 110.508 5.55432 110.163 5.64032C108.26 6.11731 106.333 6.49829 104.389 6.76233C100.491 7.29132 96.533 7.35034 92.605 7.27832C86.321 7.16333 80.044 6.92835 73.763 6.70129C61.719 6.26831 49.674 5.83429 37.63 5.40131C26.827 5.01233 16.024 4.62329 5.221 4.23529C3.481 4.1723 1.74 4.11029 0 4.0473" transform="translate(89.50708 342.71936)" id="Shape" fill="none" fill-rule="evenodd" stroke="#000000" stroke-width="2.75" stroke-linecap="round" stroke-linejoin="round" />
    <path d="M0 109.767C0.0540009 118.719 0.223007 127.659 0.613998 136.604C0.985992 145.12 1.586 153.633 2.427 162.116C3.29201 170.839 4.34401 179.544 5.743 188.198C7.14299 196.856 8.76799 205.472 10.755 214.015C11.13 215.627 11.251 217.754 12.671 218.854C13.65 219.612 14.795 219.658 15.944 219.353C21.138 217.973 26.32 216.543 31.508 215.138C39.631 212.938 47.745 210.701 55.778 208.186C57.665 207.595 59.546 206.979 61.411 206.322C63.036 205.749 65.111 205.33 66.539 204.34C67.6499 203.57 67.944 202.442 68.023 201.169C68.144 199.208 68.144 197.239 68.103 195.275C67.9209 186.604 67.031 177.974 66.409 169.329C65.7559 160.267 65.332 151.197 65.1019 142.114C64.8759 133.178 64.8119 124.239 64.7699 115.3C64.7319 107.256 64.7229 99.2081 64.862 91.1651C65.026 81.7211 65.2009 72.2841 65.625 62.8471C66.006 54.3651 66.803 45.9151 67.409 37.4481C67.7309 32.9451 68.0279 28.4451 68.1109 23.9311C68.1479 21.9301 68.16 19.9101 67.9929 17.9151C67.8949 16.7471 67.4029 15.7111 66.3659 15.0821C64.7749 14.1181 62.6419 13.6351 60.8929 13.0301C59.0869 12.4051 57.2689 11.8081 55.4419 11.2461C51.2189 9.94812 46.9849 8.68912 42.7339 7.48611C33.7759 4.95111 24.7949 2.41211 15.7689 0.134125C14.5689 -0.168884 13.3419 0.0231323 12.4179 0.899139C11.1969 2.05615 11.0789 4.12613 10.7239 5.66415C9.71094 10.0461 8.80093 14.4452 7.93594 18.8592C6.23294 27.5482 4.93094 36.3052 3.79494 45.0842C2.68494 53.6612 1.91893 62.2822 1.30994 70.9081C0.710938 79.3901 0.309937 87.8951 0.15593 96.3972C0.071991 100.853 0.0269928 105.308 0 109.767L0 109.767Z" transform="translate(190.50403 114.267334)" id="Shape" fill="none" fill-rule="evenodd" stroke="#000000" stroke-width="2.75" stroke-linecap="round" stroke-linejoin="round" />
    <path d="M0 28.966C1.461 21.362 2.95801 13.745 5.08401 6.29303C5.68802 4.17505 6.34302 2.07306 7.08902 0" transform="translate(381.3761 342.8225)" id="Shape" fill="none" fill-rule="evenodd" stroke="#000000" stroke-width="2.75" stroke-linecap="round" stroke-linejoin="round" />
    <path d="M40.6941 17.2372C43.3041 16.9583 45.3791 15.9722 46.6411 13.5822C47.6331 11.7022 48.3291 9.64319 48.9121 7.60419C49.3211 6.17316 49.7461 4.66516 49.7811 3.1662C49.8071 2.01819 49.4871 0.94519 48.3431 0.477173C47.2331 0.0231934 45.9091 0.0301514 44.7381 0.00817871C40.6031 -0.0668335 36.4331 0.383179 32.3581 1.05518C28.1301 1.7522 23.9481 2.75818 19.8521 4.01318C15.593 5.31818 11.39 6.82019 7.27805 8.53119C6.49203 8.85822 -1.28796 11.9262 0.185059 13.3352C1.07407 14.1852 3.25107 14.1682 4.34006 14.2952C5.88007 14.4752 7.42407 14.6252 8.96606 14.7852C14.9841 15.4082 21.0031 16.0312 27.0211 16.6552C30.6781 17.0342 34.3591 17.3912 38.0391 17.3662C38.9251 17.3612 39.8121 17.3302 40.6941 17.2372L40.6941 17.2372Z" transform="translate(325.807 348.8203)" id="Shape" fill="none" fill-rule="evenodd" stroke="#000000" stroke-width="2.75" stroke-linecap="round" stroke-linejoin="round" />
    <path d="M40.6941 0.130249C43.3041 0.409241 45.3791 1.39526 46.6411 3.78525C47.6331 5.66525 48.3291 7.72424 48.9121 9.76324C49.3211 11.1942 49.7461 12.7022 49.7811 14.2012C49.8071 15.3492 49.4871 16.4222 48.3431 16.8902C47.2331 17.3442 45.9091 17.3372 44.7381 17.3592C40.6031 17.4342 36.4331 16.9842 32.3581 16.3122C28.1301 15.6152 23.9481 14.6092 19.8521 13.3542C15.593 12.0492 11.39 10.5472 7.27805 8.83621C6.49203 8.50922 -1.28796 5.44122 0.185059 4.03223C1.07407 3.18222 3.25107 3.19922 4.34006 3.07224C5.88007 2.89224 7.42407 2.74225 8.96606 2.58224C14.9841 1.95926 21.0031 1.33624 27.0211 0.71225C30.6781 0.333252 34.3591 -0.0237427 38.0391 0.00125122C38.2851 0.0022583 40.6941 0.0412598 40.6941 0.130249L40.6941 0.130249Z" transform="translate(325.807 81.88135)" id="Shape" fill="none" fill-rule="evenodd" stroke="#000000" stroke-width="2.75" stroke-linecap="round" stroke-linejoin="round" />
    <path d="M0 0C1.461 7.604 2.95801 15.222 5.08401 22.673C5.68802 24.791 6.34302 26.893 7.08902 28.966" transform="translate(381.3761 76.27954)" id="Shape" fill="none" fill-rule="evenodd" stroke="#000000" stroke-width="2.75" stroke-linecap="round" stroke-linejoin="round" />
  </g>
</svg>